<svg width="109" height="109" viewBox="0 0 109 109" fill="none" xmlns="http://www.w3.org/2000/svg">
<g clip-path="url(#clip0_37_2766)">
<path d="M54.11 108.22C83.9941 108.22 108.22 83.9941 108.22 54.11C108.22 24.2259 83.9941 0 54.11 0C24.2259 0 0 24.2259 0 54.11C0 83.9941 24.2259 108.22 54.11 108.22Z" fill="#FFC196"/>
<path d="M89.95 44.31C95.34 64.99 85.26 85.98 65.47 91.14C45.68 96.3 25.26 83.72 19.87 63.04C14.48 42.36 26.9 20.77 45.95 16.25C64.99 11.73 84.56 23.63 89.95 44.31Z" fill="#F47769"/>
<path d="M65.08 41.46L69.77 53.52L58.88 59.72L56.03 54.36L65.08 41.46Z" fill="url(#paint0_linear_37_2766)"/>
<path d="M58.38 55.36C64.32 49.58 70.35 43.8 70.1 34C69.85 24.2 60.57 16.88 46.48 22.19C27.13 29.48 15.32 68.42 46.48 81.74C67.12 90.56 84.92 67.92 79.9 54.1C74.87 40.28 59.46 56.95 59.46 56.95L58.38 55.36Z" fill="#8A1E59"/>
<path d="M55.84 82.22C52.92 82.22 49.97 81.59 47.07 80.36C30.81 73.41 28.64 60.34 28.8 53.17C29.08 40.33 37.08 27.34 47.01 23.61C49.98 22.49 52.82 21.93 55.45 21.93C63.13 21.93 68.41 26.8 68.59 34.05C68.82 43.11 64.29 49.27 58.46 54.95L56.42 55.17L59.29 59.37L59.47 56.96C61.49 54.78 68.85 50.14 73.46 50.14C75.74 50.14 77.39 51.61 78.49 54.63C80.25 59.47 78.9 65.95 74.97 71.56C70.29 78.23 63.14 82.22 55.84 82.22Z" fill="#571338"/>
<path d="M58.38 33.25C56.2 34.42 54.36 33.42 54.36 33.42C53.96 33.44 53.57 33.39 53.19 33.32C49.91 32.65 47.64 28.9 50.31 26.74C51.47 25.8 53.55 25.16 56.88 25.21C62.02 25.28 64.12 26.7 64.37 28.33C64.68 30.47 61.8 32.96 58.38 33.25Z" fill="#781A36"/>
<path d="M59.55 78.48C59.34 78.49 59.14 78.51 58.94 78.52C52.39 78.94 47.1 76.89 43.31 73.35C38.2 68.59 35.82 61.13 36.77 53.35C38.44 39.62 46.48 32.24 56.53 32.91C58.62 33.05 60.38 33.41 61.82 33.97C65.48 35.4 67.03 38.15 66.32 42C65.66 45.57 63.05 50.08 58.37 55.36L59.46 56.95C59.46 56.95 66.42 49.16 72.78 52.84C79.15 56.53 74.8 77.18 59.55 78.48Z" fill="#AB2B6F"/>
<path d="M57.29 77.57C52.07 77.57 47.47 75.86 43.99 72.61C39.18 68.12 36.85 60.97 37.76 53.47C39.23 41.38 45.95 33.87 55.28 33.87C55.67 33.87 56.07 33.88 56.46 33.91C60.32 34.17 63.08 35.23 64.44 36.97C65.4 38.2 65.7 39.83 65.33 41.81C64.69 45.26 62.02 49.72 57.62 54.68L57.1 55.27L59.35 58.57L60.21 57.62C60.25 57.57 64.53 52.86 69.11 52.86C70.23 52.86 71.29 53.15 72.27 53.71C74.39 54.93 75.16 58.92 74.16 63.4C72.81 69.43 68.15 76.73 59.45 77.47C58.73 77.54 58 77.57 57.29 77.57Z" fill="#781A36"/>
<path opacity="0.5" d="M57.17 74.8C52.62 74.8 48.61 73.31 45.59 70.49C41.39 66.58 39.36 60.32 40.16 53.77C41.45 43.21 47.28 36.65 55.37 36.65C55.71 36.65 56.05 36.66 56.4 36.68C59.72 36.9 62.07 37.79 63.2 39.24C63.98 40.24 64.21 41.57 63.91 43.21C63.35 46.22 61 50.12 57.12 54.5L56.42 55.29L58.96 59L60.11 57.72C60.15 57.68 63.84 53.62 67.73 53.62C68.66 53.62 69.51 53.85 70.33 54.32C72.05 55.32 72.66 58.68 71.81 62.49C70.64 67.73 66.6 74.08 59.06 74.72C58.43 74.78 57.79 74.8 57.17 74.8Z" fill="#781A36"/>
<path d="M63.74 64.91C59.47 67.93 52.86 68.26 48.58 58.38C44.31 48.5 49.75 38.28 55.78 38.87C59.4 39.22 61.41 41.95 61.67 44.46C61.85 46.13 61.24 47.71 59.8 48.41C56.2 50.17 53.6 46.31 53.6 46.31L51.93 49C51.93 49 58.8 49.5 58.38 55.37C60.14 55.03 59.47 56.96 59.47 56.96C59.47 56.96 60.31 59.39 62.32 59.47C62.45 59.48 62.57 59.47 62.68 59.45C64.42 59.29 65.06 57.47 65.93 57.71C66.84 57.96 68.01 61.9 63.74 64.91Z" fill="#FDB07B"/>
<path d="M58.55 45.4C58.55 45.91 58.14 46.32 57.63 46.32C57.12 46.32 56.7 45.9 56.7 45.4C56.7 44.89 57.11 44.48 57.62 44.48C58.13 44.48 58.55 44.89 58.55 45.4Z" fill="#634530"/>
<path opacity="0.7" d="M50.92 27.14C48.4 28.97 63.82 30.24 63.23 27.98C62.65 25.71 53.69 25.13 50.92 27.14Z" fill="#781A36"/>
<path opacity="0.4" d="M56.37 26.72C55.81 27.52 59.47 27.89 60.06 27.14C60.65 26.39 56.95 25.88 56.37 26.72Z" fill="#FFB8B0"/>
<path opacity="0.3" d="M63.74 64.91C59.47 67.93 52.86 68.26 48.58 58.38C44.31 48.5 49.75 38.28 55.78 38.87C59.4 39.22 61.41 41.95 61.67 44.46C61.24 42.73 59.75 40.2 56.65 39.79C52.88 39.29 48.36 44.44 48.48 52.48C48.61 60.52 55.14 66.55 60.67 64.92C65.87 63.38 64.51 59.63 62.66 59.46C64.4 59.3 65.04 57.48 65.91 57.72C66.84 57.96 68.01 61.9 63.74 64.91Z" fill="#DB5932"/>
<path opacity="0.3" d="M51.68 51.17C51.01 53.26 52.1 55.27 54.44 56.87C56.79 58.46 57.54 63.65 61.22 62.73C64.91 61.81 59.96 60.38 58.46 57.2C56.96 54.02 57.29 52.59 56.37 51.67C55.45 50.76 52.36 49.05 51.68 51.17Z" fill="#FDB07B"/>
<path opacity="0.4" d="M60.11 77.79C59.8 78.07 59.41 78.32 58.94 78.52C52.39 78.94 47.1 76.89 43.31 73.35C38.2 68.59 35.82 61.13 36.77 53.35C38.44 39.62 46.48 32.24 56.53 32.91C58.62 33.05 60.38 33.41 61.82 33.97C61.89 34.05 61.96 34.12 62.02 34.2C69.28 43.15 46.08 57.06 49.87 68.11C53.2 77.79 62.55 75.56 60.11 77.79Z" fill="#781A36"/>
<path d="M53.86 33.09C53.86 33.09 53.59 33.19 53.19 33.33C49.91 32.66 47.64 28.91 50.31 26.75C48.96 28.3 50 31.98 53.86 33.09Z" fill="#AB2B6F"/>
<path d="M58.38 33.25C58.38 33.25 56.43 33.35 57.21 32.96C61.98 32.5 63.96 30.21 64.36 28.34C64.68 30.47 61.8 32.96 58.38 33.25Z" fill="#AB2B6F"/>
<path opacity="0.8" d="M41.71 50.99C45.96 55.95 58.54 39.85 58.54 36.23C58.54 32.6 49.48 35.19 45.07 39.86C41.08 44.08 40.16 49.17 41.71 50.99Z" fill="#781A36"/>
</g>
<defs>
<linearGradient id="paint0_linear_37_2766" x1="65.5325" y1="48.6504" x2="58.162" y2="52.6707" gradientUnits="userSpaceOnUse">
<stop offset="0.1066" stop-color="#F47769"/>
<stop offset="1" stop-color="#FDB07B"/>
</linearGradient>
<clipPath id="clip0_37_2766">
<rect width="108.21" height="108.21" fill="white"/>
</clipPath>
</defs>
</svg>
