<svg width="109" height="109" viewBox="0 0 109 109" fill="none" xmlns="http://www.w3.org/2000/svg">
<g clip-path="url(#clip0_25_1183)">
<path d="M54.11 108.22C83.9941 108.22 108.22 83.9941 108.22 54.11C108.22 24.2259 83.9941 0 54.11 0C24.2259 0 0 24.2259 0 54.11C0 83.9941 24.2259 108.22 54.11 108.22Z" fill="#FFC196"/>
<path d="M72.1051 95.7391C92.7387 87.5159 102.007 62.1349 92.8065 39.0491C83.606 15.9633 59.4207 3.91485 38.7871 12.1381C18.1536 20.3613 8.88525 45.7422 18.0858 68.828C27.2863 91.9138 51.4716 103.962 72.1051 95.7391Z" fill="#F47769"/>
<path d="M58.47 58.38C58.47 58.38 68.84 47.53 70.61 38.28C74.38 18.68 43.47 9.38 29.4 30.24C13.76 53.42 26.13 91.05 59.8 90.04C88.31 89.19 94.92 53.32 83.5 47.24C71.86 41.04 60.55 61.48 60.55 61.48L58.47 58.38Z" fill="#8A1E59"/>
<path d="M58.49 88.55C45.46 88.55 34.59 82.18 28.69 71.07C22.1 58.67 22.89 42.6 30.65 31.08C35.43 23.99 42.83 19.92 50.95 19.92C57.19 19.92 62.93 22.36 66.32 26.46C68.99 29.69 69.96 33.68 69.13 37.99C67.45 46.7 58.82 57.85 58.72 57.96L56.54 58.22L60.69 64.36L61.9 60.14C61.98 59.99 70.09 47.58 78.95 47.58C80.27 47.58 81.56 47.91 82.8 48.57C86.87 50.73 88.4 57.83 86.53 65.82C84.15 76 75.71 88.05 59.76 88.53C59.33 88.54 58.91 88.55 58.49 88.55Z" fill="#571338"/>
<path d="M63.74 50.25C64.08 50.33 67.8399 54.77 67.8399 54.77L60.3899 63.31C60.3899 63.31 56.7 58.95 56.7 58.62C56.71 58.29 63.74 50.25 63.74 50.25Z" fill="url(#paint0_linear_25_1183)"/>
<path d="M71.05 76.58C68.5 78.43 65.33 79.74 61.46 80.13C60.87 80.19 60.27 80.23 59.65 80.24C56.46 80.32 53.45 79.74 50.69 78.64C39.78 74.27 32.84 61.59 34.14 47.96C35.58 32.84 46.86 25.4 56.75 27.28C58.04 27.52 59.3 27.93 60.52 28.49C66.77 31.39 68.26 38.53 66.5 45.64C65.29 50.53 62.55 55.41 58.76 58.89C58.76 58.89 59.89 60.52 60.64 60.77C64 55.19 67.27 51.9 70.12 50.54C74.52 48.44 77.93 50.95 79.11 56.75C80.26 62.4 77.99 71.52 71.05 76.58Z" fill="#781A36"/>
<path opacity="0.3" d="M59.05 74.9C56.5 74.96 54.09 74.5 51.89 73.62C43.17 70.13 37.62 59.99 38.66 49.09C39.97 35.43 51.79 28.71 59.75 33.52C64.29 36.27 64.69 41.76 63.28 47.45C62.32 51.36 60.28 54.47 57.25 57.25C57.25 57.25 60.54 63.58 61.14 63.78C67.97 52.43 74.33 51.72 74.61 56.12C75.03 62.66 71.7 74.6 59.05 74.9Z" fill="#781A36"/>
<path d="M58.97 65.83C58.97 65.83 59.97 63.57 62.49 64.07C65 64.57 63.91 69.72 63.91 69.72C63.91 69.72 64.83 69.22 65.04 69.89C65.25 70.56 63.07 70.77 63.07 70.77C63.07 70.77 61.94 67.67 60.05 67.5C58.17 67.33 56.53 67.54 56.62 67.33C56.71 67.13 58.97 65.83 58.97 65.83Z" fill="#E68A65"/>
<path d="M62.4 73.79C62.06 72.53 60.98 68.18 58.72 69.1C58.28 69.28 57.84 69.49 57.38 69.67C55.46 70.43 53.3 70.76 50.6 66.84C47.25 61.99 46.83 52.48 43.73 45.65C42.44 42.82 42.77 39.34 44.22 36.62C45.63 33.98 48.11 32.06 51.23 32.16C51.54 32.17 51.86 32.2 52.19 32.25C60.4 33.51 60.23 42.55 59.48 44.56C58.73 46.57 60.82 47.07 60.23 48.92C58.9 53.09 52.52 52.94 52.52 52.94C52.52 52.94 52.53 52.95 52.54 52.95C52.94 53.14 59.4 56.2 60.98 60.64C61.57 62.3 61.16 63.69 60.47 64.75C59.81 65.77 58.9 66.48 58.37 66.83C59.17 66.38 61.02 65.6 62.49 67.01C64.37 68.8 63.3 72.68 63.25 72.86C63.36 72.8 64.59 72.14 64.83 72.87C65.08 73.62 62.74 75.05 62.4 73.79Z" fill="#FDB07B"/>
<path opacity="0.5" d="M60.9799 60.64C59.3999 56.19 52.9399 53.13 52.5399 52.95C52.7999 53.13 55.6899 55.07 55.3699 55.87C55.0299 56.71 52.2699 57.13 52.2699 57.13L51.6899 58.64C54.3699 62.41 57.1299 59.48 59.1399 59.73C61.0599 59.97 60.9899 62.96 60.4699 64.76C61.1599 63.69 61.5699 62.3 60.9799 60.64Z" fill="#E68A65"/>
<path d="M55.52 46.95C55.52 46.95 56.94 47.83 58.03 46.62C57.53 48.7 55.93 47.82 55.52 46.95Z" fill="#E68A65"/>
<path d="M49.5901 45.65C47.2001 46.28 47.5801 49.5 50.3901 48.87C47.8301 48.16 48.6701 46.15 49.5901 45.65Z" fill="#E68A65"/>
<path d="M51.26 56.49C54.78 57.91 56.49 56.2 57.75 55.15C59.01 54.1 59.94 56.74 59.26 57.29C58.84 57.62 57.79 56.66 57.79 56.66C57.79 56.66 56.62 59.88 54.52 60.22C52.43 60.55 51.38 58.38 51.38 58.38L51.26 56.49Z" fill="#FDB07B"/>
<path opacity="0.7" d="M66.5 45.63C67.68 31.74 57.85 27.2 48.08 30.61C37.65 34.26 34.89 47.2 36.52 57.5C37.94 66.45 43.62 74.91 50.68 78.64C39.77 74.27 32.83 61.59 34.13 47.96C35.76 30.87 49.96 23.59 60.51 28.49C66.77 31.38 68.26 38.52 66.5 45.63Z" fill="#781A36"/>
<path opacity="0.7" d="M61.45 80.13C65.82 79.39 71.5299 75.94 74.6299 70.69C80.1599 61.33 78.9199 48.64 70.1299 50.53C74.5299 48.43 77.94 50.94 79.12 56.74C80.68 64.47 75.87 78.69 61.45 80.13Z" fill="#781A36"/>
<path d="M57.38 69.66C55.46 70.42 53.3 70.75 50.6 66.83C47.25 61.98 46.83 52.47 43.73 45.64C42.44 42.81 42.77 39.33 44.22 36.61C42.89 40.3 44.45 45.71 46.13 49.38C48.21 53.9 47.83 58.56 50.03 64.27C51.89 69.11 55.13 69.99 57.38 69.66Z" fill="#E68A65"/>
<path opacity="0.7" d="M71.12 76.47C71.1 76.51 71.08 76.55 71.05 76.58C68.5 78.43 65.33 79.74 61.46 80.13C60.87 80.19 60.27 80.23 59.65 80.24C56.46 80.32 53.45 79.74 50.69 78.64C39.78 74.27 32.84 61.59 34.14 47.96C35.58 32.84 46.86 25.4 56.75 27.28C63.11 30.11 61.36 40.01 55.79 46.46C48.5 54.88 46.24 66.69 53.53 71.71C60.81 76.72 74.38 70.44 71.12 76.47Z" fill="#781A36"/>
<path opacity="0.8" d="M37.95 44.81C39.89 53.3 61.08 34.33 56.8 31.24C47.75 24.71 35.94 36.01 37.95 44.81Z" fill="#781A36"/>
</g>
<defs>
<linearGradient id="paint0_linear_25_1183" x1="66.5758" y1="52.1067" x2="60.0429" y2="58.8909" gradientUnits="userSpaceOnUse">
<stop offset="0.1066" stop-color="#F47769"/>
<stop offset="1" stop-color="#FDB07B"/>
</linearGradient>
<clipPath id="clip0_25_1183">
<rect width="108.21" height="108.21" fill="white"/>
</clipPath>
</defs>
</svg>
