<svg width="109" height="109" viewBox="0 0 109 109" fill="none" xmlns="http://www.w3.org/2000/svg">
<g clip-path="url(#clip0_25_1410)">
<path d="M54.11 108.22C83.9941 108.22 108.22 83.9941 108.22 54.11C108.22 24.2259 83.9941 0 54.11 0C24.2259 0 0 24.2259 0 54.11C0 83.9941 24.2259 108.22 54.11 108.22Z" fill="#FFC196"/>
<path d="M71.7658 95.7403C92.3993 87.5171 101.668 62.1362 92.4671 39.0504C83.2666 15.9646 59.0813 3.91612 38.4478 12.1393C17.8142 20.3625 8.54589 45.7435 17.7464 68.8293C26.9469 91.9151 51.1322 103.964 71.7658 95.7403Z" fill="#F47769"/>
<path d="M38.35 27.39C11.93 46.84 37.81 104.83 71.89 86.22C107.81 66.59 70.61 3.63999 38.35 27.39Z" fill="#8A1E59"/>
<path d="M39.29 28.82C14.19 47.3 38.77 102.38 71.14 84.7C105.27 66.06 69.93 6.26 39.29 28.82Z" fill="#571338"/>
<path opacity="0.7" d="M68.5 79.32C48.54 90.22 32.23 67.1 34.4 48.74C35.09 42.89 37.67 37.52 42.6 33.89C53.64 25.76 65.42 30.77 72.71 40.19C81.89 52.05 83.96 70.88 68.5 79.32Z" fill="#781A36"/>
<path d="M43.47 35.22C24.3 49.33 43.08 91.42 67.81 77.91C93.88 63.67 66.89 17.99 43.47 35.22Z" fill="#781A36"/>
<path opacity="0.3" d="M46.07 39.19C30.58 50.6 45.76 84.62 65.74 73.7C86.82 62.19 65 25.26 46.07 39.19Z" fill="#781A36"/>
<path d="M67.97 66.49C67.12 68.94 65.07 71.32 65.07 71.32C65.07 71.32 66.52 71.95 66.14 72.7C65.76 73.45 64.13 72.7 63.88 71.89C63.67 71.22 65.31 68.76 65.31 67.46V67.45C65.31 67.16 65.22 66.93 65.01 66.79C63.88 66.04 64.2 67.61 61.74 68.73C59.29 69.87 57.97 68.54 57.53 70.3C57.13 71.9 58.94 73.31 59.93 73.99C60.3 74.25 60.45 74.72 60.28 75.15C59.97 75.93 59.45 77 58.92 76.71C58.1 76.27 59.17 74.57 59.17 74.57C59.17 74.57 55.15 72.49 53.64 70.05C52.94 68.9 53.37 68.02 54.05 67.41C54.82 66.71 55.92 66.35 56.02 66.35C56.21 66.35 52.07 64.02 52 58.87C52 58.87 58.28 55.16 60.04 55.35C61.8 55.54 64.31 57.86 64.13 60.38C63.96 62.67 63.27 63.55 63.14 63.69C63.43 63.43 66.82 60.51 68.08 63.34C68.49 64.26 68.35 65.38 67.97 66.49Z" fill="#FDB07B"/>
<path opacity="0.5" d="M67.97 66.49C68.43 64.44 66.8 64.8 65.3 67.45C65.3 67.16 65.21 66.93 65 66.79C63.87 66.04 64.19 67.61 61.73 68.73C59.28 69.87 57.96 68.54 57.52 70.3C58.41 66.62 56.05 66.41 54.04 67.41C54.81 66.71 55.91 66.35 56.01 66.35C56.2 66.35 52.06 64.02 51.99 58.87C51.99 58.87 58.27 55.16 60.03 55.35C61.79 55.54 64.3 57.86 64.12 60.38C63.95 62.67 63.26 63.55 63.13 63.69C63.42 63.43 66.81 60.51 68.07 63.34C68.49 64.26 68.35 65.38 67.97 66.49Z" fill="#E68A65"/>
<path d="M60.54 64.53C58.79 64.76 59.47 66.73 61.55 66.04C63.62 65.35 67.39 67.3 68.9 60.01C70.41 52.72 83.01 41.71 86.03 51.93C85.53 42.88 77.28 32.83 75.64 31.83C77.4 37.86 73.76 43.97 71.62 46.24C69.48 48.51 66.89 51.35 66.51 57.25C66.13 63.15 64.37 64.03 60.54 64.53Z" fill="url(#paint0_linear_25_1410)"/>
<path d="M51.8099 58.48C50.5499 60.8 49.9899 65.96 52.7499 66.21C55.5099 66.46 58.3399 62.32 58.3399 62.32C58.3399 62.32 58.2099 63.51 59.2199 63.45C60.2299 63.39 59.5299 60.37 58.4699 60.5C57.3999 60.63 56.3999 63.33 54.4499 63.33C52.4999 63.33 54.0699 58.81 54.0699 58.81L51.8099 58.48Z" fill="#FDB07B"/>
<path d="M59.85 55.99C63.24 56.87 63.87 58.88 62.61 59.45C61.35 60.02 59.97 60.33 60.16 61.21C60.35 62.09 60.85 63.09 61.92 62.47C62.99 61.84 61.79 60.84 61.79 60.84C61.79 60.84 64.18 62.22 65.43 60.27C66.68 58.32 64.55 54.49 60.72 54.55C56.9 54.61 59.85 55.99 59.85 55.99Z" fill="#FDB07B"/>
<path d="M50.93 59.47C55.62 60.22 59.77 58.46 61.65 54.11C63.24 50.42 60.9 41.04 57.21 37.44C51.24 31.6 38.77 35.08 41.63 47.32C43.14 53.77 47.6 58.93 50.93 59.47Z" fill="#FDB07B"/>
<path d="M61.57 48.24C64.17 46.73 63.75 50.92 61.74 50.84C61.06 49 61.57 48.24 61.57 48.24Z" fill="#FDB07B"/>
<path d="M48.42 57.54C47.41 59.47 43.23 58.46 46.58 55.78C48.33 56.12 48.42 57.54 48.42 57.54Z" fill="#FDB07B"/>
<path d="M48.67 55.11C48.67 55.11 51.6 56.62 51.94 53.52C51.35 54.69 48.67 55.11 48.67 55.11Z" fill="#E68A65"/>
<path d="M55.79 51.34C57.34 51.34 58.43 50.25 58.72 49.58C58.68 51.47 57.42 52.39 55.79 51.34Z" fill="#E68A65"/>
<path d="M47.5 51.38C47.84 51.71 49.13 50.29 48.84 49.87C48.54 49.46 47.24 51.13 47.5 51.38Z" fill="#E68A65"/>
<path d="M54.62 47.24C54.54 47.78 56.13 47.74 56.3 47.41C56.47 47.08 54.7 46.65 54.62 47.24Z" fill="#E68A65"/>
<path d="M54.74 55.66C55.04 56.07 56.5 54.91 56.25 54.61C56 54.32 54.28 55.03 54.74 55.66Z" fill="#E68A65"/>
<path opacity="0.7" d="M70.53 58.13C58.75 74.96 32.59 70.94 34.41 48.75C35.1 42.9 37.68 37.53 42.61 33.9C53.65 25.77 65.43 30.78 72.72 40.2C75.11 44.73 75.68 50.77 70.53 58.13Z" fill="#781A36"/>
<path opacity="0.8" d="M42.39 37.27C32.48 48.63 70.49 51.53 69.78 42.55C69.02 33 52.69 25.46 42.39 37.27Z" fill="#781A36"/>
</g>
<defs>
<linearGradient id="paint0_linear_25_1410" x1="75.2578" y1="46.2342" x2="56.8315" y2="55.7824" gradientUnits="userSpaceOnUse">
<stop offset="0.1066" stop-color="#F47769"/>
<stop offset="1" stop-color="#FDB07B"/>
</linearGradient>
<clipPath id="clip0_25_1410">
<rect width="108.21" height="108.21" fill="white"/>
</clipPath>
</defs>
</svg>
