<svg width="109" height="109" viewBox="0 0 109 109" fill="none" xmlns="http://www.w3.org/2000/svg">
<g clip-path="url(#clip0_25_1600)">
<path d="M54.11 108.22C83.9941 108.22 108.22 83.9941 108.22 54.11C108.22 24.2259 83.9941 0 54.11 0C24.2259 0 0 24.2259 0 54.11C0 83.9941 24.2259 108.22 54.11 108.22Z" fill="#FFC196"/>
<path d="M71.1398 95.6805C93.0551 86.7051 103.077 60.5196 93.5234 37.1937C83.9702 13.8679 58.46 2.23454 36.5447 11.21C14.6294 20.1855 4.60791 46.3709 14.1611 69.6968C23.7143 93.0227 49.2245 104.656 71.1398 95.6805Z" fill="#F47769"/>
<path d="M68.9757 90.3965C88.1516 82.543 96.9213 59.6328 88.5633 39.2252C80.2053 18.8176 57.8847 8.64051 38.7088 16.494C19.5329 24.3476 10.7633 47.2578 19.1213 67.6653C27.4792 88.0729 49.7999 98.25 68.9757 90.3965Z" fill="#8A1E59"/>
<path d="M68.3463 88.861C86.7249 81.334 95.1299 59.3763 87.1194 39.8171C79.1089 20.2579 57.7163 10.5039 39.3377 18.0309C20.9591 25.5579 12.5541 47.5156 20.5646 67.0748C28.5752 86.634 49.9678 96.388 68.3463 88.861Z" fill="#571338"/>
<path opacity="0.5" d="M65.7346 82.5077C80.8116 76.3345 87.7072 58.3207 81.1364 42.2726C74.5657 26.2246 57.0167 18.2194 41.9397 24.3926C26.8627 30.5658 19.9671 48.5797 26.5378 64.6277C33.1086 80.6758 50.6576 88.6809 65.7346 82.5077Z" fill="#571338"/>
<path d="M79.42 58.6C79.41 58.84 79.4001 59.07 79.3701 59.29C78.9401 63.21 75.83 64.87 71.67 63.54C71.65 63.53 71.6301 63.52 71.6101 63.52C71.4401 63.46 71.2801 63.42 71.1201 63.38C69.4001 62.91 68.0101 63.08 66.9101 63.56C66.7501 63.63 66.6 63.7 66.46 63.77C64.19 64.98 63.3101 67.42 63.3101 67.42L60.55 66.29C60.55 66.29 60.95 64.15 62.34 62.31C62.49 62.11 62.65 61.91 62.82 61.73C63.15 61.38 63.52 61.05 63.94 60.76C65.68 59.56 67.82 60.16 69.77 60.51C70.02 60.56 70.26 60.6 70.5 60.63C72.21 60.85 73.71 60.65 74.56 58.49C74.63 58.34 74.68 58.17 74.74 58C74.76 57.94 74.7801 57.88 74.7901 57.82C75.4201 55.76 75.6901 54.14 75.5501 52.75C75.5401 52.57 75.5101 52.4 75.4801 52.24C75.2801 51.13 74.8 50.16 74 49.23C73.88 49.09 73.76 48.95 73.63 48.82C72.99 48.16 72.1901 47.5 71.2201 46.81C70.5301 46.32 69.89 45.95 69.31 45.67C69.15 45.59 68.99 45.52 68.84 45.46C67.08 44.78 65.8501 45.04 65.1501 45.63C65.0101 45.75 64.8901 45.88 64.7901 46.02C64.5801 46.3 64.4701 46.62 64.4401 46.92C64.3801 47.63 64.55 48.29 65 48.77C65.13 48.91 65.28 49.03 65.45 49.13C65.97 49.45 66.71 49.61 67.7 49.56C70.21 49.43 68.71 53.96 68.71 53.96C67.27 54.38 65.6801 54.25 64.3601 53.64C64.0701 53.51 63.79 53.35 63.53 53.18C61.59 51.87 60.59 49.38 62.32 46.16C62.43 45.96 62.55 45.75 62.68 45.54C62.71 45.5 62.7401 45.45 62.7701 45.41V45.4C64.4401 42.87 67.22 42.4 70.06 43.57C70.26 43.65 70.4501 43.74 70.6501 43.84C72.5201 44.75 74.38 46.35 75.92 48.54C76.05 48.72 76.1801 48.91 76.3001 49.1C76.9101 50.02 77.4601 51.03 77.93 52.13C77.9601 52.2 77.99 52.27 78.02 52.33C78.08 52.46 78.1301 52.59 78.18 52.71C79.08 55 79.47 56.97 79.42 58.6Z" fill="url(#paint0_linear_25_1600)"/>
<path d="M70.77 89.61C73.31 89.41 75.57 92.68 75.57 92.68C75.57 92.68 73.62 88.69 74.91 87.29C75 86.39 69.93 87.17 70.77 89.61Z" fill="#8A1E59"/>
<path d="M66.28 97.32C69.47 96.88 71.92 100.78 74.69 99.27C77.45 97.76 75.96 93.32 75.96 93.32C75.96 93.32 78.34 97.7 81.29 96.13C84.24 94.56 81.19 90.51 82.34 88.8C80.85 87.47 75.58 92.68 75.58 92.68L66.28 97.32Z" fill="#F47769"/>
<path opacity="0.4" d="M52.1301 19.26C60.5601 21.27 64.7001 27.43 65.5801 34.08C66.4601 40.74 66.7101 46.52 72.1101 49.03C77.5101 51.54 87.1901 60.09 83.2901 70.39C88.4401 59.71 86.6801 53.81 82.2801 48.66C77.8801 43.51 73.1101 40.74 70.0901 33.33C67.0901 25.92 62.4201 19.89 52.1301 19.26Z" fill="#571338"/>
<path opacity="0.4" d="M23.1099 40.17C19.3999 51.31 22.1699 76.47 40.2399 86.02C34.5999 80.48 33.8399 74.47 34.4699 68.52C35.0999 62.57 32.9499 58.53 28.3399 54.24C23.2799 49.54 23.1099 40.17 23.1099 40.17Z" fill="#571338"/>
<path opacity="0.4" d="M23.4102 52.49C24.7202 57.73 29.3602 58.51 31.3402 62.99C33.3302 67.46 29.6902 71.2 32.1502 75.41C28.1602 72.01 30.3202 68.21 29.4502 65.42C28.0902 61.04 24.9102 61.43 23.4102 52.49Z" fill="#571338"/>
<path opacity="0.4" d="M67.3401 36.48C68.3501 44.27 71.7401 45.27 76.5101 48.29C81.2801 51.31 83.5501 54.82 84.3001 57.84C83.8001 49.93 78.9001 47.16 75.8801 45.53C72.8701 43.89 69.6001 42.38 67.3401 36.48Z" fill="#571338"/>
<path d="M85.43 46.57C85.43 46.57 81.45 42.69 77.28 44.21C77.12 44.27 76.97 44.33 76.82 44.4C76.34 44.62 75.86 44.92 75.38 45.31C72.57 47.6 71.86 52.6 68.72 53.98C65.58 55.36 63.19 50.59 67.71 49.58C70.09 49.05 72.72 46.09 74.25 42.11C74.31 41.95 74.37 41.8 74.43 41.64C75.67 38.15 76.06 33.97 74.75 29.98C74.75 29.98 79.09 30.19 82.54 36.26C86.69 43.55 85.43 46.57 85.43 46.57Z" fill="url(#paint1_linear_25_1600)"/>
<path d="M70.5802 80.19C70.3802 80.15 70.1802 80.08 69.9702 79.99C67.7402 79.05 65.1202 75.88 65.1202 75.88C65.1202 75.88 63.6602 83.95 58.9302 85.34C54.2102 86.74 49.3902 84.33 45.8702 78.15C42.3502 71.97 42.8902 62.95 41.7702 60.31C40.1702 56.51 35.4602 55.17 33.0302 49.25C30.6002 43.33 32.6002 32.4 42.4702 30.64C44.2202 30.33 45.7902 30.22 47.1902 30.3C47.2202 30.3 47.2402 30.3 47.2602 30.3C47.2702 30.3 47.2902 30.3 47.3002 30.3C53.7202 30.66 56.5902 34.72 57.4202 39.23C58.4402 44.76 57.1402 46.18 56.9502 48.79C56.7602 51.39 58.4702 51.75 58.7802 52.56C58.9902 53.1 58.1502 54.85 57.0202 56.31C56.8702 56.49 56.7202 56.67 56.5702 56.84C56.1402 57.32 55.6802 57.74 55.2302 58.03C54.7802 58.31 54.1702 58.53 53.5002 58.69C53.5002 58.69 53.5002 58.69 53.4902 58.69C51.4102 59.18 48.8002 59.15 48.8002 59.15C48.8002 59.15 55.5002 62.12 59.1802 66.92C60.5502 63.89 64.6202 62.1 67.6302 66.21C70.6302 70.31 70.8302 78.21 70.8302 78.21C70.8302 78.21 73.0702 76.31 73.8302 77.75C74.5802 79.18 72.9202 80.72 70.5802 80.19Z" fill="#FDB07B"/>
<path d="M45.0202 51.22C44.6002 50.98 44.2002 50.73 43.7802 50.66C43.3702 50.58 43.0002 50.66 42.7702 50.89C42.5202 51.1 42.4002 51.45 42.3502 51.81C42.3002 52.17 42.3502 52.56 42.4802 52.92C42.5202 53.11 42.6302 53.28 42.7002 53.46C42.8102 53.62 42.9102 53.8 43.0302 53.95L43.2102 54.18L43.4002 54.36C43.5302 54.47 43.6502 54.57 43.7802 54.62C43.9102 54.67 44.0402 54.69 44.2002 54.69C44.3602 54.66 44.5502 54.62 44.7302 54.53C45.1102 54.36 45.4902 54.09 45.8902 53.78C45.6802 54.21 45.4002 54.61 45.0202 54.92C44.8302 55.08 44.6102 55.2 44.3702 55.3C44.2502 55.33 44.1202 55.37 43.9802 55.38C43.8502 55.37 43.7102 55.39 43.5802 55.34C43.0602 55.2 42.6502 54.85 42.3602 54.46C42.1902 54.28 42.0902 54.04 41.9602 53.84C41.8702 53.61 41.7402 53.39 41.7002 53.15C41.5502 52.68 41.5302 52.16 41.6302 51.67C41.7302 51.18 42.0002 50.7 42.4402 50.42C42.8802 50.13 43.4502 50.13 43.8902 50.35C44.3602 50.53 44.7002 50.88 45.0202 51.22Z" fill="#E68A65"/>
<path d="M51.9001 50.02C51.9001 50.02 52.9601 51.17 54.4401 51.02C55.2301 50.94 55.4901 49.05 55.4901 49.05C55.4901 49.05 54.8101 50.22 54.2101 50.32C53.6101 50.42 51.9001 50.02 51.9001 50.02Z" fill="#E68A65"/>
<path d="M51.6702 46.32C51.9602 46.77 54.1902 45.68 53.9202 44.91C53.6602 44.14 51.0402 45.36 51.6702 46.32Z" fill="#E68A65"/>
<path d="M57.0102 56.3C56.8602 56.48 56.7102 56.66 56.5602 56.83C56.0702 56.58 55.4902 56.15 54.9502 55.42C55.4602 55.78 56.3502 56.1 57.0102 56.3Z" fill="#E68A65"/>
<path opacity="0.5" d="M69.9702 79.99C67.7402 79.05 65.1202 75.88 65.1202 75.88C65.1202 75.88 63.6602 83.95 58.9302 85.34C54.2102 86.74 49.3902 84.33 45.8702 78.15C42.3502 71.97 42.8902 62.95 41.7702 60.31C40.1702 56.51 35.4602 55.17 33.0302 49.25C30.6002 43.33 32.6002 32.4 42.4702 30.64C44.2202 30.33 45.7902 30.22 47.1902 30.3C45.9302 30.28 40.1802 31.26 37.2002 34.87C33.6202 39.19 34.0202 46.21 36.1902 50.67C38.3602 55.13 42.8602 58.82 53.5002 58.69C51.4202 59.18 48.8102 59.15 48.8102 59.15C48.8102 59.15 55.5102 62.12 59.1902 66.92C56.9302 71.62 56.7502 78.78 56.7502 81.06C55.6802 73.35 46.7802 67.81 45.2102 68.08C43.6402 68.35 46.2902 79.73 51.7202 83.17C57.1502 86.61 62.8002 79.93 63.3402 77.93C63.8802 75.93 62.6502 71.66 62.6502 71.66C62.6502 71.66 67.5602 78.41 69.6302 79.68C69.7702 79.76 69.8902 79.87 69.9702 79.99Z" fill="#E68A65"/>
<path d="M46.0301 65.58C49.3101 69.75 52.2001 72.31 55.4801 69.24C58.7601 66.17 57.7501 61.87 58.3001 61.08C58.8501 60.28 61.1501 60.45 60.8801 58.36C60.6101 56.28 56.1101 57.48 56.1001 59.08C56.0901 60.68 55.2801 63.96 53.2101 64.85C51.1301 65.75 49.4701 64.55 47.9501 63.05C46.4201 61.54 44.1901 63.25 46.0301 65.58Z" fill="url(#paint2_radial_25_1600)"/>
<path d="M78.0201 56.56C78.4001 60.2 76.7601 62.15 73.0601 62.34C77.6401 63.03 79.2701 61.64 78.0201 56.56Z" fill="url(#paint3_linear_25_1600)"/>
<path d="M62.57 48.33C62.44 52.16 66.15 53.67 68.66 51.47C64.7 51.84 62.88 49.33 62.57 48.33Z" fill="url(#paint4_linear_25_1600)"/>
</g>
<defs>
<linearGradient id="paint0_linear_25_1600" x1="66.6523" y1="61.8202" x2="64.3912" y2="66.468" gradientUnits="userSpaceOnUse">
<stop stop-color="#F07160"/>
<stop offset="1" stop-color="#DB5746"/>
</linearGradient>
<linearGradient id="paint1_linear_25_1600" x1="67.037" y1="45.8692" x2="80.5589" y2="38.0044" gradientUnits="userSpaceOnUse">
<stop offset="0.2348" stop-color="#F07160"/>
<stop offset="0.8915" stop-color="#571338"/>
</linearGradient>
<radialGradient id="paint2_radial_25_1600" cx="0" cy="0" r="1" gradientUnits="userSpaceOnUse" gradientTransform="translate(45.7686 63.0165) rotate(-5.82576) scale(7.33054)">
<stop offset="0.125" stop-color="#F19D70"/>
<stop offset="1" stop-color="#FDB07B"/>
</radialGradient>
<linearGradient id="paint3_linear_25_1600" x1="73.056" y1="59.5285" x2="78.4276" y2="59.5285" gradientUnits="userSpaceOnUse">
<stop stop-color="#F07160"/>
<stop offset="1" stop-color="#DB5746"/>
</linearGradient>
<linearGradient id="paint4_linear_25_1600" x1="62.5624" y1="50.4063" x2="68.6587" y2="50.4063" gradientUnits="userSpaceOnUse">
<stop stop-color="#F07160"/>
<stop offset="1" stop-color="#DB5746"/>
</linearGradient>
<clipPath id="clip0_25_1600">
<rect width="108.21" height="108.21" fill="white"/>
</clipPath>
</defs>
</svg>
