<svg width="109" height="109" viewBox="0 0 109 109" fill="none" xmlns="http://www.w3.org/2000/svg">
<g clip-path="url(#clip0_25_1792)">
<path d="M54.11 108.22C83.9941 108.22 108.22 83.9941 108.22 54.11C108.22 24.2259 83.9941 0 54.11 0C24.2259 0 0 24.2259 0 54.11C0 83.9941 24.2259 108.22 54.11 108.22Z" fill="#FFC196"/>
<path d="M62.0827 98.1187C85.2195 93.8485 100.285 70.3891 95.7318 45.7208C91.1789 21.0524 68.732 4.51643 45.5952 8.78664C22.4585 13.0569 7.39324 36.5162 11.9461 61.1846C16.499 85.8529 38.9459 102.389 62.0827 98.1187Z" fill="#F47769"/>
<path d="M61.0605 92.5283C80.1619 89.0009 92.4156 68.6446 88.4299 47.0611C84.4442 25.4777 65.7284 10.8403 46.6269 14.3677C27.5255 17.895 15.2718 38.2514 19.2576 59.8349C23.2433 81.4183 41.9591 96.0557 61.0605 92.5283Z" fill="#8A1E59"/>
<path d="M60.7589 90.8961C79.0674 87.5151 90.8132 68.0083 86.994 47.3265C83.1748 26.6446 65.2367 12.6194 46.9282 16.0003C28.6198 19.3813 16.8739 38.888 20.6932 59.5699C24.5124 80.2518 42.4504 94.277 60.7589 90.8961Z" fill="#571338"/>
<path opacity="0.5" d="M59.5061 84.1104C74.4907 81.3433 84.1031 65.372 80.9759 48.4376C77.8487 31.5033 63.1662 20.0184 48.1816 22.7856C33.197 25.5527 23.5847 41.5239 26.7118 58.4583C29.839 75.3927 44.5215 86.8775 59.5061 84.1104Z" fill="#571338"/>
<path d="M69.6301 89.61C72.0001 89.41 74.1101 92.68 74.1101 92.68C74.1101 92.68 72.2901 88.69 73.5001 87.29C73.5801 86.39 68.8401 87.17 69.6301 89.61Z" fill="#8A1E59"/>
<path d="M65.45 97.32C68.43 96.88 70.71 100.78 73.29 99.27C75.87 97.76 74.47 93.32 74.47 93.32C74.47 93.32 76.69 97.7 79.44 96.13C82.19 94.56 79.34 90.51 80.42 88.8C79.03 87.47 74.11 92.68 74.11 92.68L65.45 97.32Z" fill="#F47769"/>
<path opacity="0.4" d="M38.3201 25.34C43.5201 19.94 55.8501 16.42 66.4601 22.95C63.4301 21.57 59.1001 21.95 57.4801 24.83C55.8601 27.72 53.4801 25.33 52.2801 23.45C51.0901 21.57 49.2401 23.94 47.1901 25.33C43.5101 27.85 43.4101 22.82 38.3201 25.34Z" fill="#571338"/>
<path d="M67.34 71.86C65.5 76.63 61.65 80.24 53.43 82.08C54.11 81.93 55.45 82.32 56.77 82.96C59.96 84.51 63 87.53 56.12 87.94C49.1 88.36 46.63 85.43 47.62 82.47C48 81.33 48.9 80.18 50.25 79.23C45.92 79.46 44.9 71.89 44.74 70.49C44.82 71.44 44.9 75.21 41.54 75.8C39.11 76.22 35.1 72.1 32.41 68.52C30.83 66.41 29.71 64.5 29.65 63.82C29.48 61.98 33 60.55 34.01 61.64C35.02 62.73 34.51 64.74 32.5 64.32C33.28 64.5 34.39 64.95 35.5 65.47C37.6 66.46 39.71 67.67 39.71 67.67C39.71 67.67 39.29 65.24 40.05 62.81C40.8 60.38 54.12 54.44 54.12 54.44C54.12 54.44 56.46 55.27 60.23 56.87C63.99 58.46 69.18 67.09 67.34 71.86Z" fill="#FDB07B"/>
<path d="M74.29 43.8C75.97 44.47 72.45 48.57 68.01 45.64C63.57 42.71 72.2 34.33 68.76 30.82C65.33 27.3 66.33 34 64.49 38.02C62.9 41.49 60.47 47.65 69.26 49.33C78.05 51.01 81.15 45.14 77.72 42.13C74.29 42.21 74.29 43.8 74.29 43.8Z" fill="url(#paint0_linear_25_1792)"/>
<path opacity="0.5" d="M60.2199 56.87C56.4499 55.28 54.1099 54.44 54.1099 54.44C54.1099 54.44 40.7899 60.38 40.0399 62.81C39.2899 65.24 39.6999 67.67 39.6999 67.67C39.6999 67.67 37.5899 66.45 35.4899 65.47C38.2399 67.29 36.7899 71.56 32.4099 68.52C35.0999 72.09 39.1099 76.22 41.5399 75.8C44.8999 75.21 44.8199 71.45 44.7399 70.49C44.8999 71.89 45.9199 79.46 50.2499 79.23C48.8999 80.18 47.9999 81.33 47.6199 82.47C49.7099 81.06 53.6499 78.81 53.4299 82.08C61.6399 80.24 65.4899 76.63 67.3399 71.86C69.1799 67.09 63.9899 58.46 60.2199 56.87ZM51.8899 76.85C47.1199 77.85 42.8799 66.27 46.9899 64.16C51.6399 61.77 56.6599 75.84 51.8899 76.85Z" fill="#E68A65"/>
<path d="M58.1301 76.64C60.1701 77.32 60.1401 74.29 69.5201 74.13C78.9001 73.96 81.5001 67.93 80.9101 61.32C80.3201 54.7 75.5501 51.35 71.8601 49.68C68.1701 48 71.1901 42.73 74.2901 43.82C77.3901 44.91 79.4801 44.41 77.7201 42.14C75.9601 39.88 68.1701 39.96 67.3301 46.83C66.4901 53.7 73.2801 53.7 76.3801 58.14C79.4801 62.58 75.8801 70.54 71.1001 70.87C66.3201 71.2 59.2101 72.8 57.9501 73.97C56.7001 75.13 57.1201 76.3 58.1301 76.64Z" fill="#F47769"/>
<path d="M68.9599 77.18C67.8199 79 66.4999 80.43 65.3299 80.74C61.5599 81.75 61.7299 79.73 61.7299 79.73C62.0099 77.11 62.4299 74.85 63.0099 72.98C64.3699 68.65 66.5799 66.45 69.8499 66.75C73.0899 67.04 71.4999 73.12 68.9599 77.18Z" fill="#FDB07B"/>
<path d="M68.9599 77.18C67.8199 79 66.4999 80.43 65.3299 80.74C61.5599 81.75 61.7299 79.73 61.7299 79.73C62.0099 77.11 62.4299 74.85 63.0099 72.98C62.7399 78.43 65.5899 80.34 68.9599 77.18Z" fill="#F19D70"/>
<path d="M56.7899 57.88C60.4799 58.38 63.6599 61.06 61.4799 62.57C59.2999 64.08 55.0299 63.91 54.0299 65.25C53.0199 66.59 53.2799 69.35 54.6999 69.61C56.1199 69.86 56.2899 67.26 56.2899 67.26C56.2899 67.26 63.9099 69.19 67.4299 65.42C70.9499 61.65 64.5799 54.7 60.5599 53.95C56.5399 53.2 55.9499 53.11 54.4499 54.37C52.9299 55.61 56.7899 57.88 56.7899 57.88Z" fill="url(#paint1_radial_25_1792)"/>
<path opacity="0.4" d="M33.29 76.72C35.8 82.62 42.34 85.26 44.97 85.77C42.96 83.63 44.47 80.74 41.83 78.86C38.91 76.76 38.07 80.99 33.29 76.72Z" fill="#571338"/>
<path opacity="0.4" d="M74.12 82.63C78.01 80.87 78.8899 76.98 78.8899 73.96C78.1399 75.22 76.6299 75.84 74.4899 76.47C72.3599 77.1 75.88 78.98 74.12 82.63Z" fill="#571338"/>
<path d="M56.1201 87.94C60.4701 88.03 67.0001 82.75 67.0001 82.75C67.0001 82.75 67.8401 85.43 69.8501 84.43C71.8601 83.42 68.0501 80.4 66.6701 79.99C62.7301 78.82 56.2001 79.07 53.4401 82.08C50.6701 85.1 56.1201 87.94 56.1201 87.94Z" fill="#FDB07B"/>
<path d="M54.9199 42.58C54.7199 42.08 54.51 41.57 54.27 41.04C49.37 29.98 37.3099 26.09 29.65 32.5C21.99 38.91 23.8699 49.21 28.9 55.37C29.2899 55.85 29.67 56.31 30.04 56.76C27.17 59.98 30.58 62.54 33.22 60.34C37.03 64.13 40.6099 65.22 47.3699 61.15C54.7399 56.71 57.8899 53.56 56.2999 46.75C59.45 45.9 58.5999 40.42 54.9199 42.58Z" fill="#F19D70"/>
<path d="M26.63 39.78C24.55 47.05 32.16 59.38 36.05 61.26C39.94 63.14 45.85 62.39 49.74 59C53.63 55.61 56.02 53.22 55.14 48.32C54.26 43.42 47.23 32.11 40.06 31.61C32.92 31.12 27.89 35.39 26.63 39.78Z" fill="#FDB07B"/>
<path d="M35.3699 53.35C35.9399 54.25 38.0099 51.21 37.2499 50.65C36.4999 50.09 34.9299 52.66 35.3699 53.35Z" fill="#E68A65"/>
<path d="M36.8101 56.93C39.3201 58.37 41.5201 56.49 41.1401 54.42C40.5801 56.18 38.0001 57.18 36.8101 56.93Z" fill="#E68A65"/>
<path d="M45.9199 51.97C47.1799 52.1 49.2499 51.28 49.6299 49.58C50.2299 51.84 48.2299 53.31 45.9199 51.97Z" fill="#E68A65"/>
<path d="M44.7299 57.88C45.2299 58.53 47.1799 57.31 46.9299 56.5C46.6699 55.68 44.0999 57.06 44.7299 57.88Z" fill="#E68A65"/>
<path d="M43.91 46.63C43.85 47.51 47.05 46.88 47.11 46.32C47.18 45.75 43.97 45.75 43.91 46.63Z" fill="#E68A65"/>
<path opacity="0.6" d="M75.1299 41.92C78.3299 43.56 76.2199 47.25 71.6499 47.86C77.6799 48.71 80.9499 43 75.1299 41.92Z" fill="#F47769"/>
</g>
<defs>
<linearGradient id="paint0_linear_25_1792" x1="70.9978" y1="45.0841" x2="71.2492" y2="31.5086" gradientUnits="userSpaceOnUse">
<stop offset="0.1873" stop-color="#F47769"/>
<stop offset="0.3056" stop-color="#DF6B61"/>
<stop offset="0.5495" stop-color="#AA4C4D"/>
<stop offset="0.8948" stop-color="#551A2C"/>
<stop offset="1" stop-color="#3A0A22"/>
</linearGradient>
<radialGradient id="paint1_radial_25_1792" cx="0" cy="0" r="1" gradientUnits="userSpaceOnUse" gradientTransform="translate(55.4043 54.4831) scale(9.2697)">
<stop offset="0.125" stop-color="#F19D70"/>
<stop offset="1" stop-color="#FDB07B"/>
</radialGradient>
<clipPath id="clip0_25_1792">
<rect width="108.21" height="108.21" fill="white"/>
</clipPath>
</defs>
</svg>
