<svg width="109" height="109" viewBox="0 0 109 109" fill="none" xmlns="http://www.w3.org/2000/svg">
<g clip-path="url(#clip0_25_1994)">
<path d="M54.11 108.22C83.9941 108.22 108.22 83.9941 108.22 54.11C108.22 24.2259 83.9941 0 54.11 0C24.2259 0 0 24.2259 0 54.11C0 83.9941 24.2259 108.22 54.11 108.22Z" fill="#FFC196"/>
<path d="M91.1999 38.62C100.21 62.27 94.0999 87.16 75.7199 95.82C58.4999 103.93 34.6999 99.57 23.4599 80.49C9.38992 56.62 12.2699 27.09 31.2499 14.41C51.7599 0.699996 81.1899 12.36 91.1999 38.62Z" fill="#F47769"/>
<path d="M86.2599 41.09C94.6899 62.91 87.2699 86.07 71.1899 94.06C55.9799 101.62 36.7399 93.62 26.8099 75.29C16.0399 55.4 19.3199 29.44 35.9199 18.27C53.6299 6.35 77.0299 17.19 86.2599 41.09Z" fill="#8A1E59"/>
<path d="M84.8899 41.88C93.0199 62.75 85.9899 85 70.5699 92.7C55.9499 100.01 37.4399 92.3 27.9299 74.65C17.6499 55.56 20.8799 30.73 36.7799 20.1C53.6899 8.79 76.0199 19.11 84.8899 41.88Z" fill="#571338"/>
<path opacity="0.5" d="M79.2099 45.15C86.0399 62.09 80.5599 80.48 67.8899 86.97C55.7699 93.18 40.3799 86.72 32.6299 71.95C24.3499 56.2 27.2999 36.09 40.2899 27.64C53.9399 18.77 71.8799 26.97 79.2099 45.15Z" fill="#571338"/>
<path d="M66.9199 97.56C69.8299 97.18 71.9899 101.01 74.5299 99.58C77.0599 98.15 75.7699 93.81 75.7699 93.81C75.7699 93.81 77.8599 98.11 80.5699 96.62C83.2799 95.13 80.5599 91.14 81.6299 89.49C80.2999 88.17 75.4299 93.17 75.4299 93.17L66.9199 97.56Z" fill="#F47769"/>
<path d="M59.91 56.14C57.9 57 58.41 58.86 59.32 59.81C60.23 60.76 61.21 59.09 61.65 58.05C62.42 60.7 59.01 67.52 59.01 67.52L62.88 69.7C62.88 69.7 64.41 59.97 63.76 57.98C63.11 56.01 61.55 55.44 59.91 56.14Z" fill="#E68A65"/>
<path d="M67 85.36C66.96 85.51 66.91 85.66 66.87 85.82C66.8 86.05 66.72 86.28 66.64 86.5C64.16 93.51 53.82 92.87 45.46 88.04C37.1 83.21 33.68 72.8 36.27 62.49L45.64 63.64L49.05 64.06C49.05 64.06 49.28 64.1 49.68 64.18C49.78 64.2 49.89 64.23 50.01 64.25C51 64.47 52.65 64.85 54.51 65.42C55.59 65.75 56.73 66.13 57.86 66.58C58.53 66.85 59.2 67.14 59.84 67.45C61.32 68.17 62.66 69.01 63.64 69.98C63.85 70.18 64.05 70.41 64.25 70.65C65.68 72.36 66.94 74.93 67.42 77.96C67.46 78.22 67.5 78.48 67.53 78.74C67.77 80.81 67.65 83.05 67 85.36Z" fill="#F19D70"/>
<path opacity="0.4" d="M66.87 85.82C66.8 86.05 66.72 86.28 66.64 86.5C64.16 93.51 53.82 92.87 45.46 88.04C37.1 83.21 33.68 72.8 36.27 62.49L45.64 63.64L49.05 64.06C49.05 64.06 49.28 64.1 49.68 64.18C49.78 64.2 49.89 64.23 50.01 64.25C48.84 66.1 40.42 63.89 38.11 65.99C35.8 68.09 35.69 82.37 47.87 87.53C60.05 92.69 65.03 88.88 66.38 86.51C66.55 86.24 66.71 86.01 66.87 85.82Z" fill="#E68A65"/>
<path d="M69.4399 64.44C74.1099 61.08 76.9999 67.55 75.5599 72.38C74.1199 77.21 71.0299 81.47 71.0299 81.47L69.4399 64.44Z" fill="#E68A65"/>
<path d="M80.0101 37.7C80.0101 37.7 77.0201 37.32 76.2601 40.92C75.4901 44.52 69.6601 39.43 66.9601 42.07C64.2701 44.7 72.7501 47.67 75.4101 51.88C76.5101 53.62 76.7501 55.68 76.1801 57.73C75.4001 60.62 73.0201 63.47 69.2401 65.31C68.6101 65.62 68.0801 65.84 67.6401 66C65.3001 66.82 65.5001 65.63 66.0801 64.49C66.5001 63.66 67.1301 62.85 67.1301 62.85C70.5001 61 71.9301 58.76 71.3301 56.4C70.9401 54.83 69.6601 53.2 67.4501 51.59C61.9401 47.58 59.3101 43.79 61.3101 39.68C63.3101 35.57 69.3101 38.12 71.4701 37.63C73.6401 37.14 72.9401 30.69 72.9401 30.69L80.0101 37.7Z" fill="url(#paint0_linear_25_1994)"/>
<path d="M76.1901 57.71C75.4101 60.6 73.0301 63.45 69.2501 65.29C68.6201 65.6 68.0901 65.82 67.6501 65.98L66.0901 64.47C66.5101 63.64 67.1401 62.83 67.1401 62.83C70.5101 60.98 71.9401 58.74 71.3401 56.38C72.8701 56.78 74.7001 57.29 76.1901 57.71Z" fill="url(#paint1_linear_25_1994)"/>
<path d="M71.6801 71.21C71.9201 73.43 68.5501 77.04 65.4801 79.83C65.4701 79.84 65.4601 79.85 65.4501 79.86C62.9801 82.1 60.7201 83.79 60.7201 83.79C60.1601 81.43 59.7601 79.09 59.5201 76.87C59.4601 76.26 59.4101 75.65 59.3701 75.06V75.05C58.9501 68.2 60.3601 62.82 64.2901 62C69.7801 60.87 71.2301 67.19 71.6801 71.21Z" fill="#FDB07B"/>
<path d="M69.4899 88.51C68.6299 87.83 67.7799 86.73 67.0099 85.37C66.1999 83.92 65.4799 82.18 64.9399 80.32C64.3199 78.17 63.9499 75.88 63.9599 73.73C63.9599 73.27 63.9799 72.82 64.0199 72.38C64.0699 71.78 64.1499 71.21 64.2699 70.66C64.3799 70.14 64.5199 69.63 64.6999 69.16C66.9799 63.09 70.2399 66.25 71.6799 71.21C72.0399 72.8 72.2799 74.97 72.4399 77.17C72.4999 78 72.5499 78.82 72.5899 79.63C72.7699 83.15 72.7799 86.17 72.7799 86.17C72.7799 86.17 74.4799 85.04 75.3799 85.91C76.2899 86.77 71.3299 89.95 69.4899 88.51Z" fill="#FDB07B"/>
<path d="M40.75 67.34C38.2 69.22 40.21 75.48 44.06 78.6C47.91 81.72 55.69 83.75 57.3 75.83C58.62 69.32 57.65 65 57.65 65C57.65 65 60.12 66.52 59.99 64.59C59.86 62.66 55.9 60.31 55.12 62.56C54.35 64.81 54.13 71.5 52.32 73.39C49.88 75.94 45.63 71.22 44.76 69.1C42.93 64.66 41.63 66.69 40.75 67.34Z" fill="url(#paint2_linear_25_1994)"/>
<path opacity="0.5" d="M75.39 85.9C74.48 85.03 72.79 86.16 72.79 86.16C72.79 86.16 72.78 83.15 72.6 79.62C70.93 81.5 65 80.12 64.02 72.37C63.98 72.81 63.96 73.26 63.96 73.72C63.96 73.85 63.97 73.98 63.97 74.11C63.52 77.32 60.33 81.93 59.53 76.87C59.76 79.09 60.17 81.42 60.73 83.79C60.73 83.79 62.69 82.32 64.95 80.31C65.48 82.17 66.2 83.91 67.02 85.36C67.79 86.73 68.64 87.82 69.5 88.5C71.33 89.95 76.29 86.77 75.39 85.9Z" fill="#E68A65"/>
<path d="M65.92 86.98C67.69 88.09 69.85 84.01 69.77 82.83C69.69 81.65 67.5501 81.29 67.5501 81.29C67.5501 81.29 67.2201 80.13 66.4701 80.27C65.7201 80.4 64.95 86.37 65.92 86.98Z" fill="#FDB07B"/>
<path d="M56.81 57.2C55.75 60.54 52.68 63.87 49.88 64.65C45.72 65.81 37.13 64.28 34.01 60.63C29.56 64.8 24.15 56.94 29.49 56.45C23.65 53.11 19.79 40.53 27.7 32.25C32.83 26.89 40.06 27.61 45.4 30.9C48.29 32.69 50.64 35.22 51.79 37.95C55.07 45.71 53.32 46.22 56.66 52.58C57.36 53.93 57.33 55.56 56.81 57.2Z" fill="#FDB07B"/>
<path d="M50.02 54.91C50.61 55.91 52.79 54.41 52.34 53.32C51.9 52.22 49.53 54.07 50.02 54.91Z" fill="#E68A65"/>
<path d="M50.1001 59.64C50.7101 60.35 52.5501 59.03 52.5701 58.35C52.5801 57.67 50.1001 59.64 50.1001 59.64Z" fill="#E68A65"/>
<path d="M43 55.21C45.19 57.18 48.49 55.21 47.55 53.34C46.83 55.69 43 55.21 43 55.21Z" fill="#E68A65"/>
<path d="M51.45 51.2C53.23 52.64 54.3799 51.25 53.9199 49.03C53.4299 50.93 51.45 51.2 51.45 51.2Z" fill="#E68A65"/>
<path d="M44.11 50.52C44.5 50.94 46.87 48.9 46.52 48.42C46.18 47.94 43.17 49.52 44.11 50.52Z" fill="#E68A65"/>
<path d="M49.2901 47.04C49.2601 47.8 51.5101 47.64 51.5901 46.94C51.6701 46.25 49.3201 46.48 49.2901 47.04Z" fill="#E68A65"/>
<path opacity="0.5" d="M56.81 57.2C55.75 60.54 52.68 63.87 49.88 64.65C45.72 65.81 37.13 64.28 34.01 60.63C29.56 64.8 24.15 56.94 29.49 56.45C23.65 53.11 19.79 40.53 27.7 32.25C32.83 26.89 40.06 27.61 45.4 30.9C32.36 27.67 24.4 37.62 28.36 48.56C32.42 59.81 42.69 63.66 48 63.42C52.62 63.22 55.59 60.05 56.81 57.2Z" fill="#E68A65"/>
<path d="M72.6601 93.28C74.8001 93 75.9301 94.12 75.9301 94.12C75.9301 94.12 75.0201 92.34 76.0401 91.02C76.0701 90.19 71.8001 91.11 72.6601 93.28Z" fill="#8A1E59"/>
</g>
<defs>
<linearGradient id="paint0_linear_25_1994" x1="70.554" y1="47.6066" x2="79.7918" y2="38.2291" gradientUnits="userSpaceOnUse">
<stop stop-color="#F47769"/>
<stop offset="0.1688" stop-color="#DF6A63"/>
<stop offset="0.5165" stop-color="#AA4852"/>
<stop offset="1" stop-color="#571338"/>
</linearGradient>
<linearGradient id="paint1_linear_25_1994" x1="69.0379" y1="63.5476" x2="72.7151" y2="58.9873" gradientUnits="userSpaceOnUse">
<stop stop-color="#DB5746"/>
<stop offset="1" stop-color="#F47769"/>
</linearGradient>
<linearGradient id="paint2_linear_25_1994" x1="51.1511" y1="70.4308" x2="43.5057" y2="64.8756" gradientUnits="userSpaceOnUse">
<stop stop-color="#FDB07B"/>
<stop offset="0.7796" stop-color="#F19D70"/>
</linearGradient>
<clipPath id="clip0_25_1994">
<rect width="108.21" height="108.21" fill="white"/>
</clipPath>
</defs>
</svg>
