<svg width="109" height="109" viewBox="0 0 109 109" fill="none" xmlns="http://www.w3.org/2000/svg">
<g clip-path="url(#clip0_25_2194)">
<path d="M74.1563 104.37C101.916 93.3005 115.446 61.8238 104.377 34.0645C93.3077 6.30511 61.831 -7.22504 34.0716 3.84404C6.31225 14.9131 -7.2179 46.3898 3.85118 74.1492C14.9203 101.909 46.3969 115.439 74.1563 104.37Z" fill="#FFC196"/>
<path d="M16.0401 36.93C9.56007 81.52 55.7001 107.44 75.1401 97.33C94.1001 87.47 95.6601 44.45 78.5101 21.38C63.4801 1.14999 21.2201 1.24999 16.0401 36.93Z" fill="#F47769"/>
<path d="M19.64 38.56C13.79 78.79 55.43 102.19 72.97 93.06C90.08 84.16 91.49 45.34 76.01 24.52C62.45 6.27999 24.32 6.36999 19.64 38.56Z" fill="#8A1E59"/>
<path d="M20.96 39.15C15.34 77.8 55.33 100.26 72.18 91.5C88.62 82.95 89.97 45.67 75.1 25.68C62.07 8.14999 25.45 8.23999 20.96 39.15Z" fill="#571338"/>
<path opacity="0.6" d="M26.7201 41.77C22.1201 73.44 54.8901 91.85 68.7001 84.67C82.1701 77.66 83.2801 47.1 71.0901 30.72C60.4201 16.36 30.4101 16.43 26.7201 41.77Z" fill="#571338"/>
<path d="M66.8401 98.66C66.8401 98.66 69.8601 102.85 72.6201 102.09C75.3801 101.34 74.2801 97.73 74.2801 97.73C74.2801 97.73 75.8101 100.91 78.4901 99.49C81.1701 98.07 78.4901 94.13 78.4901 94.13L66.8401 98.66Z" fill="#F47769"/>
<path d="M59.24 52.41C58.75 54.4 57.08 56.49 53.1 58.63C45.48 62.74 40.79 62.06 36.27 57.54C29.57 61.73 30.41 54.86 32.16 53.77C26.88 50.84 23.12 45.81 23.2 37.94C23.26 31.4 26.27 27.45 30.1 25.14C31.52 24.29 33.05 23.66 34.59 23.21C45.98 19.86 54.44 26.56 55.86 32.84C57.28 39.12 57.03 44.06 58.46 47.33C59.14 48.88 59.69 50.59 59.24 52.41Z" fill="#FDB07B"/>
<path d="M59.24 52.41C58.75 54.39 57.08 56.49 53.1 58.63C45.48 62.74 40.79 62.06 36.27 57.54C29.57 61.73 30.41 54.86 32.16 53.77C26.88 50.84 23.12 45.81 23.2 37.94C23.26 31.4 26.27 27.45 30.1 25.14C22.32 34.23 33.75 54.21 45.22 54.7C53.45 55.04 57.9 54.6 59.24 52.41Z" fill="#F19D70"/>
<path d="M45.3101 45.81C45.7901 46.35 48.4501 44.05 48.0101 43.23C47.5701 42.42 44.8101 45.25 45.3101 45.81Z" fill="#E68A65"/>
<path d="M52.9099 41.1C52.7099 41.84 55.2999 41.73 55.4199 41.16C55.5499 40.6 53.0999 40.41 52.9099 41.1Z" fill="#E68A65"/>
<path d="M45.3701 49.96C48.3201 51.91 50.2701 49.9 50.2101 47.89C49.2701 49.9 45.3701 49.96 45.3701 49.96Z" fill="#E68A65"/>
<path d="M53.8501 46.82C55.2301 48.08 56.5501 47.89 56.5501 45.38C56.1801 47.07 53.8501 46.82 53.8501 46.82Z" fill="#E68A65"/>
<path d="M53.0399 50.27C53.5099 51.21 54.9899 50.4 54.7999 49.58C54.6099 48.77 52.6599 49.52 53.0399 50.27Z" fill="#E68A65"/>
<path d="M61.27 58.25C64.66 52.41 67.17 50.9 70.25 51.78C73.33 52.66 75.65 69.81 75.9 71.63C76.91 70.5 78.16 70.44 78.29 71.19C78.42 71.94 74.9 75.27 73.83 74.02C72.76 72.76 63.97 59.45 63.97 59.45L61.27 58.25Z" fill="#E68A65"/>
<path d="M55.7001 51.49C53.2801 53.91 54.0701 56.64 56.0801 57.27C58.0901 57.9 59.8501 56.08 59.8501 56.08L61.4801 59.35L62.6101 56.84C62.6101 56.84 62.3001 54.7 60.5401 52.69C58.7801 50.67 56.2601 50.92 55.7001 51.49Z" fill="#FDB07B"/>
<path d="M68.8401 70.96C68.2801 74.62 67.7001 77.94 67.6801 79.68C67.6201 84.89 67.9901 93.12 57.1301 91.49C46.2701 89.85 38.1601 81.63 34.1401 72.83L38.4101 61.27L40.6101 59.83C40.6101 59.83 52.2301 56.62 53.8701 57.19C55.5001 57.76 58.7001 62.28 58.7001 62.28C58.7001 62.28 61.9101 54.62 67.3701 54.81C71.0101 54.93 69.9601 63.63 68.8401 70.96Z" fill="#FDB07B"/>
<path d="M68.8401 70.96C68.2801 74.62 67.7001 77.94 67.6801 79.68C67.6201 84.89 67.9901 93.12 57.1301 91.49C46.2701 89.85 38.1601 81.63 34.1401 72.83L38.4101 61.27L40.6101 59.83C40.6101 59.83 52.2301 56.62 53.8701 57.19C55.5001 57.76 58.7001 62.28 58.7001 62.28C56.9401 67.43 56.0701 73.52 57.0101 78.3C53.6201 71.46 50.6001 68.75 50.1601 75.03C50.0301 76.87 49.6501 78.25 49.1601 79.28C48.1201 81.5 48.9201 84.14 51.0501 85.35C54.3601 87.24 58.6701 89.17 61.5301 88.41C66.7401 87.03 66.1801 81.81 64.6101 77.29C63.0401 72.77 63.4101 64.54 64.9801 62.78C65.6501 62.02 67.4101 65.9 68.8401 70.96Z" fill="#F19D70"/>
<path d="M70.6299 60.2C76.2199 56.49 77.3499 50.15 72.6399 46.88C67.9299 43.61 60.3899 44.81 61.3299 39.28C62.2699 33.75 67.8199 30.46 66.9999 25.13C66.1799 19.79 73.0699 24.48 73.1999 27.81C73.3299 31.14 67.3599 34.89 65.4699 37.65C63.5899 40.41 67.6099 42.11 73.6399 44.94C79.6699 47.77 80.7399 56 72.2599 62.91C70.8399 64.06 70.6299 60.2 70.6299 60.2Z" fill="url(#paint0_linear_25_2194)"/>
<path d="M69.0801 94.47C72.2001 94.56 74.2801 97.74 74.2801 97.74C74.2801 97.74 73.1701 93.81 74.2801 92.3C71.8601 91.04 69.0801 94.47 69.0801 94.47Z" fill="#8A1E59"/>
<path d="M67.3601 54.8C71.6901 54.8 73.6401 64.73 74.0201 70.76C74.4001 76.79 74.4001 82.57 74.4001 82.57C74.4001 82.57 75.7801 80.69 76.4701 81.06C77.1601 81.44 74.5201 87.22 72.4501 86.71C70.3801 86.21 67.1701 81.12 65.6001 76.03C64.0301 70.94 64.3401 63.53 65.1601 60.07C65.9801 56.62 67.3601 54.8 67.3601 54.8Z" fill="#FDB07B"/>
<path d="M48.4501 61.2C49.4101 69.28 49.6201 75.78 47.9801 79.31C47.9801 79.32 47.9701 79.33 47.9601 79.34C46.9101 81.55 45.1401 82.57 42.3501 82.06C35.1301 80.74 30.4801 66.55 33.4401 62.9C36.3901 59.26 40.6001 59.82 40.6001 59.82L38.7801 67.04C38.7801 67.04 40.7901 71.63 43.1801 70.43C45.5701 69.23 45.5101 64.59 45.1201 60.51C44.7501 56.42 46.1701 55.93 47.2401 55.86C48.3101 55.8 49.9601 55.3 51.0901 57.37C52.2201 59.44 51.3401 62.52 48.4501 61.2Z" fill="#FDB07B"/>
<path d="M47.9701 79.34C46.9201 81.55 45.1501 82.57 42.3601 82.06C35.1401 80.74 30.4901 66.55 33.4501 62.9C36.4001 59.26 40.6101 59.82 40.6101 59.82L38.7901 67.04C37.2801 64.46 34.7701 63.52 34.2701 67.11C33.7701 70.69 38.4201 79.92 42.8701 80.93C45.8301 81.6 47.2501 80.51 47.9701 79.34Z" fill="#F19D70"/>
</g>
<defs>
<linearGradient id="paint0_linear_25_2194" x1="65.8432" y1="46.3885" x2="82.3019" y2="32.1474" gradientUnits="userSpaceOnUse">
<stop stop-color="#F47769"/>
<stop offset="0.1317" stop-color="#DF6A63"/>
<stop offset="0.4032" stop-color="#AA4852"/>
<stop offset="0.7807" stop-color="#571338"/>
</linearGradient>
<clipPath id="clip0_25_2194">
<rect width="108.21" height="108.21" fill="white"/>
</clipPath>
</defs>
</svg>
