<svg width="109" height="109" viewBox="0 0 109 109" fill="none" xmlns="http://www.w3.org/2000/svg">
<g clip-path="url(#clip0_25_2581)">
<path d="M78.2864 102.511C105.021 89.1587 115.869 56.6621 102.517 29.9278C89.1646 3.19346 56.668 -7.65489 29.9337 5.69734C3.19932 19.0496 -7.64903 51.5462 5.7032 78.2805C19.0554 105.015 51.552 115.863 78.2864 102.511Z" fill="#FFC196"/>
<path d="M18.6801 33C12.9001 75.21 43.3001 110.13 72.7001 98.08C85.26 92.93 86.6101 78.95 84.5101 67.93C82.4101 56.91 76.7001 48.88 75.2101 43.81C72.2001 33.5 75.5501 15.36 55.3601 8.37999C42.3001 3.84999 21.9601 9.05999 18.6801 33Z" fill="#F47769"/>
<path d="M60.7299 95.97C52.0599 95.97 43.4299 91.56 36.4499 83.55C25.5599 71.06 20.5899 52.39 23.1599 33.61C25.3999 17.25 36.5899 11.42 46.3199 11.42C48.9499 11.42 51.5599 11.85 53.8899 12.65C66.8199 17.13 68.0299 26.46 69.3099 36.34C69.7099 39.45 70.0899 42.39 70.8799 45.08C71.5099 47.25 72.6599 49.59 73.9799 52.3C76.1399 56.73 78.8299 62.25 80.0799 68.78C81.2199 74.75 82.6099 89.14 70.9999 93.9C67.6299 95.27 64.1799 95.97 60.7299 95.97Z" fill="#8A1E59"/>
<path d="M60.7301 94.46C52.5001 94.46 44.2801 90.23 37.5801 82.56C26.9701 70.39 22.1401 52.17 24.6501 33.82C26.7601 18.42 37.2201 12.93 46.3101 12.93C48.7701 12.93 51.2201 13.33 53.3801 14.08C65.4301 18.25 66.5301 26.73 67.8001 36.54C68.2101 39.71 68.6001 42.7 69.4201 45.51C70.09 47.8 71.2601 50.19 72.6101 52.96C74.7401 57.32 77.3801 62.74 78.5801 69.06C79.6501 74.66 80.9901 88.16 70.4101 92.5C67.2401 93.8 63.9801 94.46 60.7301 94.46Z" fill="#571338"/>
<path opacity="0.6" d="M60.73 89.94C53.83 89.94 46.82 86.26 40.99 79.59C31.23 68.4 26.79 51.52 29.13 34.44C31.29 18.68 42.83 17.46 46.31 17.46C48.27 17.46 50.21 17.77 51.9 18.36C60.91 21.48 61.96 26.65 63.31 37.12C63.74 40.47 64.15 43.64 65.07 46.78C65.85 49.43 67.09 51.98 68.53 54.94C70.54 59.06 73.04 64.18 74.13 69.92C75 74.42 76.2 85.24 68.7 88.31C66.07 89.39 63.39 89.94 60.73 89.94Z" fill="#571338"/>
<path d="M58 57.12C59.13 62.02 63.9 65.03 66.17 67.17C68.43 69.31 71.07 87.65 67.43 90.29C63.79 92.93 50.97 88.03 45.7 82.25C40.42 76.47 37.53 57.63 37.53 57.63L50.09 52.23L52.1 53.49L58 57.12Z" fill="#F19D70"/>
<path d="M52.63 57.83C52.6 58.16 52.56 58.51 52.51 58.88C51.8 64.58 44.26 68.57 40.9 64.65C40.71 64.43 40.53 64.18 40.37 63.91L38.27 62.24L37.65 59.87L37.32 58.61L37.26 58.39L52 52.86C52 52.86 52.25 52.86 52.46 53.38C52.6 53.74 52.73 54.34 52.74 55.35C52.76 56 52.73 56.8 52.63 57.83Z" fill="#FDB07B"/>
<path d="M66.49 99.94C68.68 100.34 70.94 103.86 73.12 102.69C75.3 101.52 73.77 97.61 73.77 97.61C73.77 97.61 75.97 101.37 78.15 100.27C80.33 99.17 78.5 95.17 78.78 94.2C79.07 93.22 66.49 99.94 66.49 99.94Z" fill="#F47769"/>
<path d="M73.7599 97.61C72.3599 95.07 68.3499 94.83 68.3499 94.83L74.1499 92.15C74.1599 92.14 72.7399 94.37 73.7599 97.61Z" fill="#8A1E59"/>
<path d="M47.8201 76.97C47.7101 77.37 47.6001 77.74 47.4801 78.1C47.3801 78.41 47.2701 78.71 47.1601 78.98C44.4201 85.91 40.0401 82.27 37.2701 76.59C36.8901 75.82 36.5301 74.95 36.2001 74.03C35.8601 73.09 35.5501 72.08 35.2901 71.06C35.1401 70.49 35.0001 69.91 34.8801 69.33C34.6301 68.14 34.4401 66.95 34.3301 65.82C34.2701 65.26 34.2301 64.71 34.2201 64.19C34.1501 62.13 34.4001 60.39 35.0901 59.4C35.4701 58.84 35.9801 58.52 36.6501 58.5C36.9001 58.52 37.1201 58.56 37.3301 58.6C38.4301 58.81 39.1201 59.26 39.5901 59.99C40.0601 60.71 40.3101 61.72 40.5401 63.03C40.6201 63.45 40.7401 64 40.9101 64.65C41.2601 65.96 41.7901 67.65 42.4801 69.35C42.5801 69.59 42.6701 69.83 42.7801 70.06C42.9101 70.36 43.0401 70.66 43.1801 70.96C44.3801 73.53 45.9101 75.92 47.6501 76.86C47.7001 76.91 47.7601 76.94 47.8201 76.97Z" fill="#FDB07B"/>
<path d="M47.82 76.97C47.61 77.72 47.3899 78.39 47.16 78.98C44.42 79.37 39.9999 78.67 36.1899 74.04C35.6599 72.57 35.21 70.95 34.86 69.34C34.48 67.57 34.25 65.79 34.2 64.2C35.53 65.51 38.25 67.77 42.47 69.36C42.9 69.52 43.3399 69.67 43.7999 69.82C44.9999 72.39 45.9399 75.86 47.6399 76.88C47.7 76.91 47.7599 76.94 47.82 76.97Z" fill="#F19D70"/>
<path d="M58.7499 63.53C58.2999 70.14 53.2799 77.07 47.4799 78.1C46.8899 78.21 46.2899 78.26 45.6899 78.23C42.2199 78.09 38.2499 74.45 35.2899 71.06C32.6899 68.07 30.8699 65.29 30.8699 65.29C30.8699 65.29 29.6099 65.42 28.8599 63.15C28.3599 61.64 27.7299 58.71 28.8599 59.09C28.5699 57.91 28.8199 57.62 29.1099 57.37C29.9899 56.62 31.3699 61.26 33.1299 64.28C33.4099 64.76 33.8099 65.28 34.3299 65.82C36.1299 67.71 39.2399 69.72 42.7799 70.06C44.3699 70.22 46.0599 70.04 47.7499 69.37C47.9099 69.31 48.0599 69.25 48.2099 69.18C50.9699 67.93 52.1099 65.01 52.4999 62.02C52.6899 60.58 52.6999 59.12 52.6399 57.83C52.5999 57.01 52.5199 56.25 52.4499 55.61C52.2899 54.31 52.1099 53.48 52.1099 53.48C52.2399 53.44 52.3599 53.4 52.4799 53.37C53.3699 53.14 54.1499 53.08 54.8399 53.18C58.0899 53.65 59.1599 57.65 58.7499 63.53Z" fill="#FDB07B"/>
<path d="M55.53 66.33C54.73 69.15 51.83 72.74 47.74 69.37C47.9 69.31 48.05 69.25 48.2 69.18C50.96 67.93 52.1 65.01 52.49 62.02C53.45 62.44 56.23 63.9 55.53 66.33Z" fill="#F19D70"/>
<path d="M48.33 68.55C48.82 70.65 51.43 69.09 50.88 68.72C52.43 68.85 53.02 67.97 52.09 67.51C53.93 67.09 54.18 66.3 53.01 65.83C54.35 65.08 53.55 63.82 52.17 63.78C50.8 63.74 47.82 66.42 48.33 68.55Z" fill="#FDB07B"/>
<path d="M69.68 54.48C72.86 55.61 76.3 64.41 76.72 73.62C77.14 82.83 75.97 87.27 70.44 87.94C64.91 88.61 66.34 81.16 66.34 81.16L69.68 54.48Z" fill="#F19D70"/>
<path d="M65.7899 80.36C65.9199 74.96 64.0299 70.81 64.4099 63.4C64.7899 55.99 67.6399 53.82 69.6899 54.48C73.2099 55.61 73.8399 68.55 72.8299 75.71C71.8199 82.87 69.5599 88.15 67.2999 87.9C65.0399 87.65 63.4499 81.95 63.4499 81.95C63.4499 81.95 62.3199 82.58 62.1099 81.7C61.8999 80.82 63.6999 79.56 64.4999 79.61C65.2899 79.65 65.7899 80.36 65.7899 80.36Z" fill="#FDB07B"/>
<path d="M45.44 81.75C43.5 85.16 46.88 91.55 55.99 93.12C65.1 94.69 69.24 92.74 69.87 92.05C70.5 91.36 70.31 89.85 70.81 88.66C71.31 87.47 70.43 86.15 68.55 86.15C66.67 86.15 66.1 89.67 66.1 89.67C66.1 89.67 58.81 84.39 54.92 82.45C51.28 80.61 46.76 79.42 45.44 81.75Z" fill="#FDB07B"/>
<path d="M66.92 45.4C66.84 47.58 62.9 49.34 60.97 52.02C59.04 54.7 62.31 60.48 61.31 67.18C60.3 73.88 56.03 75.64 55.95 76.81C55.87 77.98 56.96 79.24 57.96 78.74C58.96 78.24 62.82 74.13 63.4 67.68C63.98 61.23 62.14 56.46 62.73 53.94C63.32 51.43 68.26 49.33 70.27 51.01C69.68 48.08 66.92 45.4 66.92 45.4Z" fill="url(#paint0_linear_25_2581)"/>
<path d="M54.8201 53.18C54.7501 53.28 54.6801 53.38 54.6001 53.48C54.1701 54.03 53.5401 54.68 52.7401 55.35C52.6401 55.44 52.5301 55.52 52.4301 55.61C49.7201 57.79 45.2101 60.1 39.5801 59.99C38.9501 59.98 38.3101 59.94 37.6501 59.86C36.8101 59.77 35.9501 59.62 35.0701 59.4C35.4501 58.84 35.9601 58.52 36.6301 58.5C36.8801 58.52 37.1001 58.56 37.3101 58.6L37.2501 58.38L51.9901 52.85C51.9901 52.85 52.2401 52.85 52.4501 53.37C53.3601 53.15 54.1401 53.09 54.8201 53.18Z" fill="#F19D70"/>
<path d="M57.26 46.22C60.69 38.85 62.44 30.01 59.25 23.96C55.48 16.8 45.3 15.04 38.77 17.18C32.24 19.32 29.35 24.47 28.22 28.49C26.16 35.8 27.84 39.29 27.84 43.44C27.84 47.59 27.21 50.35 29.35 54.5C31.49 58.65 36.64 59.02 40.78 58.65C44.77 58.29 50.16 58.04 54.71 50.95C55.81 51.13 57.55 51.22 58.37 50.23C59.39 48.99 59.42 46.37 57.26 46.22Z" fill="#FDB07B"/>
<path d="M35.64 49.33C35.07 50.52 34.45 51.47 34.95 52.16C35.45 52.85 38.15 52.29 37.78 51.85C37.58 51.62 36.92 51.54 36.35 51.52C35.84 51.5 35.45 51.05 35.51 50.54L35.64 49.33Z" fill="#E68A65"/>
<path d="M39.6001 48.39C41.0401 52.22 45.7601 50.15 46.6401 47.89C44.3701 49.65 40.6601 49.46 39.6001 48.39Z" fill="#E68A65"/>
<path d="M34.44 48.32C33.18 51.5 30.53 51.5 29.54 48.01C30.47 50.03 33.39 49.56 34.44 48.32Z" fill="#E68A65"/>
<path d="M40.1 42.86C39.94 43.67 44.31 44.37 44.37 43.43C44.43 42.49 40.29 41.92 40.1 42.86Z" fill="#E68A65"/>
<path d="M32.5 43.36C32.88 44.05 29.89 45.59 29.61 44.99C29.23 44.18 32.01 42.47 32.5 43.36Z" fill="#E68A65"/>
<path d="M37.33 54.92C37.47 55.64 40.35 54.61 40.35 54.35C40.35 54.11 37.21 54.29 37.33 54.92Z" fill="#E68A65"/>
</g>
<defs>
<linearGradient id="paint0_linear_25_2581" x1="62.592" y1="61.9664" x2="71.4035" y2="55.9193" gradientUnits="userSpaceOnUse">
<stop stop-color="#F47769"/>
<stop offset="0.1688" stop-color="#DF6A63"/>
<stop offset="0.5165" stop-color="#AA4852"/>
<stop offset="1" stop-color="#571338"/>
</linearGradient>
<clipPath id="clip0_25_2581">
<rect width="108.21" height="108.21" fill="white"/>
</clipPath>
</defs>
</svg>
