<svg width="80" height="52" viewBox="0 0 80 52" fill="none" xmlns="http://www.w3.org/2000/svg">
<g clip-path="url(#clip0_54_3650)">
<path d="M15.1053 15.9361C15.1053 15.9361 0.279487 15.4259 0.536507 29.5381C0.793526 43.6501 15.5338 43.48 19.6474 38.7193C19.6474 38.7193 22.2613 51.4711 36.9157 51.4711C51.5701 51.4711 55.6837 40.3771 55.6837 40.3771C55.6837 40.3771 70.2096 48.7932 77.4083 34.6389C84.607 20.4846 71.2379 11.3457 63.0109 15.5113C63.0109 15.5113 54.0126 1.22932 40.7294 10.7507C40.7294 10.7507 37.0157 8.48379 33.0737 12.5076C33.0735 12.5073 22.3896 4.03441 15.1053 15.9361Z" fill="white"/>
<g opacity="0.3">
<path opacity="0.3" d="M0.549316 28.454C1.05749 42.1896 15.5703 41.983 19.6472 37.2647C19.6472 37.2647 22.2611 50.0164 36.9155 50.0164C51.5698 50.0164 55.6835 38.9222 55.6835 38.9222C55.6835 38.9222 70.2094 47.3385 77.408 33.1837C78.7011 30.641 79.3298 28.2607 79.4442 26.0903C79.3413 24.1951 78.8358 22.4852 78.0426 20.9961C78.3063 23.5947 77.7794 26.5757 76.1229 29.8327C70.6762 40.5424 60.8855 37.8711 56.9022 36.2128C55.9378 35.8114 54.8199 36.1763 54.2893 37.0706C52.4979 40.0909 47.6082 46.087 37.0213 46.087C27.0085 46.087 22.8167 39.9222 21.2215 36.3165C20.7334 35.2134 19.3971 34.759 18.3245 35.3239C12.902 38.179 2.10796 36.759 1.892 24.9073C1.87707 24.094 1.91573 23.3326 1.99865 22.6169C1.178 24.1726 0.641033 26.0917 0.549316 28.454Z" fill="#4F8073"/>
</g>
<g opacity="0.3">
<path opacity="0.3" d="M13.2665 27.3704C13.2665 27.3704 12.7914 20.8951 26.9603 21.9718C41.1292 23.0485 68.1178 12.9025 69.9351 25.4709C69.9351 25.4709 59.0688 20.7817 54.0983 32.7685C54.0983 32.7685 43.3858 27.0726 37.0443 34.5537C37.0443 34.5537 29.8528 19.0821 13.2665 27.3704Z" fill="#4F8073"/>
</g>
<path d="M36.9156 52C29.1293 52 24.7047 48.421 22.3641 45.4186C20.614 43.1737 19.7488 40.9465 19.3721 39.7405C16.6467 42.0936 11.5922 42.8622 7.54414 41.4176C4.79078 40.4353 0.149768 37.5868 0.00339473 29.5476C-0.0733912 25.336 1.15278 21.9663 3.64779 19.532C7.5876 15.688 13.3868 15.4116 14.8092 15.4042C17.0456 11.8623 19.8155 9.77922 23.0458 9.21137C27.6711 8.3973 31.7738 10.9355 33.024 11.8123C35.0815 9.88025 37.0678 9.5306 38.4036 9.59143C39.4535 9.63851 40.2621 9.93817 40.6842 10.1326C44.5576 7.43565 48.4574 6.44463 52.2786 7.18624C58.2711 8.34943 62.1707 13.3693 63.1974 14.8358C67.3348 12.9929 72.6274 14.1328 76.2366 17.6962C78.2197 19.6544 79.475 22.1501 79.8658 24.9134C80.3113 28.0631 79.6448 31.4154 77.884 34.8772C75.7554 39.0626 72.7847 41.7397 69.0542 42.8336C63.3624 44.5033 57.6824 42.0002 55.9438 41.1174C55.4884 42.0904 54.3462 44.1896 52.1674 46.3025C49.4871 48.9016 44.6651 52 36.9156 52ZM19.647 38.1904C19.6915 38.1904 19.7366 38.1959 19.7808 38.2073C19.9781 38.2581 20.1288 38.416 20.1696 38.6141C20.1757 38.6445 20.8398 41.7513 23.2346 44.8064C26.4263 48.8778 31.0292 50.9423 36.9153 50.9423C42.8281 50.9423 47.6965 49.1386 51.3854 45.581C54.1431 42.9217 55.1727 40.2208 55.1829 40.1938C55.2375 40.0473 55.3551 39.932 55.5034 39.8793C55.6519 39.8264 55.8161 39.8415 55.9521 39.9203C56.0169 39.9579 62.5186 43.6508 68.7585 41.8169C72.1923 40.8077 74.9422 38.3123 76.9317 34.4003C80.0111 28.3456 79.4699 22.3812 75.484 18.4457C72.0718 15.0765 67.0423 14.0633 63.2529 15.9821C63.0068 16.1072 62.7047 16.0242 62.5583 15.7914C62.5186 15.7285 58.4977 9.46739 52.0664 8.22301C48.4598 7.52557 44.7507 8.52002 41.0409 11.1791C40.866 11.3045 40.6325 11.3129 40.449 11.2008C40.3131 11.1193 37.0339 9.22275 33.4551 12.876C33.264 13.0715 32.9542 13.0905 32.7398 12.9205C32.6953 12.8853 28.1876 9.37747 23.2239 10.2545C20.2346 10.7824 17.6564 12.7864 15.5605 16.2106C15.4606 16.3741 15.2777 16.4674 15.0865 16.4648C15.0036 16.4616 8.47598 16.2995 4.39006 20.2913C2.11581 22.5137 0.998412 25.6214 1.0696 29.5283C1.20451 36.9327 5.41014 39.5318 7.90515 40.4221C9.91358 41.1385 12.2273 41.2919 14.4208 40.854C16.4788 40.4429 18.2363 39.5392 19.2423 38.3747C19.3449 38.2562 19.4937 38.1904 19.647 38.1904Z" fill="#4F8073"/>
<path d="M66.2822 24.7203C65.2157 28.8118 62.3083 32.1827 58.461 33.9957C51.8622 37.1033 39.1685 41.3232 30.6047 33.1427C28.8251 31.4434 27.5293 29.3236 26.8681 27.0134C26.5108 25.769 26.3389 24.4677 26.3735 23.1466C26.4535 20.1752 27.564 16.7898 31.4846 14.6184C35.1066 12.6123 39.5258 12.771 43.1144 14.8366C44.5422 15.6578 46.4085 16.3931 48.5748 16.4592C53.6738 16.6166 56.9159 11.4566 63.8293 16.4592C64.5705 16.9948 65.1397 17.5912 65.5677 18.2273C66.8874 20.1897 66.8514 22.5397 66.2822 24.7203Z" fill="#FF007D"/>
<path d="M59.8647 17.5648L60.1905 17.9221C60.3342 18.0797 60.5641 18.1278 60.7598 18.0408L61.2029 17.8441C61.6404 17.6497 62.0731 18.1244 61.8342 18.5367L61.5924 18.9544C61.4855 19.1387 61.5106 19.3704 61.6545 19.5283L61.9803 19.8856C62.3019 20.2384 61.9806 20.7933 61.5114 20.6952L61.0362 20.596C60.8264 20.5521 60.6121 20.6476 60.5051 20.8319L60.2633 21.2495C60.0244 21.6618 59.3933 21.5301 59.3422 21.0572L59.2904 20.5783C59.2675 20.3667 59.1099 20.194 58.9001 20.1503L58.425 20.0512C57.9557 19.9533 57.887 19.317 58.3245 19.1226L58.7676 18.9258C58.9633 18.8388 59.0803 18.6367 59.0574 18.4254L59.0057 17.9464C58.9545 17.4735 59.5432 17.2122 59.8647 17.5648Z" fill="white"/>
<path d="M39.7358 28.3443L39.7212 28.8259C39.7148 29.0385 39.847 29.2311 40.0488 29.3027L40.5061 29.4654C40.9575 29.6259 40.938 30.2654 40.4776 30.3987L40.0115 30.5336C39.8057 30.5931 39.662 30.7775 39.6556 30.9901L39.6409 31.4717C39.6265 31.947 39.0072 32.1263 38.7373 31.7333L38.4638 31.3353C38.343 31.1594 38.122 31.0808 37.9162 31.1403L37.4501 31.2752C36.9899 31.4085 36.6268 30.8796 36.9201 30.5035L37.2174 30.1224C37.3485 29.9541 37.3557 29.7211 37.235 29.5455L36.9614 29.1475C36.6913 28.7545 37.0862 28.2485 37.5376 28.4091L37.9948 28.5717C38.1966 28.6434 38.4222 28.5783 38.5534 28.4101L38.8507 28.029C39.1431 27.6529 39.7502 27.869 39.7358 28.3443Z" fill="white"/>
<path d="M46.0695 18.0014L46.189 18.2463C46.2418 18.3545 46.3585 18.4167 46.4785 18.4003L46.7502 18.3632C47.0184 18.3267 47.1771 18.6521 46.9819 18.838L46.7841 19.0263C46.6966 19.1093 46.6732 19.2389 46.7259 19.3471L46.8454 19.592C46.9632 19.8338 46.7003 20.084 46.4617 19.9573L46.2199 19.8287C46.1133 19.7719 45.9818 19.7898 45.8944 19.8732L45.6965 20.0615C45.5011 20.2474 45.1801 20.0768 45.2278 19.8123L45.2763 19.5444C45.2977 19.4262 45.2401 19.3077 45.1332 19.2508L44.8913 19.1223C44.6527 18.9953 44.717 18.6396 44.9855 18.6031L45.2571 18.5661C45.3771 18.5497 45.4728 18.4587 45.4942 18.3405L45.5427 18.0726C45.5907 17.8089 45.9517 17.7597 46.0695 18.0014Z" fill="white"/>
<path d="M55.9595 25.6772L56.0139 25.9438C56.0378 26.0615 56.1357 26.1506 56.2559 26.1644L56.5284 26.1956C56.7974 26.2263 56.8697 26.5807 56.634 26.7126L56.3951 26.8465C56.2895 26.9055 56.2346 27.0253 56.2586 27.143L56.313 27.4096C56.3666 27.673 56.0493 27.8504 55.8499 27.6687L55.6478 27.4847C55.5585 27.4035 55.4268 27.3884 55.3212 27.4474L55.0823 27.5812C54.8463 27.7132 54.5781 27.4688 54.6906 27.2244L54.8048 26.9769C54.8551 26.8676 54.8287 26.7386 54.7397 26.6574L54.5376 26.4733C54.3382 26.2916 54.4896 25.9628 54.7586 25.9935L55.0311 26.0247C55.1514 26.0385 55.2671 25.9737 55.3172 25.8645L55.4313 25.6169C55.5438 25.3725 55.9059 25.4138 55.9595 25.6772Z" fill="white"/>
<g opacity="0.3">
<path opacity="0.3" d="M43.2429 13.569C43.2429 13.569 45.6192 16.1646 41.7845 22.2297C41.652 22.4394 41.6349 22.7023 41.7418 22.9258C41.8967 23.2493 42.1188 23.7647 42.2716 24.3381C42.2716 24.3381 40.7543 23.6132 38.8242 23.7489C38.824 23.7489 43.9139 18.1728 43.2429 13.569Z" fill="#4F8073"/>
</g>
<g opacity="0.3">
<path opacity="0.3" d="M66.2823 24.7203C65.2158 28.8118 62.3083 32.1827 58.461 33.9957C51.8622 37.1033 39.1686 41.3231 30.6048 33.1427C28.8251 31.4434 27.5294 29.3236 26.8682 27.0134L34.1575 27.8372C34.1575 27.8372 35.9017 29.5847 36.8279 31.134C37.0692 31.5379 37.6022 31.655 37.9936 31.3911C39.4898 30.3818 43.0497 28.4225 47.2711 29.1702C47.2711 29.1702 49.1707 25.9012 47.7137 23.1929C47.7137 23.1929 48.3839 23.8147 48.9977 25.1006C49.2659 25.6624 50.0871 25.6029 50.2655 25.007C50.6126 23.8483 51.2093 22.5344 52.2315 21.6087C52.2315 21.6087 52.1769 22.1575 52.1729 23.0022C52.1601 25.6658 55.2491 27.1834 57.3708 25.5511C58.4746 24.7018 59.8664 23.9597 61.5853 23.5833C64.0365 23.0467 65.7213 20.7906 65.5725 18.3048C65.5709 18.2791 65.5693 18.2532 65.5677 18.2276C66.8875 20.1897 66.8515 22.5397 66.2823 24.7203Z" fill="#4F8073"/>
</g>
<g opacity="0.7">
<path opacity="0.7" d="M31.4845 15.9408C35.1065 13.9347 39.5257 14.0934 43.1144 16.159C44.5421 16.9803 46.4084 17.7155 48.5747 17.7816C53.6738 17.939 56.9159 12.779 63.8293 17.7816C64.5705 18.3172 65.1397 18.9136 65.5676 19.5497C66.2222 20.5233 66.5429 21.592 66.6309 22.688C66.7463 21.1384 66.4837 19.5896 65.5676 18.2273C65.1397 17.5912 64.5705 16.9948 63.8293 16.4592C56.9159 11.4566 53.6738 16.6166 48.5747 16.4592C46.4084 16.3931 44.5421 15.6578 43.1144 14.8366C39.5257 12.771 35.1065 12.6123 31.4845 14.6184C27.5639 16.7898 26.4534 20.1752 26.3734 23.1466C26.3646 23.481 26.3694 23.8137 26.3868 24.1448C26.538 21.254 27.7057 18.0337 31.4845 15.9408Z" fill="white"/>
</g>
<path d="M53.0668 16.0514C52.9108 16.121 52.726 16.2085 52.557 16.2955C52.4703 16.3389 52.3847 16.3844 52.3002 16.432C52.2141 16.4772 52.1291 16.524 52.0451 16.5727C51.7081 16.7658 51.3775 16.9723 51.065 17.2014C50.7568 17.4341 50.4574 17.6811 50.1945 17.9633C49.9343 18.2485 49.6962 18.5441 49.445 18.8819L49.4437 18.8837C49.4288 18.9038 49.4002 18.9081 49.3802 18.8933C49.3677 18.8843 49.3613 18.8697 49.3618 18.8554C49.3754 18.4259 49.5378 18.0091 49.758 17.6401C49.9876 17.2762 50.2585 16.9401 50.556 16.6314C50.8533 16.3225 51.1796 16.0456 51.5201 15.7885C51.6899 15.6589 51.8659 15.5383 52.0467 15.4238C52.2298 15.3066 52.4031 15.1998 52.6143 15.0929C52.8767 14.9601 53.1979 15.0636 53.3318 15.3241C53.4656 15.5843 53.3614 15.903 53.0987 16.0358C53.0915 16.0392 53.0846 16.0427 53.0774 16.0461L53.0668 16.0514Z" fill="#4F8073"/>
<path d="M54.8604 35.7148C54.7429 35.5807 54.6469 35.462 54.545 35.3345C54.4451 35.2086 54.3472 35.0827 54.2534 34.9536C54.0635 34.6971 53.8852 34.4342 53.7087 34.17C53.3607 33.6386 53.0338 33.0935 52.7438 32.5286C52.1559 31.4035 51.6896 30.2109 51.3827 28.9737C51.0795 27.7375 50.9382 26.4513 51.0422 25.1784C51.0849 24.5428 51.1896 23.9091 51.3752 23.3008C51.4245 23.1496 51.4741 22.9985 51.5285 22.8496C51.5904 22.7031 51.6525 22.5569 51.721 22.4138L51.8215 22.199L51.942 21.9932C52.0228 21.8568 52.1065 21.7227 52.1956 21.5923C52.2081 21.574 52.2332 21.5693 52.2516 21.5814C52.2649 21.5904 52.271 21.606 52.2686 21.6208L52.2681 21.6235C52.2425 21.7798 52.2119 21.9324 52.1783 22.0826L52.1271 22.3069L52.0855 22.533C52.0604 22.6841 52.0247 22.8309 51.9964 22.9795C51.9764 23.13 51.9514 23.2786 51.9263 23.4267C51.8386 24.0205 51.7554 24.6124 51.7562 25.2104C51.7474 25.8065 51.7858 26.4032 51.8799 26.9922C51.9682 27.5815 52.0916 28.1665 52.2668 28.7383C52.4398 29.3104 52.6393 29.8751 52.8747 30.4265C53.1114 30.9772 53.3759 31.517 53.6649 32.0438C53.9563 32.5693 54.2651 33.0864 54.5997 33.5863C54.769 33.8346 54.9396 34.0824 55.1201 34.3218L55.3908 34.6791C55.4803 34.7947 55.5782 34.9171 55.6635 35.0168L55.6702 35.0248C55.8605 35.2475 55.8331 35.5812 55.6083 35.7704C55.3849 35.9589 55.0516 35.933 54.8604 35.7148Z" fill="#4F8073"/>
<path d="M47.8289 23.1715C48.127 23.555 48.3038 23.9978 48.4251 24.4519C48.5472 24.9073 48.5869 25.3805 48.5912 25.8531C48.5909 26.3263 48.552 26.8015 48.4696 27.2723C48.4477 27.3897 48.4189 27.5058 48.3936 27.623L48.3539 27.7984L48.3019 27.9705L48.1955 28.3149L48.0635 28.6508C47.9825 28.8782 47.8622 29.088 47.7585 29.3059C47.7063 29.4149 47.6369 29.5141 47.5767 29.6185C47.5132 29.7209 47.4543 29.8269 47.3853 29.9259L47.1712 30.2173C47.0989 30.3138 47.0307 30.4141 46.9483 30.5016L46.7099 30.773L46.5905 30.9087L46.4612 31.0338C46.1228 31.3757 45.7506 31.6794 45.3651 31.9597C45.1675 32.092 44.9737 32.2319 44.7721 32.3575L44.1546 32.7101C42.4726 33.5781 40.6588 34.0996 38.8359 34.4049L38.151 34.513L37.8083 34.567L37.4647 34.6069L36.7773 34.6847C36.5486 34.7117 36.3193 34.737 36.0873 34.7521C35.1632 34.8256 34.2285 34.8516 33.283 34.7796C32.8101 34.7347 32.3352 34.6794 31.8598 34.5625C31.3858 34.4469 30.9088 34.288 30.455 34.0327C30.0055 33.7796 29.568 33.4165 29.2918 32.9211C29.1454 32.6804 29.0574 32.4088 28.9972 32.1398C28.9753 32.0041 28.9494 31.8679 28.9478 31.7333C28.9366 31.5974 28.9433 31.4649 28.951 31.3326C28.9857 30.8029 29.1459 30.3183 29.3422 29.8677C29.5421 29.4175 29.7912 29.0023 30.0663 28.6122C30.6206 27.8338 31.2807 27.1557 31.9929 26.5482C33.4188 25.3376 35.0662 24.385 36.8712 23.8409C37.771 23.5677 38.7154 23.4101 39.6701 23.4162C40.1463 23.4281 40.6286 23.4654 41.0912 23.5981C41.5509 23.733 41.9916 23.956 42.3328 24.3024C42.3555 24.3254 42.3552 24.3625 42.3318 24.3852C42.319 24.3977 42.3017 24.4032 42.2851 24.4016H42.2838C41.8073 24.3556 41.3821 24.29 40.9539 24.239C40.5286 24.185 40.1029 24.1363 39.6715 24.1469C38.8098 24.1691 37.9481 24.3387 37.1215 24.619C36.2932 24.8954 35.4986 25.2776 34.7446 25.7232C33.9909 26.1702 33.2748 26.6833 32.6226 27.2631C31.9684 27.8391 31.3749 28.4823 30.8891 29.1808C30.6465 29.5294 30.4326 29.8938 30.2692 30.2689C30.1084 30.6429 29.9879 31.0306 29.9687 31.4022C29.9645 31.4948 29.9589 31.5871 29.9685 31.6759C29.9685 31.7672 29.9887 31.8521 30.0013 31.9388C30.0426 32.1068 30.0927 32.271 30.1847 32.4149C30.3497 32.7124 30.6331 32.9518 30.9683 33.1414C31.305 33.3305 31.6956 33.4646 32.1017 33.5625C32.5083 33.6625 32.9378 33.7119 33.3676 33.7524C34.2333 33.8169 35.1187 33.7928 36.0031 33.7206C36.2241 33.7061 36.4459 33.6812 36.6678 33.6545L37.3332 33.5783L37.6657 33.5392L37.9955 33.4866L38.6549 33.3816C40.4063 33.0822 42.1236 32.5926 43.6699 31.8047C44.4391 31.4064 45.1515 30.9177 45.7669 30.3355C46.3817 29.7539 46.8901 29.0681 47.2306 28.2996L47.3573 28.0107L47.461 27.7127L47.5124 27.5632L47.5538 27.4106C47.5804 27.3085 47.6113 27.2072 47.6353 27.1044C47.7268 26.6912 47.7817 26.2683 47.8017 25.8415C47.8185 25.4135 47.79 24.9859 47.7756 24.5516C47.758 24.1165 47.7321 23.6769 47.7225 23.2133V23.2091C47.7217 23.1763 47.7481 23.1493 47.7809 23.1485C47.8001 23.148 47.8177 23.1572 47.8289 23.1715Z" fill="#252122"/>
<path d="M43.1559 38.4281C38.6282 38.4284 34.0461 37.1644 30.2351 33.5239C27.341 30.7592 25.7394 26.9721 25.8415 23.1332C25.9471 19.1524 27.8089 16.0482 31.2253 14.1564C34.9252 12.1077 39.5835 12.1929 43.382 14.3788C45.0772 15.3542 46.8299 15.8763 48.592 15.9305C50.2338 15.9803 51.673 15.4442 53.1968 14.8758C56.2303 13.7446 59.3668 12.5748 64.1441 16.0318C66.8708 18.0049 67.7885 21.0554 66.7988 24.8534C65.7035 29.0554 62.7481 32.5619 58.6899 34.4731C54.8106 36.2999 49.0295 38.4279 43.1559 38.4281ZM31.7447 15.08C28.6314 16.8041 27.004 19.5227 26.9075 23.1609C26.8133 26.7034 28.296 30.2028 30.9747 32.7619C34.5487 36.1758 38.8762 37.3668 43.1727 37.367C48.8456 37.3673 54.4651 35.2919 58.2321 33.5175C62.0039 31.741 64.7498 28.4865 65.7656 24.5886C66.6495 21.1982 65.8923 18.6068 63.5151 16.8866C59.2031 13.7663 56.4676 14.7864 53.5719 15.8663C52.0178 16.4457 50.4114 17.0472 48.5587 16.9882C46.6182 16.9284 44.6965 16.3585 42.8469 15.2942C39.3718 13.2942 35.1177 13.2119 31.7447 15.08Z" fill="#4F8073"/>
<path d="M36.4155 4.34543C36.4155 4.34543 38.3472 2.40044 40.61 4.48931C42.8727 6.57819 42.4947 9.47268 41.6474 10.5206C40.8003 11.5687 36.4155 4.34543 36.4155 4.34543Z" fill="#FFC196"/>
<path d="M41.4306 11.1537C41.4106 11.1537 41.3903 11.1532 41.3698 11.1516C40.8638 11.118 40.0692 10.6882 38.0123 7.75619C36.921 6.20051 35.9684 4.63399 35.9588 4.61838C35.8332 4.41156 35.8647 4.14628 36.0358 3.9741C36.8296 3.17484 38.8836 2.17272 40.9736 4.10185C43.3873 6.33011 43.1505 9.50733 42.0638 10.8514C41.9049 11.0477 41.6817 11.1537 41.4306 11.1537ZM37.1119 4.4634C38.673 6.98417 40.5995 9.62502 41.333 10.0455C41.8873 9.15557 42.2776 6.75116 40.2468 4.87652C38.8585 3.59537 37.6673 4.08942 37.1119 4.4634Z" fill="#252122"/>
<path d="M17.0523 23.4143C17.0523 23.4143 15.0775 25.3162 17.1667 27.5762C19.2559 29.8359 22.1764 29.4818 23.2389 28.6492C24.3016 27.8163 17.0523 23.4143 17.0523 23.4143Z" fill="#FFDAB6"/>
<path d="M21.0024 29.8267C19.6223 29.8267 18.0405 29.3038 16.7738 27.9338C14.8443 25.8465 15.8692 23.8166 16.681 23.0348C16.8556 22.8666 17.1233 22.8372 17.3308 22.9631C17.3465 22.9726 18.9187 23.929 20.479 25.0229C23.4195 27.0845 23.8469 27.8758 23.8773 28.3781C23.8938 28.6521 23.7845 28.8959 23.5699 29.0642C22.9815 29.5251 22.0502 29.8267 21.0024 29.8267ZM17.166 24.1059C16.785 24.6539 16.2782 25.8322 17.5598 27.2186C19.4346 29.2466 21.8614 28.8769 22.7628 28.3337C22.3437 27.6032 19.6957 25.673 17.166 24.1059Z" fill="#252122"/>
<path d="M37.7359 24.8737C37.7359 24.8737 26.9405 36.1605 20.2711 27.0848C20.2711 27.0848 14.3922 22.9681 13.407 16.8718C12.8591 13.4918 13.8176 9.50337 18.1168 5.26902C30.168 -6.5996 40.0915 7.56472 40.0915 7.56472C41.8538 8.85803 42.8456 10.3008 43.2975 11.7845C45.1852 17.9641 37.7359 24.8737 37.7359 24.8737Z" fill="#FFC196"/>
<g opacity="0.3">
<path opacity="0.3" d="M37.7356 24.8737C37.7356 24.8737 26.9403 36.1605 20.2708 27.0848C20.2708 27.0848 14.3919 22.9681 13.4067 16.8718C13.556 17.0887 21.7132 28.8237 36.3385 21.4368C41.1057 19.0287 42.9653 15.482 43.2973 11.7845C45.1849 17.9641 37.7356 24.8737 37.7356 24.8737Z" fill="#252122"/>
</g>
<g opacity="0.7">
<path opacity="0.7" d="M43.2975 11.7845C42.8456 10.3008 41.8538 8.85803 40.0915 7.56472C40.0915 7.56472 30.1679 -6.5996 18.1168 5.26902C15.3592 7.98498 13.9776 10.5996 13.4849 13.0178C14.1775 11.0178 15.5037 8.90352 17.7169 6.72366C20.7817 3.70514 23.7089 2.37082 26.3702 2.05874C26.5657 2.03573 26.7651 2.09735 26.9005 2.23885C27.3884 2.7485 28.4968 3.28011 29.8467 3.59828C31.2643 3.93259 32.5512 3.93814 33.1909 3.66176C33.3655 3.58638 33.5684 3.60331 33.734 3.69667C36.9816 5.53085 39.1298 8.26295 39.5961 8.88845C39.6627 8.97784 39.7427 9.05639 39.8318 9.12383C41.5067 10.3902 42.4577 11.7951 42.8976 13.2392C43.2845 14.5058 43.2786 15.8028 43.0259 17.0649C43.6148 15.363 43.835 13.5444 43.2975 11.7845Z" fill="#F4D3BD"/>
</g>
<path d="M34.5759 9.20846C34.7113 9.76678 34.6468 10.3555 34.4714 10.908C34.2914 11.4605 33.9811 11.9837 33.5644 12.4079C33.4622 12.5158 33.3492 12.6126 33.2375 12.7102C33.1199 12.8009 33.0039 12.893 32.8781 12.971C32.7557 13.054 32.6248 13.1225 32.4958 13.1923C32.3622 13.2532 32.2315 13.3198 32.0929 13.3661C31.5458 13.5674 30.9694 13.66 30.3993 13.6049C30.3783 13.6028 30.3628 13.5843 30.3649 13.5634C30.3663 13.5505 30.3743 13.5393 30.3849 13.5335C30.8822 13.2635 31.3504 13.0199 31.7799 12.7419C31.8348 12.7094 31.8879 12.6742 31.9388 12.6364L32.0956 12.5306C32.1934 12.4513 32.2998 12.3854 32.3931 12.3032C32.5888 12.1506 32.7712 11.985 32.9426 11.8096C33.2892 11.4621 33.5875 11.0683 33.8499 10.6343C34.1128 10.1992 34.3394 9.72843 34.5436 9.20767L34.5442 9.20635C34.5476 9.19788 34.5572 9.19365 34.5658 9.19709C34.5711 9.19894 34.5746 9.20344 34.5759 9.20846Z" fill="#252122"/>
<path d="M21.9677 21.5928C22.494 21.3939 22.9702 21.1726 23.4109 20.9149C23.8503 20.6579 24.2494 20.3646 24.6024 20.0234C24.7805 19.8546 24.9485 19.6748 25.1039 19.482C25.1874 19.3899 25.2546 19.2849 25.3354 19.1884L25.4431 19.0337C25.4817 18.9834 25.5172 18.9311 25.5505 18.8769C25.8339 18.4526 26.0824 17.99 26.3584 17.4989C26.3688 17.4804 26.392 17.4738 26.4106 17.4838C26.4221 17.4902 26.429 17.5018 26.4304 17.5137C26.4815 18.0794 26.3842 18.6507 26.1773 19.1918C26.1296 19.3291 26.0614 19.4579 25.9992 19.5902C25.928 19.7179 25.8579 19.847 25.7734 19.9678C25.6937 20.0921 25.5998 20.2064 25.5079 20.3225C25.4087 20.4325 25.3103 20.5439 25.201 20.6446C24.7704 21.0551 24.2409 21.359 23.6826 21.5336C23.1246 21.7036 22.5303 21.7631 21.9688 21.6248C21.96 21.6227 21.9544 21.6137 21.9565 21.6047C21.9578 21.5992 21.9618 21.5952 21.9666 21.5933L21.9677 21.5928Z" fill="#252122"/>
<path d="M31.5768 16.4772C31.2907 16.5843 31.0315 16.6846 30.798 16.8017C30.5647 16.9178 30.3626 17.0493 30.1999 17.2064C30.0394 17.3656 29.9125 17.5476 29.8022 17.7703C29.6923 17.9932 29.6046 18.25 29.491 18.5404C29.4854 18.5547 29.4694 18.5619 29.455 18.5566C29.4486 18.5542 29.4436 18.5494 29.4404 18.5439C29.2889 18.267 29.2383 17.9475 29.2846 17.6222C29.3276 17.2968 29.5025 16.971 29.76 16.7396C30.0186 16.5076 30.3412 16.3743 30.6572 16.3296C30.9742 16.2876 31.2923 16.3159 31.5792 16.4468C31.5874 16.4505 31.5909 16.4603 31.5871 16.4685C31.5853 16.4725 31.5818 16.4754 31.5781 16.4769L31.5768 16.4772Z" fill="#252122"/>
<path d="M26.6784 31.1443C26.4973 31.1443 26.3168 31.1387 26.1355 31.1271C23.6853 30.9697 21.5846 29.7378 19.8905 27.4648C19.1323 26.9155 13.3144 22.504 12.7729 16.0911C12.4466 12.228 14.118 8.46051 17.7403 4.89318C21.3628 1.32612 25.172 -0.305735 29.0646 0.0470833C35.525 0.630794 39.9301 6.43405 40.4782 7.1902C42.7573 8.88712 43.984 10.98 44.1245 13.4116C44.4604 19.2162 38.5042 24.883 38.1123 25.249C37.7523 25.6227 32.3357 31.144 26.6784 31.1443ZM28.0379 1.05873C24.7915 1.05873 21.5852 2.59774 18.4919 5.64404C15.1037 8.98074 13.537 12.4661 13.8357 16.0027C14.3617 22.2318 20.516 26.6087 20.5782 26.6523C20.6256 26.6854 20.6672 26.7261 20.7016 26.773C22.2085 28.8232 24.0591 29.9332 26.2019 30.0716C31.6188 30.4204 37.2932 24.5688 37.3497 24.5098C37.3569 24.5024 37.3644 24.4947 37.3719 24.4878C37.4321 24.432 43.3726 18.848 43.0596 13.4701C42.9359 11.3434 41.8305 9.49966 39.7746 7.98999C39.728 7.95588 39.6872 7.91409 39.6541 7.86675C39.6107 7.80512 35.2285 1.66307 28.9617 1.10051C28.6535 1.07248 28.3453 1.05873 28.0379 1.05873Z" fill="#252122"/>
<path d="M37.1718 24.2893C38.7601 22.7137 38.7601 20.1591 37.1718 18.5835C35.5835 17.0079 33.0082 17.0079 31.4199 18.5835C29.8316 20.1591 29.8316 22.7137 31.4199 24.2893C33.0082 25.865 35.5835 25.865 37.1718 24.2893Z" fill="white"/>
<g opacity="0.3">
<path opacity="0.3" d="M37.9568 19.678C37.903 20.6391 37.5046 21.5844 36.7618 22.3159C35.1677 23.8859 32.5925 23.8766 31.0101 22.2953C30.684 21.9697 30.4267 21.6021 30.2358 21.2109C30.174 22.3122 30.5648 23.4344 31.41 24.2789C32.9927 25.8602 35.5676 25.8695 37.1618 24.2995C38.4274 23.053 38.6929 21.186 37.9568 19.678Z" fill="#252122"/>
</g>
<g opacity="0.7">
<path opacity="0.7" d="M31.5645 19.6309C33.1586 18.0609 35.7338 18.0702 37.3162 19.6515C37.8396 20.1747 38.1878 20.8041 38.3632 21.4693C38.3717 20.4307 37.979 19.3889 37.1829 18.5936C35.6003 17.0123 33.0253 17.003 31.4311 18.573C30.3644 19.6235 30.0085 21.1152 30.3633 22.4608C30.3719 21.4347 30.7721 20.4111 31.5645 19.6309Z" fill="white"/>
</g>
<path d="M34.2965 25.8462C33.1519 25.8462 32.0081 25.4122 31.1397 24.5447C29.4121 22.8182 29.4222 20.0192 31.1624 18.3053C32.9029 16.5912 35.7248 16.6015 37.4524 18.3278C39.1801 20.0543 39.17 22.8536 37.4298 24.5674C36.5638 25.4204 35.4299 25.8462 34.2965 25.8462ZM34.2962 17.7808C33.3567 17.7808 32.4168 18.1339 31.6988 18.8409C30.2564 20.2617 30.2479 22.5817 31.6802 24.0128C33.1124 25.4439 35.4512 25.4524 36.8939 24.0316C38.3366 22.6108 38.3448 20.2908 36.9128 18.8597C36.1932 18.1408 35.2446 17.7808 34.2962 17.7808Z" fill="#252122"/>
<path d="M36.3382 26.9049C35.4485 26.9049 34.559 26.5675 33.8842 25.893C33.2337 25.2429 32.8769 24.3802 32.8804 23.464C32.8839 22.5479 33.2467 21.6878 33.9021 21.0424C34.5545 20.4 35.4191 20.0467 36.3379 20.0467C36.3422 20.0467 36.3464 20.0467 36.3507 20.0467C37.2743 20.0498 38.1413 20.4101 38.7918 21.0602C39.4424 21.7103 39.7991 22.5727 39.7957 23.4889C39.7922 24.4051 39.4293 25.2651 38.774 25.9107C38.1008 26.5738 37.2193 26.9049 36.3382 26.9049ZM36.3376 20.6507C35.5807 20.6507 34.8683 20.9419 34.3311 21.4712C33.7912 22.0028 33.4923 22.7113 33.4893 23.4661C33.4867 24.221 33.7802 24.9316 34.3167 25.4672C35.4231 26.573 37.2305 26.5796 38.3453 25.4818C38.8852 24.9499 39.184 24.2413 39.187 23.4868C39.1896 22.7319 38.8961 22.0213 38.3597 21.4857C37.8238 20.9499 37.1095 20.6534 36.3486 20.6507C36.3448 20.6507 36.3411 20.6507 36.3376 20.6507Z" fill="#252122"/>
<path d="M35.5474 22.6782C36.2388 21.9924 36.2388 20.8805 35.5474 20.1947C34.8561 19.5088 33.7352 19.5088 33.0438 20.1947C32.3524 20.8805 32.3524 21.9924 33.0438 22.6782C33.7352 23.364 34.8561 23.364 35.5474 22.6782Z" fill="#FF007D"/>
<g opacity="0.3">
<path opacity="0.3" d="M35.6637 20.322C35.6789 20.7922 35.5064 21.267 35.1435 21.6245C34.4498 22.308 33.3289 22.3037 32.64 21.6156C32.6005 21.5761 32.5637 21.5346 32.5288 21.4926C32.5427 21.921 32.7117 22.3453 33.0399 22.6735C33.7289 23.3617 34.8497 23.3659 35.5435 22.6825C36.1972 22.0385 36.2377 21.0141 35.6637 20.322Z" fill="#4F8073"/>
</g>
<path d="M34.2961 23.5701C34.2934 23.5701 34.2908 23.5701 34.2881 23.5701C33.7135 23.568 33.1744 23.3442 32.7697 22.9398H32.7695C32.3647 22.5354 32.1429 21.9988 32.145 21.4288C32.1472 20.8589 32.3727 20.3238 32.7807 19.9223C33.6221 19.0937 34.9866 19.0985 35.8222 19.9335C36.6575 20.7684 36.6527 22.1218 35.8113 22.9507C35.4055 23.35 34.8677 23.5701 34.2961 23.5701ZM33.3099 22.4077C33.5714 22.669 33.9199 22.8137 34.291 22.815C34.2929 22.815 34.2945 22.815 34.2964 22.815C34.6656 22.815 35.013 22.673 35.2754 22.4148C35.8193 21.8792 35.8222 21.0046 35.2823 20.4651C35.021 20.2038 34.6723 20.0591 34.3012 20.0578C34.2996 20.0578 34.2977 20.0578 34.2958 20.0578C33.9266 20.0578 33.5792 20.1998 33.3168 20.4582C33.0534 20.7174 32.9076 21.0633 32.9062 21.4315C32.9049 21.7996 33.0483 22.1464 33.3099 22.4077Z" fill="#68BAA5"/>
<path d="M19.3705 7.0651C18.7333 6.71863 18.1361 6.35021 17.5439 5.94634C16.9552 5.54222 16.3767 5.11561 15.8392 4.6078C15.572 4.35178 15.3131 4.07699 15.0849 3.74506C14.9718 3.57765 14.8665 3.39409 14.7871 3.17748C14.7103 2.96325 14.6562 2.69904 14.7122 2.41789C14.7612 2.13543 14.9308 1.88549 15.111 1.72125C15.2969 1.55568 15.4782 1.44804 15.6986 1.35759C15.9162 1.27163 16.1642 1.22455 16.4076 1.24306C16.6505 1.25973 16.8846 1.32929 17.0845 1.43587C17.489 1.64878 17.7769 1.97145 17.986 2.32268C18.1926 2.67656 18.3262 3.07275 18.3352 3.50703C18.3371 3.72337 18.3056 3.95189 18.2094 4.17114C18.1182 4.39093 17.9529 4.59061 17.7569 4.72788C17.5599 4.86594 17.3402 4.93999 17.1317 4.97755C16.9216 5.0151 16.7187 5.01801 16.523 5.00585C16.1335 4.97464 15.769 4.88683 15.4219 4.77257C15.0742 4.65858 14.7412 4.52026 14.4167 4.36924C14.0939 4.21584 13.7745 4.05953 13.4764 3.86672C13.1791 3.67286 12.904 3.44355 12.6723 3.15262C12.6685 3.14786 12.6693 3.14099 12.6741 3.13702C12.6768 3.1349 12.68 3.13437 12.6829 3.13464C13.0527 3.19626 13.3801 3.31766 13.7017 3.44567C14.0211 3.57606 14.3261 3.73184 14.6439 3.85456C14.9596 3.98072 15.2793 4.09259 15.6005 4.17828C15.9213 4.26503 16.2452 4.32057 16.5537 4.32798C16.859 4.33248 17.149 4.27059 17.3205 4.13544C17.4887 4.00452 17.5642 3.79373 17.5482 3.53004C17.5162 3.00795 17.1325 2.42133 16.6867 2.21398C16.4641 2.1103 16.2551 2.1058 16.0476 2.19837C15.9469 2.24254 15.8277 2.32162 15.7576 2.39171C15.6874 2.46576 15.6579 2.52289 15.6515 2.58478C15.6416 2.64561 15.6541 2.7358 15.697 2.8445C15.7402 2.95267 15.8093 3.07222 15.8938 3.19018C16.0658 3.42715 16.2897 3.65858 16.5308 3.87677C17.5052 4.753 18.6997 5.48641 19.8696 6.15132L19.8821 6.15846C20.1328 6.30101 20.2197 6.61813 20.076 6.86674C19.9339 7.11377 19.6198 7.20052 19.3705 7.0651Z" fill="#252122"/>
<path d="M13.1816 27.4127C29.9786 18.9115 36.9773 34.6672 36.9773 34.6672C44.9188 26.166 54.1171 33.0237 54.1171 33.0237C58.4019 20.8388 69.9427 25.4743 69.9427 25.4743C69.9427 25.4743 68.6325 33.874 55.2617 36.5942C55.2617 36.5942 54.733 36.9817 54.4978 37.0475C41.1064 40.8003 27.1194 37.7765 15.9846 29.4971L13.1816 27.4127Z" fill="white"/>
<path d="M36.977 35.1962C36.9477 35.1962 36.9184 35.1938 36.8888 35.189C36.7115 35.1594 36.5614 35.0436 36.4889 34.8806C36.4603 34.8166 33.5526 28.4363 27.2103 26.2019C23.1167 24.7597 18.478 25.3257 13.4235 27.884C13.1614 28.0163 12.8401 27.9134 12.7063 27.6531C12.5725 27.3929 12.6767 27.0745 12.9391 26.9414C18.2695 24.2437 23.1945 23.6605 27.578 25.2085C33.1444 27.1742 36.1532 31.9592 37.1192 33.7608C41.2379 29.7201 45.6224 29.5429 48.6293 30.1385C51.0542 30.6185 52.944 31.6434 53.8508 32.2086C55.2102 28.7283 57.3144 26.3294 60.1117 25.0729C64.8967 22.9234 69.931 24.8988 70.1427 24.9837C70.4157 25.0935 70.5474 25.4019 70.437 25.6724C70.3264 25.943 70.015 26.0739 69.7428 25.9644C69.6697 25.9353 64.8941 24.0805 60.5437 26.0403C57.8583 27.2498 55.8656 29.6579 54.6207 33.1977C54.5648 33.3572 54.4354 33.4805 54.2725 33.5297C54.1099 33.5789 53.9331 33.5477 53.7969 33.4464C53.775 33.43 51.528 31.7817 48.3835 31.1686C44.2237 30.358 40.5177 31.6558 37.3687 35.0266C37.2666 35.1356 37.1242 35.1962 36.977 35.1962Z" fill="#4F8073"/>
</g>
<defs>
<clipPath id="clip0_54_3650">
<rect width="80" height="52" fill="white"/>
</clipPath>
</defs>
</svg>
