<svg width="109" height="109" viewBox="0 0 109 109" fill="none" xmlns="http://www.w3.org/2000/svg">
<g clip-path="url(#clip0_25_2524)">
<path d="M74.1561 104.37C101.915 93.3005 115.446 61.8238 104.376 34.0645C93.3074 6.30511 61.8307 -7.22504 34.0714 3.84404C6.31201 14.9131 -7.21814 46.3898 3.85094 74.1492C14.92 101.909 46.3967 115.439 74.1561 104.37Z" fill="#FFC196"/>
<path d="M16.0398 36.93C9.55982 81.52 55.6998 107.44 75.1398 97.33C94.0998 87.47 95.6598 44.45 78.5098 21.38C63.4798 1.14999 21.2198 1.24999 16.0398 36.93Z" fill="#F47769"/>
<path d="M19.64 38.56C13.79 78.79 55.43 102.19 72.97 93.06C90.08 84.16 91.49 45.34 76.01 24.52C62.45 6.27999 24.32 6.36999 19.64 38.56Z" fill="#8A1E59"/>
<path d="M20.96 39.15C15.34 77.8 55.33 100.26 72.18 91.5C88.62 82.95 89.97 45.67 75.1 25.68C62.07 8.14999 25.45 8.23999 20.96 39.15Z" fill="#571338"/>
<path opacity="0.6" d="M26.7196 41.77C22.1196 73.44 54.8896 91.85 68.6996 84.67C82.1696 77.66 83.2796 47.1 71.0896 30.72C60.4196 16.36 30.4096 16.43 26.7196 41.77Z" fill="#571338"/>
<path d="M66.8398 98.66C66.8398 98.66 69.8599 102.85 72.6199 102.09C75.3799 101.34 74.2798 97.73 74.2798 97.73C74.2798 97.73 75.8098 100.91 78.4898 99.49C81.1698 98.07 78.4898 94.13 78.4898 94.13L66.8398 98.66Z" fill="#F47769"/>
<path d="M59.24 52.41C58.75 54.4 57.08 56.49 53.1 58.63C45.48 62.74 40.79 62.06 36.27 57.54C29.57 61.73 30.41 54.86 32.16 53.77C26.88 50.84 23.12 45.81 23.2 37.94C23.26 31.4 26.27 27.45 30.1 25.14C31.52 24.29 33.05 23.66 34.59 23.21C45.98 19.86 54.44 26.56 55.86 32.84C57.28 39.12 57.03 44.06 58.46 47.33C59.14 48.88 59.69 50.59 59.24 52.41Z" fill="#FDB07B"/>
<path d="M59.24 52.41C58.75 54.39 57.08 56.49 53.1 58.63C45.48 62.74 40.79 62.06 36.27 57.54C29.57 61.73 30.41 54.86 32.16 53.77C26.88 50.84 23.12 45.81 23.2 37.94C23.26 31.4 26.27 27.45 30.1 25.14C22.32 34.23 33.75 54.21 45.22 54.7C53.45 55.04 57.9 54.6 59.24 52.41Z" fill="#F19D70"/>
<path d="M45.3098 45.81C45.7898 46.35 48.4498 44.05 48.0098 43.23C47.5698 42.42 44.8098 45.25 45.3098 45.81Z" fill="#E68A65"/>
<path d="M52.9099 41.1C52.7099 41.84 55.2999 41.73 55.4199 41.16C55.5499 40.6 53.0999 40.41 52.9099 41.1Z" fill="#E68A65"/>
<path d="M45.3696 49.96C48.3196 51.91 50.2696 49.9 50.2096 47.89C49.2696 49.9 45.3696 49.96 45.3696 49.96Z" fill="#E68A65"/>
<path d="M53.8496 46.82C55.2296 48.08 56.5496 47.89 56.5496 45.38C56.1796 47.07 53.8496 46.82 53.8496 46.82Z" fill="#E68A65"/>
<path d="M53.0397 50.27C53.5097 51.21 54.9897 50.4 54.7997 49.58C54.6097 48.77 52.6597 49.52 53.0397 50.27Z" fill="#E68A65"/>
<path d="M61.27 58.25C64.66 52.41 67.17 50.9 70.25 51.78C73.33 52.66 75.65 69.81 75.9 71.63C76.91 70.5 78.16 70.44 78.29 71.19C78.42 71.94 74.9 75.27 73.83 74.02C72.76 72.76 63.97 59.45 63.97 59.45L61.27 58.25Z" fill="#E68A65"/>
<path d="M55.6999 51.49C53.2799 53.91 54.0699 56.64 56.0799 57.27C58.0899 57.9 59.8499 56.08 59.8499 56.08L61.4799 59.35L62.6099 56.84C62.6099 56.84 62.2999 54.7 60.5399 52.69C58.7799 50.67 56.2599 50.92 55.6999 51.49Z" fill="#FDB07B"/>
<path d="M68.8396 70.96C68.2796 74.62 67.6996 77.94 67.6796 79.68C67.6196 84.89 67.9897 93.12 57.1297 91.49C46.2697 89.85 38.1596 81.63 34.1396 72.83L38.4096 61.27L40.6096 59.83C40.6096 59.83 52.2296 56.62 53.8696 57.19C55.4996 57.76 58.6996 62.28 58.6996 62.28C58.6996 62.28 61.9097 54.62 67.3697 54.81C71.0097 54.93 69.9596 63.63 68.8396 70.96Z" fill="#FDB07B"/>
<path d="M68.8396 70.96C68.2796 74.62 67.6996 77.94 67.6796 79.68C67.6196 84.89 67.9897 93.12 57.1297 91.49C46.2697 89.85 38.1596 81.63 34.1396 72.83L38.4096 61.27L40.6096 59.83C40.6096 59.83 52.2296 56.62 53.8696 57.19C55.4996 57.76 58.6996 62.28 58.6996 62.28C56.9396 67.43 56.0696 73.52 57.0096 78.3C53.6196 71.46 50.5996 68.75 50.1596 75.03C50.0296 76.87 49.6496 78.25 49.1596 79.28C48.1196 81.5 48.9196 84.14 51.0496 85.35C54.3596 87.24 58.6696 89.17 61.5296 88.41C66.7396 87.03 66.1796 81.81 64.6096 77.29C63.0396 72.77 63.4097 64.54 64.9797 62.78C65.6497 62.02 67.4096 65.9 68.8396 70.96Z" fill="#F19D70"/>
<path d="M70.6297 60.2C76.2197 56.49 77.3497 50.15 72.6397 46.88C67.9297 43.61 60.3897 44.81 61.3297 39.28C62.2697 33.75 67.8197 30.46 66.9997 25.13C66.1797 19.79 73.0697 24.48 73.1997 27.81C73.3297 31.14 67.3597 34.89 65.4697 37.65C63.5897 40.41 67.6097 42.11 73.6397 44.94C79.6697 47.77 80.7397 56 72.2597 62.91C70.8397 64.06 70.6297 60.2 70.6297 60.2Z" fill="url(#paint0_linear_25_2524)"/>
<path d="M69.0796 94.47C72.1996 94.56 74.2796 97.74 74.2796 97.74C74.2796 97.74 73.1696 93.81 74.2796 92.3C71.8596 91.04 69.0796 94.47 69.0796 94.47Z" fill="#8A1E59"/>
<path d="M67.3598 54.8C71.6898 54.8 73.6398 64.73 74.0198 70.76C74.3998 76.79 74.3998 82.57 74.3998 82.57C74.3998 82.57 75.7798 80.69 76.4698 81.06C77.1598 81.44 74.5198 87.22 72.4498 86.71C70.3798 86.21 67.1698 81.12 65.5998 76.03C64.0298 70.94 64.3398 63.53 65.1598 60.07C65.9798 56.62 67.3598 54.8 67.3598 54.8Z" fill="#FDB07B"/>
<path d="M48.4499 61.2C49.4099 69.28 49.6199 75.78 47.9799 79.31C47.9799 79.32 47.9699 79.33 47.9599 79.34C46.9099 81.55 45.1399 82.57 42.3499 82.06C35.1299 80.74 30.4799 66.55 33.4399 62.9C36.3899 59.26 40.5999 59.82 40.5999 59.82L38.7799 67.04C38.7799 67.04 40.7899 71.63 43.1799 70.43C45.5699 69.23 45.5099 64.59 45.1199 60.51C44.7499 56.42 46.1699 55.93 47.2399 55.86C48.3099 55.8 49.9599 55.3 51.0899 57.37C52.2199 59.44 51.3399 62.52 48.4499 61.2Z" fill="#FDB07B"/>
<path d="M47.9696 79.34C46.9196 81.55 45.1496 82.57 42.3596 82.06C35.1396 80.74 30.4896 66.55 33.4496 62.9C36.3996 59.26 40.6096 59.82 40.6096 59.82L38.7896 67.04C37.2796 64.46 34.7696 63.52 34.2696 67.11C33.7696 70.69 38.4196 79.92 42.8696 80.93C45.8296 81.6 47.2496 80.51 47.9696 79.34Z" fill="#F19D70"/>
<g clip-path="url(#clip1_25_2524)">
<path d="M74.1561 104.37C101.915 93.3005 115.446 61.8238 104.376 34.0645C93.3074 6.30511 61.8307 -7.22504 34.0714 3.84404C6.31201 14.9131 -7.21814 46.3898 3.85094 74.1492C14.92 101.909 46.3967 115.439 74.1561 104.37Z" fill="#FFC196"/>
<path d="M18.2499 34.06C13.5599 76.22 45.8699 109.79 75.7599 96.73C88.5299 91.15 89.5099 77.21 87.0099 66.33C84.5199 55.45 78.4099 47.69 76.7299 42.7C73.3199 32.57 76.2299 14.42 55.2599 8.22998C41.6799 4.21998 20.9099 10.15 18.2499 34.06Z" fill="#F47769"/>
<path d="M64 97.54C54.55 97.88 45.02 93.58 37.15 85.42C24.89 72.71 18.89 53.26 21.1 33.39C23.03 16.08 35.03 9.50998 45.63 9.11998C48.49 9.01998 51.35 9.35998 53.91 10.12C68.14 14.32 69.75 24.1 71.45 34.45C71.99 37.71 72.49 40.78 73.43 43.58C74.19 45.83 75.51 48.26 77.03 51.06C79.52 55.64 82.63 61.34 84.19 68.16C85.62 74.39 87.59 89.48 75.08 94.95C71.49 96.53 67.75 97.4 64 97.54Z" fill="#8A1E59"/>
<path d="M63.9498 95.95C54.9798 96.27 45.8898 92.15 38.3598 84.33C26.4098 71.95 20.5698 52.96 22.7298 33.55C24.5398 17.26 35.7698 11.07 45.6798 10.71C48.3598 10.61 51.0398 10.94 53.4198 11.64C66.6798 15.56 68.1398 24.43 69.8298 34.71C70.3798 38.03 70.8898 41.16 71.8698 44.08C72.6698 46.46 74.0198 48.93 75.5798 51.8C78.0298 56.31 81.0798 61.9 82.5898 68.51C83.9298 74.36 85.8198 88.52 74.4198 93.5C71.0198 95 67.4898 95.82 63.9498 95.95Z" fill="#571338"/>
<path d="M67.79 50.29C70.18 48.96 71.12 45.77 70.05 42.31C68.99 38.85 66.32 37.25 66.32 37.25C66.32 37.25 64.19 38.45 64.72 38.71C65.25 38.98 68.31 40.84 69.11 43.5C69.91 46.16 66.58 47.76 66.58 47.76L67.79 50.29Z" fill="url(#paint1_linear_25_2524)"/>
<path opacity="0.6" d="M63.8098 91.19C56.2898 91.46 48.5298 87.87 41.9798 81.07C30.9898 69.67 25.6298 52.08 27.6398 34.02C29.4998 17.35 42.0298 15.61 45.8298 15.47C47.9698 15.39 50.0798 15.64 51.9498 16.2C61.8598 19.13 63.1698 24.53 64.9698 35.5C65.5498 39.01 66.0898 42.32 67.1898 45.59C68.1198 48.35 69.5498 50.99 71.2198 54.04C73.5398 58.3 76.4198 63.59 77.7898 69.58C78.8698 74.29 80.5098 85.64 72.4398 89.17C69.6098 90.41 66.6998 91.09 63.8098 91.19Z" fill="#571338"/>
<path d="M38.9197 61.2C34.2597 62.13 41.0497 68.12 41.1797 75.97C41.3097 83.82 41.3097 89.94 50.3597 88.61C59.4097 87.28 58.3397 84.35 58.3397 84.35L54.7497 83.29C54.7497 83.29 49.0297 87.55 45.0397 85.42C41.0497 83.29 42.6397 77.04 43.4397 73.71C44.2397 70.38 39.5797 65.06 40.5097 63.2C41.4497 61.34 38.9197 61.2 38.9197 61.2Z" fill="url(#paint2_linear_25_2524)"/>
<path d="M43.31 65.06C41.58 69.72 36.12 68.65 35.59 63.46C35.06 58.27 31.2 57.07 29.47 54.41C27.74 51.75 32.53 45.76 32.53 45.76L30.27 43.9C30.27 43.9 25.47 47.63 26.94 54.01C27.74 57.47 30.4 57.34 32.66 61.86C34.92 66.38 31.73 70.24 37.18 71.57C42.64 72.9 45.56 66.51 45.56 66.51L43.31 65.06Z" fill="url(#paint3_linear_25_2524)"/>
<path d="M67.6599 57.74L54.6199 66.65C53.9799 66.39 53.3599 66.11 52.7599 65.8C51.8599 65.33 50.9899 64.8 50.1799 64.23C43.3999 59.46 39.6599 51.4 37.9099 46.53C37.0299 44.07 36.6499 42.43 36.6499 42.43L37.8199 40.34L38.3399 39.41L39.1299 37.99L39.3499 37.6L47.8199 22.47L58.0699 25.8L59.1699 29.48L60.8699 35.14L61.5399 37.36L65.4899 50.53L66.4999 53.91L67.6599 57.74Z" fill="#F19D70"/>
<path d="M37.9897 20.75C39.9897 14.9 45.4697 12.09 50.7597 13.56C58.2597 15.64 65.1297 25.4 66.7297 28.86C68.3297 32.32 65.7997 35.78 65.7997 35.78C65.7997 35.78 47.4297 21.02 46.7697 20.36C46.0997 19.69 41.3097 24.75 41.3097 24.75L37.9897 20.75Z" fill="#E68A65"/>
<path d="M38.1196 48.16C33.9996 50.56 26.6796 46.56 25.8796 31.53C25.4396 23.29 30.1396 13.17 42.7796 22.75C40.2496 34.46 38.1196 48.16 38.1196 48.16Z" fill="#E68A65"/>
<path d="M66.5899 38.98C62.4699 43.5 56.0799 36.19 50.7599 28.6C45.4399 21.02 41.1799 19.42 39.8499 20.08C39.8499 20.48 39.8499 22.08 38.5199 21.94C37.1899 21.81 37.7199 18.88 38.2499 17.95C38.7799 17.02 41.7099 14.09 43.4399 14.89C45.1699 15.69 49.3799 17.5 52.8899 18.62C54.6599 19.18 57.5099 20.67 60.2899 22.7C60.4199 22.8 60.5599 22.9 60.6899 23C66.3299 27.23 71.4799 33.62 66.5899 38.98Z" fill="url(#paint4_linear_25_2524)"/>
<path d="M51.6896 24.12C50.6596 24.38 51.2496 22.65 51.2896 22.53C51.1896 22.63 50.1596 23.61 48.6296 22.08C48.6296 22.87 48.3496 24.44 47.8596 26.43C47.5696 27.64 47.1896 29 46.7696 30.44C46.1796 32.43 45.4896 34.55 44.7296 36.63C43.9996 38.63 43.2196 40.58 42.4196 42.29H42.4096C40.9496 45.42 39.4296 47.76 38.1096 48.15C37.4596 48.35 36.8596 48.46 36.3296 48.5C29.6396 48.99 31.5596 38.14 33.9496 32.68C35.4796 29.17 38.4096 25.26 41.2596 22.28C44.0296 19.38 46.7196 17.36 47.9696 17.42C50.4996 17.55 52.2296 19.33 52.7596 20.79C53.2896 22.26 52.7496 23.86 51.6896 24.12Z" fill="#FDB07B"/>
<path d="M44.7299 36.64C43.9999 38.64 43.2199 40.59 42.4199 42.3H42.4099C42.0299 42.48 41.6599 42.67 41.3099 42.89C41.3099 44.93 38.9999 45.28 39.8899 42.44C37.2299 43.15 36.9599 42.89 37.1399 42.35C37.3199 41.82 38.4699 41.29 38.4699 41.29C38.4699 41.29 37.0699 41.01 36.6699 40.44C36.5699 40.3 36.5399 40.14 36.6099 39.96C36.7199 39.7 36.9299 39.57 37.1899 39.51C37.7799 39.39 38.5699 39.66 38.6499 39.69C38.6099 39.63 37.9999 38.69 37.9799 38.1C37.9699 38 37.9899 37.91 38.0299 37.83C38.0699 37.76 38.1299 37.72 38.2099 37.7C38.7099 37.61 39.8999 38.54 39.8999 38.54C39.8999 38.54 39.8999 37.3 40.2599 37.03C40.6099 36.76 41.7699 38.63 41.7699 38.63C41.7799 38.63 41.7799 38.62 41.7899 38.62C41.8999 38.52 42.9799 37.65 44.7299 36.64Z" fill="#F19D70"/>
<path d="M68.7198 53.09C67.8798 53.43 67.1498 53.71 66.5098 53.93C62.5098 55.35 62.2398 54.69 62.2398 54.69C62.2398 54.69 62.2098 53.16 61.7798 51.25C61.5298 50.14 61.1498 48.91 60.5598 47.77C57.2898 41.42 48.3198 39.25 42.4598 42.8C42.4598 44.84 40.1498 45.19 41.0398 42.35C38.3798 43.06 38.1098 42.8 38.2898 42.26C38.4698 41.73 39.6198 41.2 39.6198 41.2C39.6198 41.2 38.2098 40.92 37.8198 40.35C37.7198 40.21 37.6898 40.05 37.7598 39.87C37.8698 39.61 38.0798 39.48 38.3398 39.42C38.9298 39.3 39.7198 39.57 39.7998 39.6C39.7598 39.54 39.1498 38.6 39.1298 38.01C39.1198 37.91 39.1398 37.82 39.1798 37.74C39.2198 37.67 39.2798 37.63 39.3598 37.61C39.8498 37.52 41.0498 38.45 41.0498 38.45C41.0498 38.45 41.0498 37.21 41.4098 36.94C41.7598 36.67 42.9198 38.54 42.9198 38.54C42.9298 38.54 42.9298 38.53 42.9398 38.53C43.2298 38.3 47.9198 34.51 54.3698 33.39C56.5598 33.01 58.8298 33.66 60.8998 35.15C65.0898 38.19 68.4798 44.7 68.7198 53.09Z" fill="url(#paint5_linear_25_2524)"/>
<path d="M59.1399 49.76C58.8099 50.29 57.61 50.12 57.08 49.76C55.25 50.63 50.85 48.87 45.66 50.43C40.7 51.92 40.5099 59.11 51.57 60.51C52.3799 60.62 53.25 60.69 54.18 60.72C54.18 60.72 55.1299 62.61 52.7599 65.82C52.4199 66.28 52.0099 66.77 51.5099 67.29C50.7099 67.57 49.88 67.73 49.06 67.78C41.56 68.25 33.86 59.76 34.66 52.56C34.98 49.65 36.11 47.73 37.91 46.55C41.06 44.47 46.28 44.62 52.93 45.64C52.25 44.37 52.96 43.84 53.95 44.31C53.61 43.31 56.01 44.04 56.54 45.11C57.6 44.11 58.79 46.69 57.74 48.04C58.23 48.63 59.4699 49.23 59.1399 49.76Z" fill="url(#paint6_radial_25_2524)"/>
<path d="M66.5099 53.93L67.6499 57.75L54.6099 66.66C53.9699 66.4 53.3499 66.12 52.7499 65.81C52.4099 66.27 51.9999 66.76 51.4999 67.28C50.6999 67.56 49.8699 67.72 49.0499 67.77C49.2699 67.01 49.6599 65.73 50.1699 64.24C50.5599 63.07 51.0399 61.78 51.5599 60.5C52.6199 57.92 54.2499 56.12 55.5899 54.86C57.0699 53.46 59.3199 51.83 61.7799 51.24C63.1399 50.92 64.4499 50.7 65.4999 50.54C65.5099 50.54 65.5299 50.54 65.5399 50.53C66.7799 50.36 67.5999 49.17 67.3199 47.95C66.5599 44.61 64.8099 38.71 61.7999 37.46C58.0699 33.73 50.3099 34.87 42.9199 38.51C43.2099 38.28 47.8999 34.49 54.3499 33.37C56.5399 32.99 58.8099 33.64 60.8799 35.13C65.0899 38.16 68.4799 44.68 68.7199 53.07C67.8799 53.43 67.1499 53.71 66.5099 53.93Z" fill="#F19D70"/>
<path d="M82.4296 77.57C82.3896 78.93 82.2596 80.22 82.0496 81.44C80.5896 90.08 75.1896 95.11 67.6596 95.31C59.1396 95.53 52.0496 88.57 50.4496 78.81C43.3496 82.36 42.6396 72.25 49.7396 71.89C49.7396 68.29 52.0996 60.93 57.0596 56.22C57.7096 55.6 58.4096 55.02 59.1496 54.51C65.5396 50.07 74.0496 52.56 77.0696 55.39C80.0696 58.23 82.7796 66.57 82.4296 77.57Z" fill="#FDB07B"/>
<path d="M67.6599 75.26C68.3699 76.5 71.9899 74.83 71.3899 73.31C71.0299 72.43 66.9499 74.02 67.6599 75.26Z" fill="#E68A65"/>
<path d="M77.24 69.59C77.67 71.31 79.72 68.7 79.37 67.99C79.01 67.28 76.88 68.17 77.24 69.59Z" fill="#E68A65"/>
<path d="M61.0898 72.43C63.0398 69.06 67.8298 68.53 67.8298 68.53C63.3998 66.04 61.2698 69.41 61.0898 72.43Z" fill="#E68A65"/>
<path d="M79.5396 63.77C78.0497 62 74.9096 61.12 73.8896 65.89C73.8896 65.89 77.2397 62.87 79.5396 63.77Z" fill="#E68A65"/>
<path d="M68.7197 62.49C71.7397 61.43 71.3797 65.51 71.0297 66.39C73.5097 62.49 69.7897 58.94 68.7197 62.49Z" fill="#E68A65"/>
<path d="M69.4297 57.88C68.8997 57.17 66.2397 59.48 66.2397 59.48C67.1297 60.72 69.9597 58.59 69.4297 57.88Z" fill="#E68A65"/>
<path d="M82.0496 81.44C80.5896 90.08 75.1896 95.11 67.6596 95.31C59.1396 95.53 52.0496 88.57 50.4496 78.81C43.3496 82.36 42.6396 72.25 49.7396 71.89C49.7396 68.29 52.0996 60.93 57.0596 56.22C51.5296 63.31 49.5296 80.89 59.4096 88.08C68.0096 94.34 78.8796 90.36 82.0496 81.44Z" fill="#F19D70"/>
<path d="M48.8998 74.11L49.2998 76.5C49.2998 76.5 46.8998 79.03 46.5098 76.63C46.0998 74.24 48.8998 74.11 48.8998 74.11Z" fill="#E68A65"/>
<path d="M67.8398 99.11C70.3498 99.2 70.9498 101.59 72.7198 101.34C74.4998 101.09 73.7299 97.53 73.7299 97.53C73.7299 97.53 74.7498 100.21 76.8898 99.58C79.0298 98.95 77.1498 96.11 78.0598 95.55C78.9698 94.99 70.3498 95.63 67.8398 99.11Z" fill="#F47769"/>
<path d="M71.1699 95.75C72.9899 95.56 73.7299 97.53 73.7299 97.53C73.7299 97.53 73.8499 95.76 74.6899 94.3C72.9899 94.18 71.1699 95.75 71.1699 95.75Z" fill="#8A1E59"/>
</g>
</g>
<defs>
<linearGradient id="paint0_linear_25_2524" x1="65.843" y1="46.3885" x2="82.3017" y2="32.1474" gradientUnits="userSpaceOnUse">
<stop stop-color="#F47769"/>
<stop offset="0.1317" stop-color="#DF6A63"/>
<stop offset="0.4032" stop-color="#AA4852"/>
<stop offset="0.7807" stop-color="#571338"/>
</linearGradient>
<linearGradient id="paint1_linear_25_2524" x1="64.6446" y1="43.7737" x2="70.4887" y2="43.7737" gradientUnits="userSpaceOnUse">
<stop stop-color="#F07160"/>
<stop offset="1" stop-color="#DB5746"/>
</linearGradient>
<linearGradient id="paint2_linear_25_2524" x1="49.8553" y1="83.563" x2="46.8394" y2="74.5152" gradientUnits="userSpaceOnUse">
<stop stop-color="#F07160"/>
<stop offset="1" stop-color="#DB5746"/>
</linearGradient>
<linearGradient id="paint3_linear_25_2524" x1="39.0509" y1="68.1987" x2="36.2123" y2="60.2153" gradientUnits="userSpaceOnUse">
<stop stop-color="#F07160"/>
<stop offset="1" stop-color="#DB5746"/>
</linearGradient>
<linearGradient id="paint4_linear_25_2524" x1="39.3869" y1="18.3584" x2="62.742" y2="32.3178" gradientUnits="userSpaceOnUse">
<stop stop-color="#F19D70"/>
<stop offset="1" stop-color="#FDB07B"/>
</linearGradient>
<linearGradient id="paint5_linear_25_2524" x1="60.2765" y1="55.2916" x2="54.422" y2="45.7116" gradientUnits="userSpaceOnUse">
<stop offset="0.2433" stop-color="#F19D70"/>
<stop offset="1" stop-color="#FDB07B"/>
</linearGradient>
<radialGradient id="paint6_radial_25_2524" cx="0" cy="0" r="1" gradientUnits="userSpaceOnUse" gradientTransform="translate(51.1582 63.7321) scale(13.3813)">
<stop offset="0.1278" stop-color="#F19D70"/>
<stop offset="1" stop-color="#FDB07B"/>
</radialGradient>
<clipPath id="clip0_25_2524">
<rect width="108.21" height="108.21" fill="white"/>
</clipPath>
<clipPath id="clip1_25_2524">
<rect width="108.21" height="108.21" fill="white"/>
</clipPath>
</defs>
</svg>
