<svg width="20" height="20" viewBox="0 0 20 20" fill="none" xmlns="http://www.w3.org/2000/svg">
<path d="M1.8959 19.7597C1.40556 19.7882 0.923326 19.6252 0.550889 19.305C-0.18363 18.5662 -0.18363 17.3728 0.550889 16.6339L16.6344 0.5503C17.3984 -0.164567 18.5972 -0.124828 19.3121 0.639136C19.9585 1.32998 19.9962 2.39184 19.4003 3.12673L3.22196 19.305C2.85432 19.6206 2.37982 19.7833 1.8959 19.7597Z" fill="white"/>
<path d="M17.9605 19.7597C17.4636 19.7576 16.9873 19.5603 16.6344 19.2103L0.550797 3.12666C-0.129696 2.33201 -0.0371796 1.13609 0.757478 0.455534C1.46673 -0.151845 2.51274 -0.151845 3.22193 0.455534L19.4002 16.5391C20.164 17.2542 20.2035 18.453 19.4884 19.2168C19.46 19.2472 19.4306 19.2766 19.4002 19.305C19.0041 19.6495 18.4827 19.8142 17.9605 19.7597Z" fill="white"/>
</svg>
