<svg width="100" height="109" viewBox="0 0 100 109" fill="none" xmlns="http://www.w3.org/2000/svg">
<path d="M88.6088 48.1592C88.6706 48.2961 88.6807 48.4375 88.6369 48.5525C88.593 48.6675 88.4988 48.7469 88.3746 48.7734C72.6531 51.9799 56.4942 54.7083 40.3401 56.8831C26.2042 58.7873 11.7185 60.3126 -2.71678 61.4253C-2.84877 61.4353 -2.99445 61.3892 -3.12178 61.2972C-3.24911 61.2052 -3.34767 61.0748 -3.39576 60.9347C-3.44354 60.7949 -3.43717 60.6569 -3.37804 60.551C-3.3189 60.4451 -3.21184 60.3798 -3.08028 60.3695C11.3392 59.2614 25.8055 57.7352 39.9227 55.8294C56.0568 53.6566 72.1968 50.9314 87.9006 47.7292C88.0253 47.704 88.1694 47.7339 88.3016 47.8124C88.4337 47.8908 88.5432 48.0115 88.6063 48.1482L88.6088 48.1592Z" fill="#66B9A3"/>
<path d="M5.64491 60.4726C5.23193 60.0444 0.303827 54.7922 0.820909 48.7104C1.24848 43.737 5.00881 41.8503 5.6498 41.5445C6.47631 42.3082 9.99629 45.689 10.6664 50.0888C11.2217 53.7442 9.51412 56.1513 8.40902 57.7085C7.64702 58.7818 6.71817 59.7106 5.64491 60.4726Z" fill="#66B9A3"/>
<path d="M7.2002 59.257C6.73658 59.7231 6.23459 60.1499 5.69719 60.5351L5.65594 60.5651L5.60757 60.5167C5.05543 59.9442 0.238235 54.7588 0.759501 48.693C1.16551 43.9594 4.57645 41.9813 5.61191 41.4879L5.65003 41.47L5.68826 41.5082C6.9968 42.7167 10.1046 45.9721 10.7344 50.1041C11.2938 53.7823 9.59414 56.177 8.47119 57.7656C8.0885 58.2992 7.66398 58.7974 7.2002 59.257ZM5.63954 60.3858C6.68907 59.6321 7.5992 58.7182 8.34882 57.6653C9.46777 56.0965 11.1502 53.7167 10.5971 50.0839C9.9823 46.0449 6.96426 42.8504 5.64788 41.6274C4.58105 42.1454 1.28153 44.111 0.882029 48.7392C0.379447 54.5861 4.91341 59.6206 5.63954 60.3858Z" fill="#66B9A3"/>
<path d="M16.8223 59.3294C17.2105 60.8104 18.3993 64.5835 21.8463 68.1475C27.6571 74.1568 34.7713 74.2853 35.5685 74.2866C35.4987 73.7401 34.5619 67.2699 28.5066 62.6434C22.8421 58.3075 17.4356 59.2131 16.8223 59.3294Z" fill="#66B9A3"/>
<path d="M35.6405 74.3518L35.5863 74.3519C34.2805 74.3509 27.4764 74.0473 21.8053 68.1862C18.554 64.8246 17.2477 61.1937 16.7583 59.3281L16.7429 59.2738L16.7929 59.2643C17.7843 59.0781 23.0075 58.3625 28.537 62.5905C34.5711 67.2044 35.5404 73.5814 35.6313 74.2934L35.6405 74.3518ZM16.8997 59.3847C17.3967 61.2494 18.6981 64.8109 21.8935 68.1115C27.4363 73.8444 34.0801 74.2117 35.5016 74.223C35.3737 73.2892 34.3237 67.1572 28.4853 62.6916C23.0904 58.5675 17.9935 59.1906 16.8997 59.3847Z" fill="#66B9A3"/>
<path d="M34.9702 57.1087C34.4223 56.532 30.266 52.0533 30.2532 46.3934C30.2434 40.4448 34.8133 38.2817 35.3192 38.0546C35.6811 38.3945 40.6653 43.1835 40.503 49.2367C40.3481 55.1767 35.3818 56.9739 34.9702 57.1087Z" fill="#66B9A3"/>
<path d="M38.149 55.1648C37.2784 56.0463 36.2178 56.7266 35.0117 57.1774L34.9711 57.1911L34.9295 57.1494C34.1401 56.3193 30.1973 51.9082 30.1838 46.375C30.1712 40.4473 34.7564 38.2215 35.2765 37.9916L35.3138 37.9746L35.352 38.0128C35.5722 38.2177 40.7312 43.1154 40.5655 49.2551C40.5027 51.6195 39.6567 53.6884 38.149 55.1648ZM34.978 57.0334C35.6798 56.7815 40.2876 54.9516 40.4407 49.2202C40.5982 43.354 35.8445 38.6359 35.3263 38.1398C34.6576 38.4485 30.3137 40.6781 30.3252 46.418C30.3341 51.8007 34.1184 56.1229 34.978 57.0334Z" fill="#66B9A3"/>
<path d="M52.3769 54.5473C50.9704 54.3794 48.395 50.4093 48.8933 47.3918C49.3359 44.7156 51.9935 43.9745 52.421 43.8641C53.0708 44.9822 54.1249 47.0951 54.2213 49.545C54.312 51.7126 53.6739 54.7124 52.3769 54.5473Z" fill="#66B9A3"/>
<path d="M53.1739 54.3126C52.9933 54.5292 52.7117 54.6397 52.3891 54.6206C51.9265 54.5635 51.348 54.1344 50.7583 53.4106C49.5874 51.9699 48.4843 49.4652 48.8293 47.3702C49.2533 44.8095 51.6626 43.9949 52.3927 43.8069L52.4457 43.7921L52.4799 43.8501C53.5718 45.6958 54.199 47.6734 54.2928 49.5656C54.3558 51.2661 53.9875 53.499 53.1739 54.3126ZM52.3678 54.489C53.6035 54.6388 54.2476 51.7094 54.1581 49.5361C54.0669 47.6879 53.4597 45.7566 52.4021 43.9504C51.6306 44.1596 49.3627 44.9834 48.962 47.4265C48.6227 49.4798 49.7043 51.9341 50.8529 53.3474C51.4031 54.0231 51.9557 54.44 52.3689 54.4901L52.3678 54.489Z" fill="#66B9A3"/>
<path d="M56.9324 53.8156C56.631 57.383 58.5935 61.3766 61.8608 63.8922C66.3737 67.3666 70.782 66.0465 71.0005 65.9765C70.8209 65.1979 69.8019 61.084 65.8073 57.6086C61.7557 54.0847 57.6716 53.8456 56.9324 53.8156Z" fill="#66B9A3"/>
<path d="M71.0762 66.0267L71.0345 66.0392C70.8485 66.0993 66.4154 67.471 61.8308 63.9402C58.5104 61.3833 56.5608 57.3992 56.8654 53.7926L56.8697 53.7478L56.9165 53.7505C58.0331 53.7946 61.9801 54.2021 65.8417 57.5631C69.6568 60.8827 70.8042 64.8435 71.0648 65.9796L71.0762 66.0267ZM56.9943 53.8842C56.7138 57.4284 58.632 61.3336 61.8861 63.8377C66.2279 67.1817 70.4335 66.0644 70.9215 65.9161C70.6429 64.7348 69.4882 60.8804 65.7698 57.6439C62.0008 54.3704 58.1587 53.9389 56.9943 53.8842Z" fill="#66B9A3"/>
<path d="M75.5197 50.4852C74.5289 53.5769 75.697 57.4921 78.4619 60.3842C80.9594 62.9971 84.3974 64.3973 87.4207 64.0507C86.8118 61.1834 85.3349 58.3303 83.1992 55.8955C81.0634 53.4607 78.3771 51.5676 75.5206 50.4843" fill="#66B9A3"/>
<path d="M87.4969 64.1117L87.4456 64.118C85.9645 64.2976 84.3478 64.0499 82.7616 63.4004C81.1755 62.751 79.6772 61.7233 78.4209 60.423C75.6175 57.4907 74.4559 53.5734 75.4558 50.4501L75.4723 50.4021L75.5275 50.4234C78.3976 51.5128 81.0964 53.4154 83.2423 55.8618C85.3882 58.3083 86.8725 61.1748 87.4853 64.0559L87.4969 64.1117ZM75.568 50.5674C74.6074 53.6401 75.7571 57.4725 78.5032 60.3475C79.7337 61.6209 81.2 62.629 82.7529 63.2692C84.3057 63.9095 85.8898 64.1591 87.3439 63.9926C86.7298 61.1584 85.2654 58.3416 83.155 55.9355C81.0447 53.5295 78.3938 51.6543 75.5725 50.5719L75.568 50.5674Z" fill="#66B9A3"/>
<path d="M78.9519 35.7054C75.4345 35.624 72.8041 37.692 72.2933 40.9244C71.8317 43.8446 73.1653 47.2907 75.7519 49.9112C77.8642 48.618 79.31 46.5501 79.8843 44.0005C80.4586 41.4508 80.1324 38.5488 78.9519 35.7054Z" fill="#66B9A3"/>
<path d="M77.4298 48.6741C76.9397 49.1658 76.3937 49.5997 75.7979 49.9709L75.7569 49.9961L75.712 49.9511C73.0984 47.3036 71.7626 43.8349 72.2277 40.8979C72.7456 37.62 75.3785 35.5562 78.938 35.6338L78.9924 35.6356L79.0157 35.6911C80.2488 38.695 80.5445 41.7554 79.858 44.4083C79.4132 46.0745 78.5863 47.5273 77.4298 48.6741ZM75.7487 49.8266C77.8286 48.5376 79.2519 46.4897 79.8195 43.9694C80.3872 41.449 80.0707 38.5821 78.9145 35.7698C75.437 35.7114 72.8668 37.7395 72.3581 40.9519C72.1436 42.387 72.3444 43.9641 72.9399 45.5229C73.5355 47.0817 74.5045 48.5666 75.7487 49.8266Z" fill="#66B9A3"/>
<path d="M95.2727 48.938C92.7376 46.167 89.2271 44.6639 86.2389 45.0744C82.0961 45.6453 81.2415 49.5792 81.1774 49.8884C81.9849 50.4057 85.6847 52.6734 89.7925 52.1285C92.0987 51.8069 94.0213 50.6876 95.2727 48.938Z" fill="#66B9A3"/>
<path d="M94.531 49.9271C93.3131 51.1577 91.6875 51.9399 89.8182 52.1949C85.9753 52.7044 82.4762 50.7917 81.1539 49.9412L81.103 49.9089L81.1124 49.859C81.147 49.6849 82.0046 45.5928 86.2134 45.0099C89.1991 44.6019 92.7752 46.1249 95.316 48.9015L95.3598 48.9453L95.3267 48.9784C95.0866 49.3168 94.8209 49.6336 94.531 49.9271ZM81.2531 49.869C82.6018 50.7223 86.018 52.5604 89.7659 52.0628C92.0418 51.7459 93.9425 50.6472 95.1873 48.9289C92.6884 46.223 89.1919 44.7373 86.2655 45.14C82.3125 45.6853 81.3628 49.3746 81.2531 49.869Z" fill="#66B9A3"/>
</svg>
