<svg width="102" height="100" viewBox="0 0 102 100" fill="none" xmlns="http://www.w3.org/2000/svg">
<path d="M7.313 31.4884C7.32788 31.3256 7.39302 31.1871 7.49428 31.1031C7.59553 31.0191 7.72471 30.9963 7.85372 31.0398C24.1106 36.6824 40.5207 43.0154 56.6347 49.8662C70.7359 55.86 84.9617 62.4027 98.9232 69.3056C99.0507 69.3689 99.1614 69.4924 99.2309 69.649C99.3004 69.8056 99.3229 69.9825 99.2937 70.1407V70.1407C99.2642 70.2985 99.1856 70.4247 99.075 70.4917C98.9644 70.5587 98.8308 70.5611 98.7035 70.4983C84.759 63.5999 70.5508 57.0687 56.466 51.0867C40.3717 44.245 23.9807 37.9194 7.74259 32.2826C7.61372 32.2376 7.49593 32.1301 7.41483 31.9836C7.33374 31.8371 7.29589 31.6633 7.30953 31.5001L7.313 31.4884Z" fill="#66B9A3"/>
<path d="M90.6733 65.5967C90.8302 66.2268 92.628 73.8784 88.9433 79.3116C85.9257 83.7519 81.4471 83.455 80.692 83.3896C80.3287 82.2165 78.8493 77.0996 80.5474 72.5941C81.9596 68.8517 84.8106 67.5289 86.6553 66.6734C87.927 66.0839 89.2772 65.7221 90.6733 65.5967V65.5967Z" fill="#66B9A3"/>
<path d="M88.5916 65.8832C89.2668 65.7003 89.9569 65.5754 90.6578 65.5093L90.7119 65.5038L90.7312 65.5759C90.941 66.4181 92.6712 73.9459 88.9911 79.3617C86.1199 83.5885 81.9168 83.57 80.6973 83.4637L80.6526 83.4595L80.6373 83.4025C80.0618 81.5458 78.8982 76.7738 80.4926 72.5423C81.913 68.7761 84.75 67.4606 86.6278 66.5855C87.2637 66.2945 87.9196 66.0599 88.5916 65.8832V65.8832ZM90.6326 65.6813C89.2628 65.812 87.9379 66.1701 86.6883 66.7472C84.8247 67.606 82.0115 68.9168 80.6091 72.6369C79.0499 76.7727 80.1625 81.438 80.7375 83.3127C81.999 83.4132 86.0923 83.382 88.9019 79.2508C92.4494 74.0305 90.902 66.8006 90.6326 65.6813V65.6813Z" fill="#66B9A3"/>
<path d="M79.7144 60.5167C80.1353 58.9105 81.0225 54.7086 79.7073 49.4597C77.4907 40.6102 70.9667 36.5719 70.2288 36.1316C70.0054 36.6839 67.4631 43.2827 70.635 50.9669C73.5981 58.1625 79.0848 60.2882 79.7144 60.5167Z" fill="#66B9A3"/>
<path d="M70.1965 36.0307L70.2467 36.0603C71.4561 36.7804 77.6005 40.8126 79.7657 49.4458C81.0063 54.3966 80.3029 58.5296 79.773 60.5531L79.7586 60.6126L79.7074 60.594C78.6906 60.2231 73.4739 58.0197 70.5791 50.9998C67.42 43.3392 69.8832 36.8101 70.1742 36.0906L70.1965 36.0307ZM79.6718 60.422C80.1941 58.3952 80.8656 54.3301 79.6446 49.4675C77.5306 41.0254 71.5684 37.0216 70.2573 36.2282C69.8836 37.1766 67.6244 43.5198 70.6802 50.9332C73.5051 57.7813 78.5561 60.0022 79.6718 60.422Z" fill="#66B9A3"/>
<path d="M61.7289 52.6111C61.9326 53.455 63.4229 59.9545 60.4516 65.2827C57.3252 70.8808 51.9509 70.398 51.3624 70.3328C51.2062 69.814 49.1124 62.567 52.4532 56.9654C55.7277 51.466 61.2765 52.5112 61.7289 52.6111Z" fill="#66B9A3"/>
<path d="M57.7591 52.6882C59.0304 52.3389 60.3716 52.2833 61.7267 52.5236L61.7716 52.5332L61.7882 52.5952C62.0821 53.8103 63.4102 60.1286 60.5062 65.3382C57.3935 70.9182 51.9719 70.4859 51.3688 70.4156L51.3253 70.4111L51.31 70.3541C51.214 70.0402 49.0155 62.5948 52.4051 56.9136C53.7095 54.7253 55.5839 53.2461 57.7591 52.6882V52.6882ZM61.682 52.6776C60.8991 52.528 55.6652 51.711 52.5024 57.0152C49.2645 62.4436 51.1822 69.497 51.4008 70.2489C52.1831 70.3268 57.3831 70.6227 60.3979 65.2199C63.2268 60.1544 61.9986 54.007 61.682 52.6776Z" fill="#66B9A3"/>
<path d="M44.2507 45.434C45.4654 46.3664 45.759 51.5171 43.7068 54.0797C41.8862 56.352 39.0332 55.5854 38.5789 55.4537C38.5661 54.0446 38.7032 51.4777 39.9052 49.1214C40.9636 47.0336 43.1361 44.5646 44.2507 45.434Z" fill="#66B9A3"/>
<path d="M43.3884 45.2157C43.67 45.1116 43.9891 45.1628 44.2779 45.3584V45.3584C44.6764 45.6667 44.9862 46.3888 45.1512 47.394C45.4767 49.3932 45.1786 52.3555 43.7547 54.1351C42.0121 56.3092 39.3504 55.7483 38.5749 55.523L38.5179 55.5077L38.5168 55.4343C38.478 53.0979 38.9392 50.8931 39.8496 49.0626C40.6875 47.4292 42.2057 45.5326 43.3884 45.2157ZM44.2283 45.4939C43.1623 44.6725 41.0214 47.072 39.9589 49.1645C39.0692 50.9523 38.6138 53.1024 38.6418 55.3829C39.4669 55.611 42.0024 56.0854 43.6614 54.0091C45.058 52.2656 45.3495 49.3625 45.0302 47.4013C44.8766 46.4631 44.5843 45.7669 44.2278 45.4922L44.2283 45.4939Z" fill="#66B9A3"/>
<path d="M39.644 43.6134C41.8036 40.4255 42.0902 35.5901 40.3888 31.4259C38.0387 25.6743 33.2584 24.4879 33.019 24.4334C32.7751 25.2643 31.5508 29.6932 33.4202 35.1602C35.3168 40.7044 38.9749 43.1781 39.644 43.6134Z" fill="#66B9A3"/>
<path d="M32.9754 24.3445L33.0207 24.3557C33.2247 24.4017 38.0551 25.5531 40.4419 31.3972C42.1708 35.6296 41.8773 40.4488 39.6941 43.6719L39.6664 43.7116L39.6244 43.6833C38.6132 43.027 35.1708 40.4704 33.3644 35.1841C31.5793 29.9623 32.6038 25.6067 32.9612 24.395L32.9754 24.3445ZM39.6229 43.5148C41.7508 40.3372 42.0319 35.6093 40.3367 31.4632C38.0764 25.9284 33.5908 24.663 33.0605 24.5337C32.6959 25.7977 31.7343 30.0573 33.4736 35.1477C35.2404 40.3008 38.5728 42.8222 39.6229 43.5148Z" fill="#66B9A3"/>
<path d="M20.6665 36.5091C23.2142 34.1481 24.1955 29.8238 23.1581 25.5823C22.2213 21.7504 19.7738 18.5408 16.7899 17.2019C15.8427 20.233 15.7073 23.7286 16.4028 27.1938C17.0984 30.659 18.5896 33.918 20.6653 36.5095" fill="#66B9A3"/>
<path d="M16.7513 17.1026L16.8022 17.1249C18.2691 17.7717 19.6366 18.8948 20.7639 20.3788C21.8913 21.8628 22.7378 23.6541 23.2165 25.5684C24.2684 29.869 23.28 34.1915 20.7072 36.5773L20.6666 36.6133L20.6267 36.5629C18.5417 33.9582 17.0438 30.6834 16.345 27.2017C15.6462 23.72 15.7819 20.2076 16.7327 17.1615L16.7513 17.1026ZM20.6651 36.4053C23.1747 34.0454 24.1294 29.8092 23.1004 25.5941C22.6315 23.7192 21.8042 21.9641 20.7029 20.507C19.6016 19.05 18.2654 17.9431 16.8303 17.2989C15.9054 20.3016 15.7776 23.7563 16.4648 27.1804C17.152 30.6046 18.6198 33.8273 20.6633 36.3986L20.6651 36.4053Z" fill="#66B9A3"/>
<path d="M9.69624 48.5146C12.9124 50.5281 16.4397 50.0322 18.6167 47.2745C20.5836 44.7833 21.1643 40.809 20.149 36.921C17.5101 36.9736 15.0806 38.1217 13.2046 40.2025C11.3285 42.2833 10.1011 45.1913 9.69624 48.5146" fill="#66B9A3"/>
<path d="M17.9421 37.1601C18.6553 36.9677 19.39 36.8605 20.1377 36.8395L20.1889 36.8384L20.2069 36.9055C21.233 40.8338 20.6424 44.8305 18.6634 47.3357C16.4558 50.1321 12.9285 50.6227 9.67134 48.5896L9.62188 48.5579L9.62959 48.493C10.0703 44.9898 11.4095 41.9497 13.4439 39.8336C14.7342 38.512 16.2661 37.6015 17.9421 37.1601V37.1601ZM20.1073 37.0023C17.5007 37.0688 15.1025 38.2104 13.2481 40.2674C11.3937 42.3244 10.1759 45.1939 9.76481 48.4747C12.9561 50.4445 16.4065 49.9531 18.5711 47.2131C19.5262 45.9819 20.1715 44.3886 20.4413 42.5951C20.7111 40.8017 20.5959 38.872 20.1073 37.0023V37.0023Z" fill="#66B9A3"/>
<path d="M1.54889 27.0865C2.43726 31.0877 4.89761 34.434 7.88272 35.6936C12.0222 37.4381 14.8874 34.2102 15.1098 33.9547C14.6343 33.0237 12.4015 28.8545 8.30827 27.1047C6.00193 26.1371 3.63051 26.1307 1.54889 27.0865V27.0865Z" fill="#66B9A3"/>
<path d="M2.75743 26.5651C4.53458 26.0788 6.45306 26.2385 8.31947 27.0281C12.1486 28.6653 14.3826 32.3903 15.1595 33.9181L15.1897 33.9765L15.1546 34.0182C15.0308 34.1628 12.0793 37.5378 7.87234 35.7682C4.89094 34.5077 2.38021 31.1066 1.48959 27.0971L1.47207 27.0317L1.52017 27.0188C1.92103 26.8329 2.33423 26.6813 2.75743 26.5651V26.5651ZM15.0295 33.9313C14.2296 32.3864 12.0332 28.7771 8.29835 27.1811C6.02249 26.2258 3.6823 26.2121 1.62328 27.1421C2.5124 31.0622 4.96893 34.3844 7.89269 35.6172C11.8427 37.2813 14.6673 34.3357 15.0295 33.9313Z" fill="#66B9A3"/>
</svg>
