<svg width="20" height="20" viewBox="0 0 20 20" fill="none" xmlns="http://www.w3.org/2000/svg">
<mask id="mask0_9_1404" style="mask-type:alpha" maskUnits="userSpaceOnUse" x="2" y="0" width="16" height="21">
<path d="M10 16C10.5304 16 11.0391 15.7893 11.4142 15.4142C11.7893 15.0391 12 14.5304 12 14C12 12.89 11.1 12 10 12C9.46957 12 8.96086 12.2107 8.58579 12.5858C8.21071 12.9609 8 13.4696 8 14C8 14.5304 8.21071 15.0391 8.58579 15.4142C8.96086 15.7893 9.46957 16 10 16ZM16 7C16.5304 7 17.0391 7.21071 17.4142 7.58579C17.7893 7.96086 18 8.46957 18 9V19C18 19.5304 17.7893 20.0391 17.4142 20.4142C17.0391 20.7893 16.5304 21 16 21H4C3.46957 21 2.96086 20.7893 2.58579 20.4142C2.21071 20.0391 2 19.5304 2 19V9C2 7.89 2.9 7 4 7H5V5C5 3.67392 5.52678 2.40215 6.46447 1.46447C7.40215 0.526784 8.67392 0 10 0C10.6566 0 11.3068 0.129329 11.9134 0.380602C12.52 0.631876 13.0712 1.00017 13.5355 1.46447C13.9998 1.92876 14.3681 2.47995 14.6194 3.08658C14.8707 3.69321 15 4.34339 15 5V7H16ZM10 2C9.20435 2 8.44129 2.31607 7.87868 2.87868C7.31607 3.44129 7 4.20435 7 5V7H13V5C13 4.20435 12.6839 3.44129 12.1213 2.87868C11.5587 2.31607 10.7956 2 10 2Z" fill="#5F5F5F"/>
</mask>
<g mask="url(#mask0_9_1404)">
<rect width="20" height="20" fill="white"/>
</g>
</svg>
