<svg width="78" height="59" viewBox="0 0 78 59" fill="none" xmlns="http://www.w3.org/2000/svg">
<path d="M6.65697 11.2752L34.541 28.267L63.2022 42.8476" stroke="#FBDCAB" stroke-miterlimit="10"/>
<path d="M29.5865 25.8357C29.5865 25.8357 30.0709 20.5521 33.504 18.2513C36.9346 15.942 42.0116 17.4872 42.0116 17.4872C42.0116 17.4872 41.5271 22.7708 38.0941 25.0716C34.6579 27.3778 29.5865 25.8357 29.5865 25.8357Z" fill="#EB6A7C"/>
<path d="M10.3244 14.2784C10.3244 14.2784 10.8088 8.99477 14.2363 6.69094C17.667 4.38159 22.7439 5.92677 22.7439 5.92677C22.7439 5.92677 22.2595 11.2104 18.8264 13.5112C15.4013 15.8236 10.3244 14.2784 10.3244 14.2784Z" fill="#E1364F"/>
<path d="M41.7149 32.194C41.7149 32.194 41.9925 29.1659 43.9593 27.8478C45.926 26.5297 48.8331 27.4149 48.8331 27.4149C48.8331 27.4149 48.5555 30.443 46.5887 31.7611C44.6219 33.0792 41.7149 32.194 41.7149 32.194Z" fill="#EB3952"/>
<path d="M61.2075 41.7204C61.2075 41.7204 64.6904 41.4639 67.1915 43.434C69.6927 45.4041 70.2621 48.8498 70.2621 48.8498C70.2621 48.8498 66.7792 49.1063 64.2781 47.1362C61.7769 45.166 61.2075 41.7204 61.2075 41.7204Z" fill="#F05860"/>
<path d="M18.8167 18.7308C18.8167 18.7308 23.1862 21.7427 23.5136 25.8649C23.8441 29.9815 20.0114 33.6534 20.0114 33.6534C20.0114 33.6534 15.6419 30.6415 15.3144 26.5193C14.9839 22.4027 18.8167 18.7308 18.8167 18.7308Z" fill="#EB3952"/>
<path d="M44.6347 33.0729C44.6347 33.0729 48.0227 35.6352 48.305 39.101C48.5841 42.5723 45.6445 45.636 45.6445 45.636C45.6445 45.636 42.2565 43.0737 41.9742 39.6079C41.695 36.1366 44.6347 33.0729 44.6347 33.0729Z" fill="#EB6A7C"/>
<path d="M57.9881 39.7241C57.9881 39.7241 58.3937 35.4986 61.2031 33.4424C64.0126 31.3862 68.1684 32.2837 68.1684 32.2837C68.1684 32.2837 67.7628 36.5092 64.9534 38.5654C62.1385 40.6184 57.9881 39.7241 57.9881 39.7241Z" fill="#F74A63"/>
<path d="M58.1395 40.0892C58.1395 40.0892 54.743 42.6353 54.4499 46.1044C54.1569 49.5735 57.0867 52.6547 57.0867 52.6547C57.0867 52.6547 60.4833 50.1086 60.7763 46.6395C61.0638 43.1672 58.1395 40.0892 58.1395 40.0892Z" fill="#EB3952"/>
</svg>
