<svg width="38" height="38" viewBox="0 0 38 38" fill="none" xmlns="http://www.w3.org/2000/svg">
<path d="M34.7204 32.0514L32.0019 27.5199C30.7463 25.4284 30.0829 23.0328 30.0829 20.5944V16.625C30.0829 11.6138 26.7389 7.37519 22.1662 6.00875V3.16669C22.1662 1.42025 20.7459 0 18.9995 0C17.253 0 15.8328 1.42025 15.8328 3.16669V6.00875C11.2602 7.37519 7.91617 11.6138 7.91617 16.625V20.5944C7.91617 23.0328 7.25273 25.4267 5.99873 27.5184L3.28017 32.0499C3.13292 32.2953 3.12973 32.5993 3.27067 32.8479C3.41161 33.0964 3.67286 33.2501 3.95786 33.2501H34.0412C34.3262 33.2501 34.589 33.0965 34.7299 32.8495C34.8709 32.6024 34.8661 32.2952 34.7204 32.0514Z" fill="#68BAA5"/>
<path d="M14.0137 34.8333C14.9067 36.6985 16.7972 38 18.9995 38C21.2019 38 23.0925 36.6985 23.9855 34.8333H14.0137Z" fill="#68BAA5"/>
</svg>
