<svg width="81" height="61" viewBox="0 0 81 61" fill="none" xmlns="http://www.w3.org/2000/svg">
<path d="M6.23203 10.6388L36.3499 28.9918L67.3071 44.7404" stroke="#68BAA5" stroke-miterlimit="10"/>
<path d="M34.427 28.1766C34.427 28.1766 34.9004 23.0138 38.2549 20.7656C41.6072 18.5091 46.568 20.0189 46.568 20.0189C46.568 20.0189 46.0947 25.1818 42.7401 27.4299C39.3825 29.6835 34.427 28.1766 34.427 28.1766Z" fill="#68BAA5"/>
<path d="M15.6048 16.8835C15.6048 16.8835 16.0781 11.7206 19.4273 9.46947C22.7795 7.21291 27.7404 8.72277 27.7404 8.72277C27.7404 8.72277 27.2671 13.8857 23.9125 16.1338C20.5656 18.3934 15.6048 16.8835 15.6048 16.8835Z" fill="#68BAA5"/>
<path d="M46.2779 34.3896C46.2779 34.3896 46.5492 31.4307 48.4711 30.1427C50.3929 28.8547 53.2335 29.7198 53.2335 29.7198C53.2335 29.7198 52.9622 32.6786 51.0404 33.9666C49.1186 35.2546 46.2779 34.3896 46.2779 34.3896Z" fill="#68BAA5"/>
<path d="M65.3253 43.6982C65.3253 43.6982 68.7285 43.4476 71.1725 45.3726C73.6165 47.2977 74.1729 50.6646 74.1729 50.6646C74.1729 50.6646 70.7696 50.9153 68.3257 48.9902C65.8817 47.0651 65.3253 43.6982 65.3253 43.6982Z" fill="#68BAA5"/>
<path d="M23.9032 21.2341C23.9032 21.2341 28.1728 24.1772 28.4928 28.2051C28.8157 32.2277 25.0706 35.8156 25.0706 35.8156C25.0706 35.8156 20.8009 32.8726 20.481 28.8446C20.158 24.8221 23.9032 21.2341 23.9032 21.2341Z" fill="#68BAA5"/>
<path d="M49.1309 35.2484C49.1309 35.2484 52.4415 37.7522 52.7173 41.1387C52.9901 44.5307 50.1176 47.5244 50.1176 47.5244C50.1176 47.5244 46.8071 45.0206 46.5313 41.634C46.2585 38.2421 49.1309 35.2484 49.1309 35.2484Z" fill="#68BAA5"/>
<path d="M62.1794 41.7475C62.1794 41.7475 62.5757 37.6186 65.3209 35.6095C68.0661 33.6003 72.127 34.4772 72.127 34.4772C72.127 34.4772 71.7307 38.6061 68.9855 40.6153C66.2349 42.6215 62.1794 41.7475 62.1794 41.7475Z" fill="#68BAA5"/>
<path d="M62.3273 42.1043C62.3273 42.1043 59.0083 44.5922 58.722 47.982C58.4357 51.3718 61.2985 54.3825 61.2985 54.3825C61.2985 54.3825 64.6174 51.8947 64.9038 48.5049C65.1847 45.112 62.3273 42.1043 62.3273 42.1043Z" fill="#68BAA5"/>
</svg>
