<svg width="75" height="72" viewBox="0 0 75 72" fill="none" xmlns="http://www.w3.org/2000/svg">
<path d="M66 63.0537L41.0679 38.1076L14.7051 15.4941" stroke="#68BAA5" stroke-miterlimit="10"/>
<path d="M42.7441 39.3539C42.7441 39.3539 41.065 44.259 37.2744 45.6514C33.4841 47.0525 29.02 44.4139 29.02 44.4139C29.02 44.4139 30.6992 39.5088 34.4898 38.1164C38.2846 36.7195 42.7441 39.3539 42.7441 39.3539Z" fill="#68BAA5"/>
<path d="M58.367 54.7723C58.367 54.7723 56.6879 59.6774 52.9018 61.074C49.1115 62.4751 44.6475 59.8365 44.6475 59.8365C44.6475 59.8365 46.3266 54.9314 50.1172 53.539C53.903 52.1336 58.367 54.7723 58.367 54.7723Z" fill="#68BAA5"/>
<path d="M32.6954 30.5181C32.6954 30.5181 31.7331 33.3293 29.5615 34.127C27.3899 34.9247 24.8339 33.4134 24.8339 33.4134C24.8339 33.4134 25.7962 30.6022 27.9678 29.8045C30.1394 29.0068 32.6954 30.5181 32.6954 30.5181Z" fill="#68BAA5"/>
<path d="M16.385 16.9749C16.385 16.9749 13.0188 16.4148 11.0985 13.9671C9.17825 11.5193 9.43269 8.11623 9.43269 8.11623C9.43269 8.11623 12.7989 8.67632 14.7191 11.1241C16.6394 13.5719 16.385 16.9749 16.385 16.9749Z" fill="#68BAA5"/>
<path d="M51.3309 48.5851C51.3309 48.5851 47.877 44.7171 48.5173 40.7275C49.1533 36.7425 53.6399 34.1404 53.6399 34.1404C53.6399 34.1404 57.0937 38.0084 56.4535 41.998C55.8175 45.983 51.3309 48.5851 51.3309 48.5851Z" fill="#68BAA5"/>
<path d="M30.1258 29.0099C30.1258 29.0099 27.5001 25.7951 28.0318 22.4392C28.5677 19.0788 32.0658 16.8481 32.0658 16.8481C32.0658 16.8481 34.6915 20.0628 34.1598 23.4187C33.6239 26.7792 30.1258 29.0099 30.1258 29.0099Z" fill="#68BAA5"/>
<path d="M18.9814 19.6133C18.9814 19.6133 17.6213 23.5318 14.4793 24.8359C11.3372 26.14 7.59828 24.3289 7.59828 24.3289C7.59828 24.3289 8.95841 20.4104 12.1004 19.1063C15.247 17.8064 18.9814 19.6133 18.9814 19.6133Z" fill="#68BAA5"/>
<path d="M18.9218 19.2317C18.9218 19.2317 22.7344 17.5979 23.8131 14.3716C24.8918 11.1452 22.8209 7.54363 22.8209 7.54363C22.8209 7.54363 19.0084 9.17737 17.9297 12.4037C16.8555 15.6343 18.9218 19.2317 18.9218 19.2317Z" fill="#68BAA5"/>
</svg>
