<svg width="414" height="499" viewBox="0 0 414 499" fill="none" xmlns="http://www.w3.org/2000/svg">
<g clip-path="url(#clip0_172_435)">
<path opacity="0.1" d="M345 477C288 381 147.33 430.33 31 337C-7.34 306.24 -29.97 261 -43 214.05V500H361.06C355.48 493.21 350.1 485.58 345 477Z" fill="#F78A9A"/>
<path d="M40.67 141.275V113.655C35.81 122.725 37.73 130.245 39.61 141.765C41.96 156.185 37.5 170.035 30.26 182.415C25.67 190.265 22.34 197.735 20.04 206.265C15.04 224.765 25.73 240.365 30.01 257.945C30.01 257.945 42.68 205.275 59.34 190.615L77 174.445L88.88 141.275H40.67Z" fill="#252122"/>
<path d="M136.78 89.0551C142.11 85.4451 147.58 80.4851 148.95 74.5151C149.24 73.2551 147.26 72.9251 146.97 74.1851C145.4 81.0651 137.45 86.5351 131.71 89.8751C131.64 89.9151 131.57 89.9651 131.52 90.0151C133.2 89.4151 135 89.1151 136.78 89.0551Z" fill="#68BAA5"/>
<path d="M139.73 72.3251C142.42 76.4851 147.29 75.9851 151.51 75.1951C155.07 74.5251 160.05 74.9151 161.97 71.2351C162.95 69.3451 161.37 69.0551 160.3 67.9751C160.92 64.4551 159.4 60.9951 155.23 61.1851C152.55 61.3051 153.36 61.8151 152.06 59.5451C151.11 57.8951 149.95 57.1451 148.02 56.6951C146.42 56.3251 144.16 56.2751 142.6 57.1151C140.2 58.4151 140.96 59.5851 141.49 61.7651C142.5 65.8351 136.59 67.4651 139.73 72.3251Z" fill="#B32D3F"/>
<path d="M145.51 62.6451C147.44 60.7951 148.1 55.9651 151.07 55.1451C153.25 54.5451 155.39 55.8351 154.92 58.4651C158.88 58.1151 164.24 60.9251 159.11 64.9051C153.76 69.0551 148.69 64.3851 147.01 59.4151" fill="#D13349"/>
<path d="M157.44 68.4251C156.36 71.2651 154.38 76.6051 150.76 76.9451C146.36 77.3451 143.17 71.0351 143.53 67.3351C144.5 57.3351 161.74 57.1851 157.44 68.4251Z" fill="#EB3952"/>
<path d="M152.67 66.4851C148.89 68.2251 147.68 79.2051 153.65 72.0751C155.54 69.8251 157.99 64.0251 152.67 66.4851Z" fill="#EB6A7C"/>
<path d="M147.64 70.6951C147.54 70.9751 147.45 71.2751 147.39 71.6051C147.17 72.7251 148.2 74.3651 146.85 74.9551C142.5 76.8651 139.06 59.2151 145.59 58.5451C148.4 58.2551 149.79 61.3851 150.19 63.6751C150.81 67.2251 148.57 68.0951 147.64 70.6951Z" fill="#F74A63"/>
<path d="M155.74 65.3751C152.19 66.1051 149.14 58.7651 154.8 61.2551C156 61.7851 157.99 64.9051 155.74 65.3751Z" fill="#EB6A7C"/>
<path d="M152.39 72.8451C153.92 72.0151 154.27 69.9451 155.63 68.8951C157.03 67.8051 159.41 66.6851 161.03 67.2151C162.79 67.8051 162.81 68.9451 162.47 70.5651C161.95 73.0651 161.02 73.2851 159.16 74.6651C157.36 76.0151 157.92 77.8551 156.79 79.1751C155.73 80.4051 152.82 80.2151 151.4 79.6351C149.86 79.0051 146.15 76.6551 146.05 74.7551C145.91 71.8351 150.65 73.7851 152.39 72.8451Z" fill="#B32D3F"/>
<path d="M141.21 75.7851C143.8 78.1551 152 75.6451 148.3 72.0451C147.59 71.3451 146.87 71.5951 146.06 71.0051C144.86 70.1351 144.85 69.4951 144.18 68.1651C142.58 64.9651 138.61 61.5851 135.03 64.6751C133.76 65.7751 132.47 68.0751 133.2 69.5651C134.02 71.2151 135.62 70.7151 136.87 71.0551C139.91 71.8951 139.29 74.0251 141.21 75.7851Z" fill="#EB3952"/>
<path d="M64.72 87.1451C58.47 85.5851 51.13 84.8351 45.77 87.8051C44.64 88.4351 45.72 90.1251 46.85 89.4951C53.02 86.0651 62.4 88.3351 68.72 90.3751C68.8 90.4051 68.88 90.4151 68.95 90.4251C67.38 89.5651 65.96 88.4351 64.72 87.1451Z" fill="#68BAA5"/>
<path d="M50.3 96.1251C51.6 91.3451 47.97 88.0551 44.57 85.4451C41.7 83.2451 38.66 79.2751 34.63 80.3051C32.56 80.8351 33.41 82.2051 33.32 83.7251C30.29 85.6151 28.72 89.0551 31.65 92.0351C33.53 93.9551 33.37 93.0051 32.55 95.4951C31.96 97.3051 32.17 98.6651 33.13 100.405C33.92 101.845 35.4 103.555 37.07 104.155C39.64 105.075 40 103.735 41.27 101.875C43.63 98.3951 48.79 101.705 50.3 96.1251Z" fill="#B32D3F"/>
<path d="M39.24 98.2951C36.57 98.0951 32.54 100.835 29.94 99.1651C28.03 97.9451 27.57 95.4951 29.84 94.0851C26.94 91.3651 25.44 85.5051 31.83 86.6651C38.49 87.8751 38.4 94.7651 35.83 99.3351" fill="#D13349"/>
<path d="M35.57 85.5451C38.41 84.4551 43.7 82.3551 46.37 84.8351C49.61 87.8351 47.05 94.4251 44.05 96.6351C35.97 102.595 24.34 89.8551 35.57 85.5451Z" fill="#EB3952"/>
<path d="M37.31 90.3951C41.14 92.0451 50.11 85.6051 40.81 85.9251C37.89 86.0251 31.93 88.0751 37.31 90.3951Z" fill="#EB6A7C"/>
<path d="M43.81 91.3251C44.09 91.2151 44.37 91.0751 44.66 90.9051C45.64 90.3251 46.18 88.4551 47.51 89.0651C51.84 91.0351 41 105.375 36.14 100.965C34.05 99.0651 35.45 95.9451 36.88 94.1151C39.1 91.2851 41.25 92.3751 43.81 91.3251Z" fill="#F74A63"/>
<path d="M34.44 88.8551C37.35 91.0051 33.93 98.1851 32 92.3051C31.59 91.0551 32.59 87.4951 34.44 88.8551Z" fill="#EB6A7C"/>
<path d="M42.23 86.3551C40.59 85.7651 38.82 86.8951 37.12 86.5851C35.37 86.2651 32.95 85.2451 32.26 83.6851C31.52 81.9851 32.36 81.2151 33.79 80.3751C35.99 79.0951 36.78 79.6351 39.06 80.0951C41.27 80.5351 42.26 78.8851 44 78.8451C45.62 78.8151 47.43 81.1051 47.94 82.5451C48.5 84.1051 49.23 88.4451 47.88 89.7851C45.82 91.8551 44.1 87.0151 42.23 86.3551Z" fill="#B32D3F"/>
<path d="M51.89 92.7151C51.93 89.2051 44.58 84.7751 44.37 89.9351C44.33 90.9351 45 91.3051 45.09 92.2951C45.24 93.7651 44.77 94.2051 44.23 95.5951C42.91 98.9251 43.06 104.135 47.75 104.735C49.42 104.945 51.99 104.375 52.61 102.825C53.29 101.115 51.85 100.255 51.27 99.0951C49.86 96.2751 51.87 95.3151 51.89 92.7151Z" fill="#EB3952"/>
<path d="M193 364.275C193 364.275 198.67 366.605 196.67 368.275C194.67 369.945 189.34 370.945 189.34 370.945" fill="#FFD3BA"/>
<path d="M118.44 160.975C118.44 160.975 106.27 174.105 110.19 189.575C110.19 189.575 86.83 195.575 85.33 195.215C83.83 194.855 84.03 172.725 83.84 161.215C83.66 149.705 87.52 128.145 87.52 128.145C87.52 128.145 104.51 131.315 106.05 133.365" fill="#FFBE99"/>
<path d="M77 174.445C79.08 175.275 101.58 190.285 109.54 187.365C113.19 196.295 117.33 205.055 121.81 213.595C125.36 220.345 128.92 227.205 133.72 233.175C140.17 241.205 148.39 247.755 154.9 255.905C158.67 260.615 157.05 278.505 152.83 275.935C156.75 278.435 160.55 281.115 164.18 284.015C185.68 301.195 201.4 330.635 195.26 358.735C193.29 367.735 188.93 380.375 182.02 386.835C165.1 401.595 146.85 413.035 139.28 435.235C136.56 443.215 133.92 451.235 131.29 459.245C126.61 473.515 121.54 487.835 117.99 502.445L65.49 498.945C65.49 498.945 66.49 428.945 62.99 420.445C58.56 409.685 50.65 402.325 45.99 391.445C37.99 372.765 41.32 351.945 60.66 333.945C67.41 327.665 76.49 310.445 69.99 298.945C63.49 287.445 61.05 285.435 61.05 285.435C61.05 285.435 29.67 293.435 22.33 278.935L21.94 276.735C21.94 276.735 37.49 240.935 38.99 229.935C40.49 218.935 67 170.445 77 174.445Z" fill="#FFC2C2"/>
<path opacity="0.3" d="M100.67 249.945C100.67 249.945 105.34 235.945 101.34 237.275C97.34 238.605 78.01 229.275 78.01 229.275C60.02 222.585 47.81 222.185 41.21 222.825C40.01 225.825 39.23 228.305 39.01 229.945C38.46 234.005 35.98 241.465 33.08 249.245C55.91 242.665 100.67 249.945 100.67 249.945Z" fill="#F74A63"/>
<g opacity="0.4">
<path opacity="0.4" d="M98.27 243.635C98.27 243.635 94.01 241.485 96.12 239.105C96.12 239.105 98.71 236.865 100.12 242.265" fill="#F05860"/>
<path opacity="0.4" d="M99.33 244.615C99.33 244.615 95.96 248.005 94.36 245.265C94.36 245.265 93.03 242.105 98.61 242.435" fill="#F05860"/>
<path opacity="0.4" d="M100.6 243.905C100.6 243.905 102.78 248.155 99.68 248.835C99.68 248.835 96.27 249.125 98.3 243.925" fill="#F05860"/>
<path opacity="0.4" d="M102.89 242.555C101.68 242.265 100.31 242.485 100.31 242.485L99.62 244.675C100.55 245.435 101.31 245.885 101.94 246.105C102.29 244.935 102.57 243.735 102.89 242.555Z" fill="#F05860"/>
<path opacity="0.4" d="M98.87 242.315C98.87 242.315 99.6 237.595 102.51 238.865C102.51 238.865 105.44 240.635 100.74 243.645" fill="#F05860"/>
</g>
<path opacity="0.3" d="M109.54 187.365C101.58 190.285 79.08 175.275 77 174.445C75.55 173.865 73.76 174.395 71.75 175.735C73.09 178.155 74.91 180.485 77.34 182.605C88.6 192.455 103.47 192.405 111.31 191.505C110.71 190.135 110.11 188.755 109.54 187.365Z" fill="#EB3952"/>
<path opacity="0.3" d="M161.36 281.825C158.6 279.745 155.75 277.795 152.83 275.935C155.42 277.515 157.03 271.365 157.01 265.305C153.85 272.425 147.05 282.405 134.22 280.375L136.66 285.285C136.67 285.275 148.62 281.935 161.36 281.825Z" fill="#EB3952"/>
<path d="M100.79 345.655C98.16 344.885 63.85 329.615 63.33 329.945C14.88 375.805 -16.45 463.955 -28 500.945H174.32C175.35 499.855 176.26 498.675 177.02 497.395C186.67 481.215 172.56 450.305 170.75 432.905C168.51 411.425 175.35 399.935 187.13 382.505C194.39 371.775 193.19 361.535 196.63 349.525C163.95 354.115 132.94 355.115 100.79 345.655Z" fill="#FFC2C2"/>
<path opacity="0.2" d="M61.06 285.435C61.06 285.435 63.5 287.445 70 298.945C74.09 306.175 72.01 315.665 68.23 323.275L70.67 321.945C70.67 321.945 110.67 365.945 127.34 377.275C127.34 377.275 137.56 391.845 136.39 395.735L139.64 390.875L142.42 402.165L148.68 398.615C148.68 398.615 153.61 406.095 158.26 407.195C165.63 400.145 173.99 393.865 182.04 386.835C186.61 382.565 190.06 375.595 192.44 368.755C189.37 373.745 185.07 379.945 182.67 379.945C182.67 379.945 170 383.275 172.67 379.945C175.34 376.615 184.67 371.275 184.67 371.275L180.67 368.605L184.87 366.605C184.87 366.605 178.67 367.275 176 366.605C173.33 365.935 163.33 358.605 153.33 359.275C143.33 359.945 140 357.275 136.66 349.945C133.33 342.615 109.99 315.945 107.33 310.615C104.66 305.285 97.33 290.615 97.33 290.615C97.33 290.615 103.33 289.945 103.33 287.945C103.33 285.945 100 261.275 100.66 249.945C100.66 249.945 97.74 278.535 96.87 283.235C95.99 287.945 95.45 283.555 95.45 283.555L80 287.275L68.25 274.085C68.25 274.085 58.65 268.645 47.32 276.625L53 261.595C53 261.595 44 276.615 38 275.275C32 273.945 21.95 276.745 21.95 276.745L22.34 278.945C29.68 293.435 61.06 285.435 61.06 285.435Z" fill="#EB3952"/>
<path d="M68 336.615C68 336.615 67.44 337.905 66.45 340.155C65.96 341.285 65.33 342.635 64.59 344.185C63.86 345.735 63.04 347.485 62.07 349.365C60.18 353.135 57.91 357.505 55.44 362.165C54.21 364.495 52.94 366.905 51.66 369.355C50.37 371.805 49.13 374.315 47.88 376.825C46.66 379.355 45.41 381.865 44.31 384.395C43.14 386.895 42.17 389.435 41.17 391.865C40.3 394.345 39.33 396.695 38.65 399.005C38.28 400.155 37.93 401.265 37.58 402.345C37.29 403.435 37.01 404.495 36.74 405.515C36.16 407.535 35.79 409.435 35.43 411.105C35.25 411.945 35.08 412.725 34.93 413.445C34.82 414.175 34.71 414.845 34.62 415.455C34.23 417.885 34.01 419.275 34.01 419.275C34.01 419.275 34.16 417.875 34.43 415.435C34.5 414.825 34.58 414.145 34.66 413.405C34.79 412.675 34.92 411.885 35.07 411.035C35.36 409.345 35.66 407.425 36.2 405.385C36.45 404.355 36.7 403.285 36.97 402.175C37.29 401.085 37.62 399.955 37.96 398.785C38.59 396.445 39.5 394.055 40.37 391.555C41.36 389.105 42.31 386.545 43.47 384.015C44.56 381.465 45.79 378.925 47 376.375C48.28 373.865 49.54 371.345 50.85 368.915C52.16 366.475 53.45 364.075 54.7 361.755C57.21 357.115 59.64 352.845 61.6 349.105C62.6 347.245 63.5 345.535 64.28 344.025C65.08 342.515 65.76 341.185 66.29 340.075C67.37 337.865 68 336.615 68 336.615Z" fill="white"/>
<path d="M166.67 401.275C166.67 401.275 166.49 401.785 166.18 402.685C166 403.125 165.84 403.685 165.66 404.315C165.46 404.935 165.28 405.655 165.08 406.445C164.86 407.225 164.7 408.085 164.5 408.985C164.32 409.895 164.17 410.855 163.99 411.845C163.67 413.835 163.4 415.975 163.16 418.125C162.93 420.275 162.69 422.425 162.47 424.445C162.25 426.465 161.98 428.345 161.74 429.955C161.51 431.565 161.21 432.895 161.02 433.825C160.8 434.745 160.67 435.275 160.67 435.275C160.67 435.275 160.73 434.735 160.82 433.795C160.94 432.855 161.03 431.505 161.18 429.885C161.33 428.265 161.43 426.375 161.6 424.355C161.75 422.325 161.95 420.165 162.17 418.005C162.31 416.925 162.43 415.845 162.6 414.785C162.74 413.725 162.95 412.685 163.13 411.685C163.33 410.685 163.55 409.715 163.79 408.815C164.04 407.915 164.26 407.055 164.54 406.275C164.78 405.495 165.04 404.785 165.31 404.175C165.56 403.555 165.78 403.025 166 402.605C166.42 401.765 166.67 401.275 166.67 401.275Z" fill="white"/>
<path d="M147.33 431.275C147.31 430.875 147.27 430.475 147.26 430.075L147.29 428.865C147.34 428.465 147.37 428.055 147.44 427.655L147.59 427.055C147.65 426.855 147.67 426.655 147.75 426.465C147.9 426.085 148.02 425.685 148.2 425.315C148.4 424.955 148.56 424.565 148.79 424.225L149.14 423.715C149.26 423.545 149.37 423.365 149.51 423.215L150.32 422.285L150.92 421.595L151.11 422.505L151.53 424.525C151.61 425.205 151.69 425.895 151.75 426.575C151.77 427.265 151.75 427.955 151.75 428.635C151.75 428.975 151.68 429.315 151.64 429.665L151.51 430.685C151.47 431.025 151.37 431.355 151.29 431.695L151.03 432.695C150.94 433.025 150.79 433.335 150.67 433.665L150.29 434.625C150.15 434.935 149.97 435.235 149.8 435.525L149.28 436.405C148.87 436.945 148.42 437.465 147.98 437.975C148.31 437.385 148.67 436.815 149 436.245L149.39 435.325C149.51 435.015 149.67 434.735 149.78 434.415L150.06 433.465C150.15 433.145 150.27 432.845 150.32 432.515L150.49 431.545C150.53 431.215 150.63 430.905 150.65 430.575C150.7 429.915 150.76 429.265 150.79 428.615C150.78 427.955 150.79 427.305 150.76 426.645L150.56 424.685L150.19 422.745L151 422.945L150.2 423.785C150.06 423.915 149.96 424.085 149.84 424.235L149.49 424.695C149.25 424.995 149.07 425.335 148.86 425.655C148.66 425.985 148.52 426.345 148.35 426.695C148.26 426.865 148.22 427.055 148.15 427.235L147.96 427.785L147.67 428.925L147.48 430.095C147.44 430.485 147.38 430.885 147.33 431.275Z" fill="white"/>
<path d="M149.33 389.945C149.33 389.945 148.63 391.165 147.42 393.305C146.19 395.435 144.46 398.495 142.41 402.165C141.39 404.005 140.29 406.005 139.18 408.145C138.05 410.275 136.94 412.565 135.79 414.925C134.66 417.295 133.56 419.775 132.51 422.325C131.49 424.885 130.54 427.515 129.7 430.175C128.86 432.845 128.15 435.545 127.58 438.235C127.02 440.925 126.66 443.605 126.42 446.215C126.23 448.825 126.16 451.355 126.24 453.755C126.29 454.955 126.38 456.115 126.48 457.245C126.63 458.365 126.71 459.455 126.91 460.485C127.24 462.555 127.65 464.435 128.08 466.095C128.31 466.915 128.5 467.695 128.72 468.405C128.95 469.105 129.16 469.755 129.35 470.335C129.72 471.505 130.1 472.395 130.32 473.015C130.55 473.635 130.67 473.965 130.67 473.965C130.67 473.965 130.53 473.645 130.27 473.045C130.02 472.435 129.58 471.575 129.17 470.405C128.96 469.825 128.72 469.185 128.46 468.495C128.22 467.795 127.99 467.025 127.73 466.205C127.23 464.565 126.75 462.675 126.37 460.595C126.14 459.555 126.04 458.455 125.86 457.335C125.73 456.205 125.61 455.025 125.53 453.815C125.38 451.395 125.38 448.825 125.57 446.175C125.79 443.535 126.14 440.815 126.68 438.075C127.24 435.345 127.93 432.605 128.76 429.905C129.63 427.215 130.61 424.565 131.66 421.995C132.73 419.435 133.86 416.945 135.02 414.575C137.34 409.825 139.8 405.555 141.93 401.915C144.07 398.275 145.96 395.315 147.26 393.235C148.58 391.125 149.33 389.945 149.33 389.945Z" fill="white"/>
<path d="M140.67 385.945C140.67 385.945 140.63 386.285 140.55 386.865C140.51 387.155 140.45 387.515 140.39 387.925C140.33 388.335 140.27 388.795 140.1 389.285C139.96 389.775 139.8 390.315 139.63 390.885C139.48 391.465 139.22 392.015 138.98 392.615C138.72 393.195 138.51 393.835 138.19 394.415C137.88 395.015 137.58 395.615 137.27 396.225C136.59 397.395 135.92 398.585 135.22 399.635C134.53 400.705 133.88 401.685 133.3 402.515C132.72 403.345 132.24 404.035 131.9 404.525C131.56 405.005 131.35 405.275 131.35 405.275C131.35 405.275 131.48 404.965 131.73 404.425C131.99 403.895 132.32 403.105 132.81 402.215C133.75 400.415 135.1 398.075 136.4 395.735C136.71 395.145 137.03 394.555 137.34 393.975C137.66 393.395 137.92 392.805 138.19 392.245C138.44 391.675 138.76 391.145 138.95 390.615C139.17 390.085 139.37 389.585 139.56 389.125C139.96 388.205 140.17 387.365 140.37 386.815C140.55 386.265 140.67 385.945 140.67 385.945Z" fill="white"/>
<path d="M120 368.615C120 368.615 120.02 368.975 120.07 369.655C120.1 369.995 120.12 370.405 120.1 370.905C120.1 371.395 120.1 371.965 120.03 372.595C119.86 375.125 119.05 378.705 117.39 382.725C116.58 384.735 115.6 386.875 114.6 389.145C113.58 391.395 112.64 393.825 111.63 396.335C110.66 398.855 109.73 401.465 108.89 404.165C108.45 405.505 108.1 406.895 107.7 408.265C107.32 409.645 107.02 411.045 106.68 412.445C106.37 413.845 106.11 415.255 105.82 416.655C105.61 418.065 105.39 419.475 105.18 420.865C105.04 422.265 104.86 423.655 104.76 425.035C104.69 426.415 104.57 427.785 104.55 429.125C104.54 430.465 104.5 431.795 104.52 433.085C104.56 434.375 104.58 435.645 104.64 436.875C104.73 438.105 104.82 439.305 104.91 440.465C105.04 441.625 105.18 442.735 105.3 443.805C105.41 444.875 105.61 445.895 105.75 446.865C105.91 447.835 106.02 448.765 106.2 449.625C106.55 451.345 106.81 452.855 107.1 454.085C107.67 456.545 108 457.945 108 457.945C108 457.945 107.6 456.555 106.91 454.125C106.57 452.905 106.25 451.405 105.83 449.695C105.47 447.975 105.05 446.025 104.74 443.875C104.59 442.805 104.43 441.685 104.27 440.525C104.16 439.355 104.04 438.155 103.91 436.915C103.82 435.675 103.77 434.395 103.7 433.085C103.64 431.775 103.69 430.445 103.68 429.085C103.69 427.725 103.8 426.345 103.86 424.945C103.95 423.545 104.12 422.145 104.25 420.725C104.45 419.315 104.66 417.885 104.86 416.455C105.14 415.035 105.39 413.605 105.7 412.195C106.06 410.785 106.37 409.375 106.76 407.985C107.18 406.605 107.53 405.205 107.99 403.855C108.86 401.145 109.83 398.495 110.82 395.975C111.83 393.475 112.85 391.045 113.93 388.805C114.99 386.555 116.01 384.455 116.86 382.475C118.59 378.525 119.57 375.045 119.83 372.545C119.92 371.925 119.95 371.365 119.97 370.875C120.01 370.385 120.01 369.975 120 369.635C120 368.975 120 368.615 120 368.615Z" fill="white"/>
<path d="M60.98 271.905C60.98 271.905 67.5 307.445 85.5 326.945C85.5 326.945 100.5 345.945 115.94 362.025C120.55 366.835 131.08 377.925 135 378.945C135 378.945 144.63 400.735 164.5 402.945C166.82 403.205 167.28 401.875 169.94 401.575C169.94 401.575 177.53 401.075 176.51 398.015C176.51 398.015 184.39 391.555 181.19 389.755C181.19 389.755 183.82 389.005 182.88 387.345C181.94 385.685 186.66 386.855 187.31 384.695C187.96 382.545 187.7 383.925 187.7 383.925C187.7 383.925 190.14 376.795 188.57 375.865L183.33 383.275L181.94 386.485C181.94 386.485 171.95 385.155 168.72 379.795C168.72 379.795 167.48 373.495 173.24 373.215C173.24 373.215 186.23 376.265 184.87 366.595C184.87 366.595 177.5 369.935 173 367.435C173 367.435 162.72 361.235 155.4 362.615C155.4 362.615 147.44 366.225 142.22 361.585C137 356.945 111 336.445 93.5 283.445C93.5 283.445 80.09 279.945 60.98 271.905Z" fill="#FFD3BA"/>
<path d="M140.67 385.945L137.34 377.945C137.34 377.945 118.67 367.945 81.34 319.275C81.34 319.275 66.67 297.275 66.67 281.275C66.67 281.275 87.07 289.235 95.19 288.385C94.62 286.765 94.05 285.125 93.5 283.445C93.5 283.445 80.09 279.945 60.98 271.905C60.98 271.905 67.5 307.445 85.5 326.945C85.5 326.945 100.5 345.945 115.94 362.025C120.55 366.835 131.08 377.925 135 378.945C135 378.945 144.63 400.735 164.5 402.945C164.5 402.945 142 391.945 140.67 385.945Z" fill="#FFBE99"/>
<path d="M141.17 88.0251C141.17 88.0251 147.56 103.245 141.97 119.345C141.97 119.345 140.13 122.325 141.98 128.915L146.01 139.455C146.01 139.455 146.93 142.755 141.08 143.405C141.08 143.405 137.65 147.025 138.16 149.205C138.67 151.375 137.66 152.505 135.74 153.065C135.74 153.065 138.59 155.795 136.16 156.925C133.73 158.055 132.23 158.375 132.15 160.065C132.07 161.755 130.82 167.955 128.56 168.435C126.3 168.915 122.12 168.975 116.67 165.285C111.23 161.585 99.91 151.335 99.91 151.335C99.91 151.335 95.97 145.945 98.39 137.985C98.39 137.985 92.53 140.005 94.45 133.965C96.37 127.925 102.22 123.175 102.22 123.175C102.22 123.175 100.7 111.185 106.55 106.435C112.4 101.675 133.71 79.7451 141.17 88.0251Z" fill="#FFD3BA"/>
<path d="M139.22 145.795C140.06 144.465 141.08 143.395 141.08 143.395C146.94 142.745 146.01 139.445 146.01 139.445C146.01 139.445 138.66 142.605 137.33 142.605C136.38 142.615 138.13 144.635 139.22 145.795Z" fill="#FFC196"/>
<path d="M135.33 95.9451C136.14 101.065 139.88 105.745 144.06 109.505C145.16 97.5551 141.16 88.0251 141.16 88.0251C133.7 79.7451 112.4 101.675 106.54 106.425C100.69 111.175 102.21 123.165 102.21 123.165C102.21 123.165 100.29 124.725 98.29 127.195C104.78 125.015 111.33 125.945 111.33 125.945L119.33 125.275C119.33 125.275 118 117.945 120.55 114.925C123.11 111.915 135.33 95.9451 135.33 95.9451Z" fill="#FFC196"/>
<path opacity="0.3" d="M120 148.945C124.971 148.945 129 144.916 129 139.945C129 134.975 124.971 130.945 120 130.945C115.029 130.945 111 134.975 111 139.945C111 144.916 115.029 148.945 120 148.945Z" fill="#E6461E"/>
<path d="M97.78 278.005C97.9 278.785 98.02 279.515 98.12 280.185C98.23 280.855 98.39 281.465 98.5 282.015C98.66 282.865 98.88 283.555 99.05 284.095C99.07 284.075 99.09 284.055 99.12 284.035C98.99 283.495 98.82 282.815 98.69 281.975C98.6 281.415 98.46 280.815 98.39 280.135C98.31 279.465 98.23 278.735 98.14 277.955C98.1 277.175 98.05 276.345 98 275.465C97.99 274.585 97.98 273.665 97.98 272.705C98.03 270.785 98.13 268.695 98.4 266.505C98.63 264.315 99.01 262.015 99.41 259.635C100.25 254.885 101.42 249.875 102.59 244.845C103.7 239.805 104.8 234.745 105.44 229.935C105.79 227.535 105.96 225.185 106.04 222.955C106.1 220.725 106.05 218.615 105.86 216.675C105.81 215.705 105.62 214.785 105.51 213.905C105.37 213.025 105.16 212.215 105 211.435C104.6 209.905 104.21 208.585 103.78 207.535C103.42 206.455 102.99 205.675 102.74 205.125C102.48 204.575 102.34 204.285 102.34 204.285C102.34 204.285 102.46 204.585 102.69 205.145C102.91 205.705 103.28 206.525 103.6 207.595C103.98 208.655 104.31 209.985 104.64 211.505C104.93 213.045 105.18 214.785 105.31 216.705C105.45 218.625 105.44 220.705 105.32 222.905C105.18 225.105 104.94 227.415 104.58 229.795C103.9 234.565 102.77 239.585 101.61 244.605C100.49 249.635 99.35 254.685 98.55 259.465C97.74 264.245 97.39 268.785 97.42 272.675C97.44 273.645 97.48 274.575 97.53 275.465C97.62 276.375 97.7 277.215 97.78 278.005Z" fill="white"/>
<path d="M21.95 276.745C21.95 276.745 22.26 276.745 22.85 276.755C23.44 276.785 24.31 276.725 25.4 276.845C26.5 276.935 27.83 277.035 29.36 277.155C30.89 277.185 32.62 277.225 34.5 277.265C36.39 277.335 38.43 277.485 40.56 277.405C41.09 277.395 41.63 277.325 42.17 277.285C42.7 277.205 43.26 277.125 43.77 277.005C44.3 276.845 44.9 276.745 45.4 276.525C45.9 276.295 46.42 276.145 46.92 275.835C47.94 275.315 48.93 274.655 49.97 274.005C50.47 273.675 51.03 273.365 51.56 273.055C52.12 272.775 52.69 272.465 53.31 272.265C55.8 271.445 58.44 271.485 60.97 271.895C63.51 272.315 65.93 273.145 68.24 274.075C70.55 275.005 72.76 276.065 74.89 277.095C79.13 279.165 83.03 281.205 86.58 282.385C88.35 282.985 90.02 283.395 91.53 283.585C93.04 283.795 94.37 283.705 95.45 283.535C95.99 283.435 96.47 283.355 96.87 283.215C97.28 283.095 97.63 282.995 97.89 282.865C98.43 282.635 98.72 282.515 98.72 282.515C98.72 282.515 98.44 282.655 97.91 282.915C97.65 283.065 97.31 283.185 96.9 283.325C96.5 283.495 96.02 283.605 95.48 283.725C94.4 283.935 93.04 284.095 91.49 283.945C89.95 283.825 88.22 283.475 86.41 282.905C82.77 281.775 78.76 279.895 74.51 277.855C72.38 276.845 70.18 275.815 67.9 274.915C65.62 274.025 63.24 273.235 60.81 272.855C58.41 272.435 55.86 272.405 53.62 273.125C51.4 273.915 49.48 275.525 47.32 276.595C46.81 276.895 46.2 277.095 45.64 277.335C45.07 277.565 44.52 277.635 43.97 277.785C43.37 277.905 42.82 277.965 42.25 278.035C41.69 278.055 41.13 278.115 40.58 278.115C38.39 278.135 36.35 277.925 34.47 277.805C33.54 277.725 32.63 277.725 31.78 277.675C30.92 277.615 30.1 277.555 29.33 277.505C27.81 277.315 26.48 277.155 25.39 277.015C24.3 276.855 23.43 276.845 22.85 276.785C22.26 276.765 21.95 276.745 21.95 276.745Z" fill="white"/>
<path d="M48.75 274.575C48.75 274.575 48.82 274.155 48.95 273.415C49.01 273.045 49.11 272.605 49.24 272.095C49.36 271.585 49.49 271.005 49.7 270.395C50.07 269.155 50.56 267.735 51.14 266.245C51.74 264.765 52.38 263.185 53.02 261.605C53.66 260.035 54.22 258.445 54.69 256.935C54.88 256.175 55.13 255.445 55.27 254.735C55.45 254.035 55.56 253.355 55.65 252.735C55.76 252.105 55.8 251.535 55.86 251.015C55.93 250.505 55.95 250.055 55.95 249.675C55.99 248.925 56.01 248.505 56.01 248.505C56.01 248.505 56.07 248.925 56.15 249.675C56.19 250.045 56.23 250.505 56.23 251.025C56.24 251.545 56.28 252.145 56.2 252.785C56.16 253.435 56.1 254.135 55.98 254.865C55.89 255.605 55.72 256.365 55.53 257.165C55.31 257.945 55.12 258.765 54.82 259.555C54.55 260.365 54.24 261.165 53.94 261.965C53.29 263.555 52.61 265.115 51.95 266.575C51.32 268.035 50.68 269.385 50.23 270.575C49.77 271.765 49.36 272.745 49.15 273.465C48.89 274.165 48.75 274.575 48.75 274.575Z" fill="white"/>
<path d="M156.27 270.365C156.26 270.385 156.25 270.405 156.24 270.415C155.97 270.885 155.66 271.405 155.26 271.945C155.06 272.215 154.88 272.505 154.66 272.785C154.43 273.055 154.18 273.335 153.94 273.615C153.7 273.905 153.42 274.175 153.13 274.445C152.83 274.705 152.56 275.015 152.25 275.275C151.61 275.795 150.96 276.335 150.23 276.805C149.54 277.315 148.74 277.705 147.98 278.135C147.18 278.505 146.4 278.895 145.58 279.165C144.78 279.495 143.95 279.685 143.16 279.925C142.35 280.065 141.58 280.305 140.82 280.375C140.44 280.425 140.08 280.475 139.72 280.515C139.36 280.545 139.02 280.545 138.69 280.565C138.02 280.605 137.42 280.605 136.88 280.575C136.34 280.575 135.86 280.545 135.47 280.485C134.69 280.405 134.24 280.355 134.24 280.355C134.24 280.355 134.68 280.475 135.44 280.675C135.82 280.785 136.29 280.865 136.84 280.945C137.12 280.985 137.41 281.025 137.72 281.075C138.03 281.115 138.36 281.105 138.7 281.125C139.04 281.135 139.4 281.155 139.77 281.155C140.14 281.135 140.52 281.115 140.91 281.095C141.7 281.085 142.51 280.915 143.36 280.785C144.19 280.565 145.07 280.415 145.91 280.075C146.78 279.805 147.6 279.405 148.44 279.025C149.24 278.565 150.06 278.145 150.78 277.595C151.55 277.105 152.19 276.485 152.85 275.925C153.45 275.305 154.05 274.725 154.51 274.075C154.74 273.755 154.97 273.455 155.19 273.155C155.4 272.855 155.57 272.535 155.75 272.245C155.92 271.945 156.1 271.675 156.24 271.395C156.35 271.145 156.45 270.905 156.55 270.675C156.43 270.585 156.35 270.475 156.27 270.365Z" fill="white"/>
<path opacity="0.3" d="M168.63 375.625C168.63 375.625 168.6 375.695 168.55 375.835C168.5 375.975 168.4 376.165 168.33 376.425C168.24 376.675 168.17 376.985 168.13 377.345C168.1 377.705 168.11 378.105 168.2 378.535C168.29 378.955 168.48 379.385 168.73 379.805C169 380.215 169.34 380.625 169.74 380.995C170.55 381.735 171.56 382.405 172.63 382.945C173.16 383.225 173.71 383.475 174.26 383.705C174.81 383.925 175.36 384.155 175.9 384.335C176.98 384.715 178.01 385.005 178.9 385.225C179.79 385.435 180.55 385.575 181.09 385.625C181.63 385.675 181.94 385.675 181.94 385.675C181.94 385.675 181.64 385.765 181.09 385.825C180.54 385.865 179.75 385.895 178.81 385.795C176.93 385.605 174.45 384.995 172.17 383.835C171.04 383.245 169.96 382.515 169.12 381.625C168.27 380.745 167.7 379.635 167.63 378.625C167.59 378.125 167.66 377.665 167.76 377.285C167.87 376.905 168.01 376.595 168.15 376.345C168.27 376.095 168.42 375.935 168.5 375.815C168.59 375.685 168.63 375.625 168.63 375.625Z" fill="#E6461E"/>
<path opacity="0.3" d="M161.57 383.505C161.57 383.505 161.94 383.665 162.58 383.965C163.21 384.265 164.12 384.725 165.16 385.345C166.2 385.955 167.41 386.665 168.7 387.425C169.36 387.775 170.02 388.165 170.72 388.495C171.41 388.865 172.14 389.145 172.86 389.435C173.56 389.725 174.32 389.855 175.08 389.985C175.84 390.105 176.6 390.195 177.33 390.235C178.78 390.295 180.2 390.255 181.19 389.755C181.68 389.515 182.04 389.155 182.18 388.725C182.33 388.305 182.3 387.885 182.24 387.545C182.17 387.215 182.1 386.945 182.03 386.765C181.97 386.585 181.94 386.495 181.94 386.495C181.94 386.495 181.99 386.585 182.08 386.745C182.18 386.905 182.31 387.155 182.43 387.495C182.54 387.835 182.64 388.285 182.54 388.815C182.5 389.085 182.36 389.355 182.19 389.605C182 389.845 181.76 390.065 181.47 390.235C180.91 390.585 180.24 390.785 179.54 390.915C178.83 391.045 178.08 391.115 177.31 391.105C176.54 391.095 175.74 391.055 174.94 390.935C174.15 390.815 173.31 390.675 172.51 390.365C171.75 390.055 170.99 389.735 170.28 389.345C169.55 388.995 168.9 388.545 168.24 388.165C166.96 387.345 165.83 386.495 164.85 385.805C163.86 385.115 163.08 384.505 162.48 384.125C161.9 383.735 161.57 383.505 161.57 383.505Z" fill="#E6461E"/>
<path opacity="0.3" d="M156.32 389.025C156.32 389.025 156.71 389.295 157.43 389.685C158.14 390.095 159.2 390.585 160.46 391.195C161.72 391.805 163.23 392.445 164.84 393.115C165.65 393.455 166.49 393.775 167.34 394.105C168.2 394.425 169.07 394.745 169.96 395.025C171.72 395.605 173.51 396.095 175.21 396.355C176.06 396.465 176.88 396.535 177.65 396.505C178.41 396.445 179.12 396.275 179.68 395.955C180.21 395.595 180.56 395.115 180.77 394.615C180.86 394.365 180.9 394.105 180.96 393.875C180.99 393.635 180.99 393.415 181.01 393.215C181.04 392.815 180.98 392.495 180.98 392.275C180.97 392.055 180.96 391.935 180.96 391.935C180.96 391.935 180.99 392.045 181.04 392.265C181.07 392.485 181.2 392.795 181.21 393.215C181.22 393.425 181.25 393.655 181.25 393.915C181.21 394.165 181.2 394.445 181.14 394.745C180.99 395.325 180.64 395.975 180.01 396.445C178.71 397.325 176.9 397.445 175.12 397.255C173.32 397.075 171.47 396.575 169.67 396.005C167.87 395.405 166.11 394.695 164.51 393.945C162.9 393.205 161.45 392.405 160.22 391.715C158.99 391.025 158.01 390.345 157.34 389.865C156.65 389.365 156.32 389.025 156.32 389.025Z" fill="#E6461E"/>
<path opacity="0.3" d="M153.06 394.095C153.06 394.095 153.46 394.235 154.14 394.525C154.82 394.825 155.79 395.225 156.94 395.765C158.08 396.295 159.44 396.885 160.87 397.515C162.31 398.135 163.85 398.795 165.42 399.355C166.2 399.655 166.99 399.905 167.77 400.145C168.55 400.365 169.32 400.585 170.08 400.715C171.58 401.005 173.04 401.095 174.17 400.715C174.71 400.495 175.21 400.245 175.53 399.875C175.87 399.535 176.1 399.145 176.23 398.815C176.4 398.495 176.45 398.205 176.51 398.015C176.57 397.825 176.6 397.725 176.6 397.725C176.6 397.725 176.59 397.835 176.57 398.025C176.54 398.225 176.55 398.525 176.42 398.875C176.33 399.235 176.15 399.675 175.82 400.105C175.52 400.565 174.99 400.935 174.39 401.225C173.14 401.745 171.55 401.815 169.95 401.575C168.34 401.355 166.7 400.855 165.09 400.285C163.49 399.695 161.93 399.015 160.51 398.305C159.08 397.605 157.8 396.875 156.69 396.265C155.58 395.645 154.7 395.075 154.06 394.705C153.42 394.315 153.06 394.095 153.06 394.095Z" fill="#E6461E"/>
<path opacity="0.3" d="M189.28 377.075C189.28 377.075 189.39 377.205 189.57 377.435C189.66 377.555 189.78 377.685 189.86 377.875C189.95 378.065 190.09 378.275 190.16 378.525C190.23 378.775 190.35 379.045 190.37 379.355C190.39 379.505 190.41 379.665 190.43 379.825C190.43 379.985 190.42 380.155 190.41 380.325C190.39 380.665 190.31 381.015 190.19 381.355L189.97 381.865L189.67 382.345C189.43 382.635 189.17 382.915 188.85 383.125C188.7 383.245 188.54 383.335 188.36 383.395C188.19 383.465 188.03 383.555 187.85 383.575C187.68 383.605 187.5 383.645 187.34 383.665C187.17 383.655 187.01 383.655 186.85 383.645C186.53 383.645 186.26 383.515 186 383.455C185.75 383.365 185.54 383.235 185.36 383.145C185.17 383.055 185.04 382.915 184.92 382.825C184.69 382.635 184.57 382.525 184.57 382.525C184.57 382.525 184.73 382.575 185.01 382.655C185.15 382.685 185.3 382.765 185.5 382.795C185.69 382.825 185.9 382.875 186.13 382.905C186.36 382.895 186.61 382.955 186.85 382.905C186.97 382.885 187.1 382.875 187.23 382.855C187.35 382.805 187.48 382.775 187.6 382.735C187.73 382.715 187.84 382.625 187.96 382.565C188.08 382.505 188.19 382.435 188.29 382.345C188.52 382.195 188.69 381.975 188.87 381.765L189.11 381.415L189.29 381.035C189.39 380.775 189.5 380.505 189.54 380.235C189.56 380.095 189.58 379.965 189.61 379.825C189.62 379.685 189.62 379.555 189.63 379.425C189.66 379.165 189.61 378.915 189.61 378.685C189.6 378.445 189.54 378.255 189.52 378.055C189.5 377.865 189.44 377.695 189.4 377.555C189.32 377.235 189.28 377.075 189.28 377.075Z" fill="#E6461E"/>
<path opacity="0.3" d="M187.83 383.595C187.83 383.595 187.86 383.725 187.9 383.945C187.93 384.055 187.94 384.195 187.92 384.365C187.92 384.535 187.9 384.735 187.84 384.925C187.8 385.135 187.71 385.345 187.59 385.555C187.47 385.765 187.32 385.975 187.14 386.165C186.95 386.355 186.76 386.545 186.52 386.685C186.29 386.845 186.04 386.965 185.8 387.075C184.78 387.505 183.67 387.515 182.9 387.335C182.51 387.255 182.2 387.125 182 387.025C181.79 386.915 181.69 386.845 181.69 386.845C181.69 386.845 181.82 386.835 182.05 386.825C182.27 386.815 182.58 386.795 182.94 386.755C183.3 386.725 183.71 386.645 184.14 386.555C184.56 386.445 185.01 386.335 185.42 386.145C185.63 386.065 185.84 385.965 186.02 385.855C186.21 385.745 186.39 385.635 186.55 385.505C186.7 385.375 186.86 385.245 186.99 385.105C187.11 384.965 187.24 384.825 187.33 384.675C187.52 384.385 187.65 384.135 187.72 383.905C187.78 383.715 187.83 383.595 187.83 383.595Z" fill="#E6461E"/>
<path d="M143.9 88.9851C140.79 94.4751 130.46 95.2751 125.44 97.6951C118.14 101.195 108.99 106.675 108.01 115.605C108.01 115.605 105.01 123.295 100.01 126.175C95.01 129.055 82.01 138.675 83.01 148.285C84.01 157.895 84.73 173.855 69.01 182.895C53.29 191.935 34.01 231.915 34.01 247.295C34.01 247.295 29.01 238.645 34.01 226.145C39.01 213.645 37.01 187.695 55.01 175.195C73.01 162.695 51.01 149.245 66.01 137.705C81.01 126.165 62.01 105.025 89.01 94.4451C89.01 94.4451 97.19 55.5451 124.01 64.6451C130.67 66.9051 144.71 76.9351 144.81 85.2751C144.82 86.7151 144.49 87.9351 143.9 88.9851Z" fill="#343233"/>
<path d="M117 62.7351C117 62.7351 101.72 52.1651 72.25 60.8151C59.29 64.6151 50.64 80.9351 47.67 92.1351C45.71 99.5251 43.93 101.175 38.6 107.095C16.66 131.415 48.28 158.955 38.29 184.505C31.91 200.815 29.41 209.305 39.06 225.595C36.85 205.365 69.86 194.825 73.34 175.285C73.34 175.285 81.34 161.955 75.34 152.615" fill="#343233"/>
<path d="M142.67 85.9451C143.11 98.7851 111.69 107.935 117 119.445C121 128.095 125 135.785 119 147.325C113 158.865 104 169.435 106 176.165C106.97 179.425 104.59 182.465 103.31 185.025C104.21 183.225 104.99 182.005 105 179.615C105.01 176.845 102.97 174.475 103.03 171.755C103.08 169.365 104.74 166.595 106 164.635C114 152.135 114 146.375 112 141.565C110 136.755 101 117.535 106 112.725C111 107.915 107 97.3451 114 97.3451" fill="#343233"/>
<path d="M96 111.945C98.38 118.905 91.33 123.705 90.31 130.015C88.87 138.995 94.63 139.975 97.98 146.065C101.85 153.105 98.66 166.125 95.85 173.065C88 192.495 71.38 200.585 76 214.605C77.29 218.525 78 223.675 75.3 227.295C78.09 223.455 73.3 217.325 72.76 213.285C71.9 206.855 71.44 200.255 75 194.425C83.18 181.045 74.56 164.955 73.54 150.995C72.72 139.785 84.87 118.895 95.33 114.605" fill="#343233"/>
<path d="M140.31 112.395C140.31 112.395 132.41 108.595 126.48 111.765C120.55 114.935 120.55 114.935 120.55 114.935C120.55 114.935 128.45 113.035 133.72 113.665C138.99 114.295 142.28 116.825 140.31 112.395Z" fill="#343233"/>
<path d="M138.15 149.195C138.13 149.105 138.12 149.005 138.12 148.915C134.1 149.325 129.96 150.155 129.5 149.735C131 154.955 129.22 160.155 136.15 156.925C138.58 155.795 135.73 153.065 135.73 153.065C137.66 152.495 138.66 151.365 138.15 149.195Z" fill="#F74A63"/>
<path d="M125.71 125.375C129.28 128.395 133.7 129.005 137.29 125.705C137.71 125.315 137.3 124.445 136.87 124.845C133.49 127.945 129.49 127.345 126.14 124.515C125.69 124.145 125.27 125.005 125.71 125.375Z" fill="#C1553A"/>
<path d="M125.71 125.375L123 122.275C123 122.275 129.73 127.745 136.86 124.845C136.86 124.845 135.09 130.475 125.71 125.375Z" fill="#343233"/>
<path d="M121.19 97.8151C118.17 98.3451 115.08 98.1151 112.05 98.5251C115.36 96.4551 118.51 94.1351 121.28 91.3651C123.46 89.1851 125.22 86.7351 126.62 84.1051C126.68 84.1151 126.75 84.1151 126.82 84.0851C129.9 82.5051 133.3 81.6051 136.24 79.7451C136.59 79.5251 136.18 79.0251 135.84 79.2451C133.11 80.9751 129.97 81.8551 127.08 83.2451C128.96 79.4351 130.1 75.2751 130.62 70.9451C130.67 70.5351 130.03 70.4651 129.98 70.8751C129.04 78.6051 126.12 85.6151 120.58 91.1651C119.79 91.9551 118.97 92.7051 118.12 93.4151C118.81 90.2451 119.7 87.1151 119.72 83.8451C119.72 83.4351 119.08 83.3651 119.08 83.7851C119.06 87.3051 118.03 90.6651 117.32 94.0851C112.71 97.7951 107.35 100.615 102.15 103.355C101.79 103.545 102.04 104.135 102.41 103.945C105.24 102.445 108.1 100.925 110.86 99.2551C110.92 99.3051 111 99.3351 111.11 99.3151C114.47 98.6751 117.92 99.0251 121.29 98.4351C121.7 98.3751 121.6 97.7351 121.19 97.8151Z" fill="#FBDCAB"/>
<path d="M124.57 100.005C123.74 100.675 122.53 100.555 121.86 99.7251C121.19 98.9051 121.31 97.6851 122.14 97.0151C122.96 96.3451 124.18 96.4651 124.85 97.2951C125.52 98.1151 125.39 99.3251 124.57 100.005Z" fill="#FBDCAB"/>
<path d="M120.28 85.2751C119.45 85.9451 118.24 85.8251 117.57 84.9951C116.9 84.1651 117.02 82.9551 117.85 82.2851C118.68 81.6151 119.89 81.7351 120.56 82.5651C121.23 83.3951 121.11 84.6051 120.28 85.2751Z" fill="#FBDCAB"/>
<path d="M137.45 81.2351C136.62 81.9051 135.41 81.7851 134.74 80.9551C134.07 80.1251 134.19 78.9151 135.02 78.2451C135.84 77.5751 137.06 77.6951 137.73 78.5251C138.4 79.3451 138.27 80.5651 137.45 81.2351Z" fill="#FBDCAB"/>
<path d="M131.82 72.4351C130.99 73.1051 129.78 72.9851 129.11 72.1551C128.44 71.3251 128.56 70.1151 129.39 69.4451C130.22 68.7751 131.43 68.8951 132.1 69.7251C132.77 70.5551 132.65 71.7651 131.82 72.4351Z" fill="#FBDCAB"/>
<path d="M80.58 98.7151C79.44 98.4451 78.29 98.1751 77.14 97.9351C77.13 97.8251 77.08 97.7251 76.95 97.6451C73.13 95.2251 70.11 91.7651 66.32 89.2951C65.86 88.9951 65.38 89.6951 65.84 89.9951C69.24 92.2151 72.02 95.2251 75.31 97.5651C70.24 96.5751 65.11 95.9651 59.93 96.1551C55.85 96.2951 51.94 97.0751 48.22 98.3451C48.18 98.2751 48.11 98.2151 48.01 98.1851C43.61 96.9251 39.52 94.7351 35 93.8751C34.46 93.7751 34.41 94.6151 34.94 94.7251C39.13 95.5251 42.96 97.5051 47.02 98.7651C41.77 100.745 36.9 103.735 32.49 107.445C32.07 107.795 32.63 108.435 33.05 108.085C40.93 101.465 50.09 97.3351 60.45 96.9751C61.92 96.9251 63.39 96.9451 64.86 97.0251C61.33 99.4551 57.64 101.685 54.67 104.825C54.3 105.215 54.85 105.865 55.23 105.465C58.43 102.085 62.46 99.7651 66.23 97.1051C71.13 97.4651 75.99 98.4351 80.78 99.6151C80.69 99.3151 80.61 99.0251 80.58 98.7151Z" fill="#FBDCAB"/>
<path d="M64.57 84.8351C65.97 84.9351 67.03 86.1451 66.94 87.5551C66.84 88.9551 65.63 90.0151 64.22 89.9251C62.82 89.8251 61.76 88.6151 61.85 87.2151C61.95 85.8051 63.17 84.7451 64.57 84.8351Z" fill="#FBDCAB"/>
<path d="M55.41 102.925C56.81 103.025 57.87 104.235 57.78 105.645C57.68 107.045 56.47 108.115 55.06 108.015C53.66 107.915 52.6 106.705 52.69 105.295C52.79 103.885 54.01 102.825 55.41 102.925Z" fill="#FBDCAB"/>
<path d="M35.18 91.3351C36.59 91.4351 37.64 92.6451 37.55 94.0551C37.45 95.4551 36.24 96.5151 34.83 96.4251C33.43 96.3251 32.37 95.1151 32.46 93.7051C32.56 92.2951 33.78 91.2351 35.18 91.3351Z" fill="#FBDCAB"/>
<path d="M32.67 104.905C34.07 105.005 35.13 106.215 35.04 107.625C34.94 109.035 33.73 110.085 32.32 109.995C30.92 109.895 29.86 108.685 29.95 107.275C30.05 105.865 31.27 104.805 32.67 104.905Z" fill="#FBDCAB"/>
<path d="M101.79 93.1151C98.09 95.2551 93.9 96.2551 90 97.9451C92.68 93.0151 94.41 87.5651 95.33 81.8851C95.42 81.3451 94.58 81.2251 94.49 81.7651C93.43 88.3051 91.29 94.4051 87.88 99.8051C88.03 100.095 88.2 100.385 88.34 100.675C88.69 100.135 89.04 99.6051 89.37 99.0451C89.45 99.0651 89.53 99.0651 89.63 99.0251C93.79 97.1051 98.31 96.0951 102.3 93.7851C102.77 93.5251 102.25 92.8451 101.79 93.1151Z" fill="#FBDCAB"/>
<path d="M103.82 95.8351C102.69 96.6751 101.1 96.4551 100.25 95.3251C99.41 94.1951 99.63 92.6051 100.76 91.7551C101.89 90.9151 103.48 91.1451 104.33 92.2651C105.18 93.3951 104.95 94.9851 103.82 95.8351Z" fill="#FBDCAB"/>
<path d="M96.86 83.9151C95.73 84.7551 94.14 84.5351 93.29 83.4051C92.45 82.2751 92.67 80.6851 93.8 79.8351C94.93 78.9951 96.52 79.2151 97.37 80.3451C98.21 81.4751 97.98 83.0751 96.86 83.9151Z" fill="#FBDCAB"/>
<path d="M138.34 92.2951C138.34 92.2951 140.1 112.545 148.94 106.375C148.93 106.375 156.18 102.445 138.34 92.2951Z" fill="#68BAA5"/>
<path d="M150.25 92.2351C150.25 92.2351 155.31 109.555 161.91 102.655C161.91 102.655 167.52 97.9751 150.25 92.2351Z" fill="#68BAA5"/>
<path d="M153.79 90.5751C153.79 90.5751 171.22 95.3251 168.72 86.0851C168.72 86.0851 167.61 78.8451 153.79 90.5751Z" fill="#68BAA5"/>
<path d="M143.75 85.3751C143.75 85.3751 161.7 83.5751 156.04 75.8251C156.05 75.8251 152.41 69.4651 143.75 85.3751Z" fill="#68BAA5"/>
<path d="M133.42 85.6651C133.42 85.6651 149.89 78.3751 142.11 72.7551C142.11 72.7651 136.67 67.8351 133.42 85.6651Z" fill="#68BAA5"/>
<path d="M159.47 90.3851C153.25 91.4351 147.07 89.2251 140.83 89.4051C133.67 89.6051 126.62 91.2651 119.87 93.5351C119.35 93.7151 119.18 92.8751 119.69 92.7051C126.05 90.5651 132.59 89.0651 139.3 88.6251C145.98 88.1951 152.66 90.6651 159.29 89.5551C159.83 89.4651 160.01 90.2951 159.47 90.3851Z" fill="#AEF2E1"/>
<path d="M142.77 98.7751C141.79 97.1151 140.61 95.5751 139.35 94.1151C138.13 92.6851 136.36 90.5451 134.35 90.3151C133.81 90.2551 133.85 89.4051 134.4 89.4651C136.36 89.6851 137.97 91.3751 139.26 92.7351C140.87 94.4351 142.33 96.3651 143.53 98.3851C143.81 98.8651 143.04 99.2451 142.77 98.7751Z" fill="#AEF2E1"/>
<path d="M144.6 88.8051C149.05 90.1051 152.31 93.2151 155.32 96.5951C155.69 97.0051 155.05 97.5651 154.68 97.1551C151.76 93.8751 148.64 90.8651 144.33 89.6051C143.79 89.4551 144.07 88.6551 144.6 88.8051Z" fill="#AEF2E1"/>
<path d="M141.07 89.0251C140.65 88.0251 142.81 86.2051 143.37 85.5851C144.85 83.9351 146.42 82.0951 148.26 80.8351C148.7 80.5251 149.27 81.1651 148.82 81.4751C147.38 82.4651 146.17 83.8451 144.98 85.0951C144.27 85.8451 143.58 86.6051 142.91 87.3951C142.67 87.6751 142.45 87.9551 142.23 88.2451C142.05 88.4851 141.95 88.9151 141.83 88.6351C142.04 89.1451 141.28 89.5251 141.07 89.0251Z" fill="#AEF2E1"/>
<path d="M131.31 89.9651C133.11 85.7251 135.47 81.8651 139.09 78.9251C139.51 78.5851 140.08 79.2151 139.65 79.5651C136.15 82.4051 133.86 86.1351 132.12 90.2451C131.9 90.7351 131.09 90.4651 131.31 89.9651Z" fill="#AEF2E1"/>
<path d="M92.64 95.7051C92.64 95.7051 91.76 75.3951 82.66 81.1751C82.67 81.1751 75.26 84.7851 92.64 95.7051Z" fill="#68BAA5"/>
<path d="M80.74 95.2451C80.74 95.2451 76.44 77.7251 69.54 84.3251C69.54 84.3251 63.73 88.7551 80.74 95.2451Z" fill="#68BAA5"/>
<path d="M77.13 96.7451C77.13 96.7451 59.92 91.2351 62.02 100.585C62.02 100.585 62.82 107.865 77.13 96.7451Z" fill="#68BAA5"/>
<path d="M86.93 102.375C86.93 102.375 68.92 103.395 74.23 111.385C74.24 111.385 77.59 117.905 86.93 102.375Z" fill="#68BAA5"/>
<path d="M97.27 102.525C97.27 102.525 80.5 109.095 88.03 115.045C88.03 115.045 93.24 120.205 97.27 102.525Z" fill="#68BAA5"/>
<path d="M71.44 96.6851C77.7 95.9051 83.78 98.3851 90.02 98.4751C97.18 98.5851 104.3 97.2251 111.14 95.2551C111.67 95.1051 111.8 95.9451 111.28 96.0951C104.83 97.9551 98.24 99.1751 91.51 99.3151C84.82 99.4551 78.25 96.6951 71.58 97.5251C71.04 97.5951 70.9 96.7551 71.44 96.6851Z" fill="#AEF2E1"/>
<path d="M88.5 89.0351C89.41 90.7351 90.52 92.3251 91.71 93.8351C92.87 95.3151 94.55 97.5351 96.54 97.8451C97.08 97.9251 97 98.7751 96.45 98.6851C94.5 98.3751 92.97 96.6251 91.74 95.2051C90.2 93.4351 88.83 91.4451 87.72 89.3751C87.46 88.8951 88.24 88.5551 88.5 89.0351Z" fill="#AEF2E1"/>
<path d="M86.24 98.9051C81.85 97.4151 78.73 94.1651 75.87 90.6551C75.52 90.2251 76.18 89.6951 76.53 90.1251C79.3 93.5251 82.29 96.6751 86.55 98.1151C87.07 98.2951 86.76 99.0851 86.24 98.9051Z" fill="#AEF2E1"/>
<path d="M89.77 98.8551C90.15 99.8751 87.91 101.595 87.33 102.185C85.78 103.765 84.13 105.535 82.24 106.715C81.78 107.005 81.24 106.345 81.7 106.055C83.18 105.135 84.45 103.805 85.69 102.605C86.43 101.895 87.16 101.155 87.85 100.395C88.1 100.125 88.34 99.8551 88.57 99.5751C88.76 99.3451 88.88 98.9151 88.99 99.1951C88.8 98.6851 89.58 98.3351 89.77 98.8551Z" fill="#AEF2E1"/>
<path d="M99.56 98.3351C97.58 102.495 95.05 106.255 91.31 109.025C90.87 109.355 90.33 108.685 90.77 108.365C94.39 105.675 96.84 102.055 98.76 98.0251C99 97.5351 99.8 97.8351 99.56 98.3351Z" fill="#AEF2E1"/>
<path d="M57.48 82.8451C57.48 82.8451 67.98 65.4451 57.21 65.2251C57.21 65.2251 49.05 64.1251 57.48 82.8451Z" fill="#68BAA5"/>
<path d="M47.82 75.8751C47.82 75.8751 53.94 58.9051 44.54 60.5851C44.54 60.5851 37.25 61.0551 47.82 75.8751Z" fill="#68BAA5"/>
<path d="M43.98 75.1351C43.98 75.1351 32.69 61.0251 29.27 69.9651C29.28 69.9651 25.91 76.4651 43.98 75.1351Z" fill="#68BAA5"/>
<path d="M49.03 85.2451C49.03 85.2451 33.46 76.1251 33.47 85.7151C33.47 85.7151 32.66 93.0051 49.03 85.2451Z" fill="#68BAA5"/>
<path d="M57.56 91.0951C57.56 91.0951 39.96 87.2851 42.93 96.4051C42.93 96.4051 44.42 103.585 57.56 91.0951Z" fill="#68BAA5"/>
<path d="M39.28 71.9351C44.92 74.7551 48.62 80.1751 53.76 83.7051C59.66 87.7551 66.34 90.5751 73.14 92.7151C73.66 92.8751 73.31 93.6551 72.79 93.4851C66.39 91.4651 60.22 88.8351 54.54 85.2251C48.89 81.6451 44.95 75.7051 38.93 72.7051C38.45 72.4651 38.79 71.6851 39.28 71.9351Z" fill="#AEF2E1"/>
<path d="M57.72 74.9951C57.54 76.9151 57.58 78.8551 57.74 80.7751C57.89 82.6551 58.06 85.4251 59.54 86.7851C59.94 87.1551 59.41 87.8151 59 87.4351C57.54 86.0951 57.24 83.7851 57 81.9351C56.7 79.6051 56.66 77.1951 56.88 74.8551C56.94 74.3151 57.77 74.4551 57.72 74.9951Z" fill="#AEF2E1"/>
<path d="M50.37 81.9751C47.54 78.3051 46.74 73.8751 46.3 69.3651C46.25 68.8151 47.09 68.7351 47.15 69.2851C47.58 73.6551 48.32 77.9251 51.07 81.4851C51.4 81.9151 50.71 82.4051 50.37 81.9751Z" fill="#AEF2E1"/>
<path d="M53.35 83.8751C53.1 84.9351 50.29 85.1251 49.47 85.2951C47.3 85.7551 44.95 86.3151 42.72 86.2551C42.18 86.2451 42.09 85.3951 42.64 85.4051C44.38 85.4551 46.18 85.0551 47.88 84.7451C48.89 84.5651 49.9 84.3551 50.9 84.1051C51.25 84.0151 51.61 83.9251 51.95 83.8151C52.24 83.7251 52.58 83.4351 52.51 83.7351C52.63 83.2051 53.47 83.3451 53.35 83.8751Z" fill="#AEF2E1"/>
<path d="M61.79 88.8651C57.84 91.2351 53.65 92.9651 49.01 93.2051C48.47 93.2351 48.38 92.3851 48.93 92.3551C53.43 92.1251 57.48 90.4651 61.31 88.1651C61.77 87.8851 62.26 88.5851 61.79 88.8651Z" fill="#AEF2E1"/>
<path d="M99.48 100.695C105.77 102.045 113.14 102.565 118.4 99.4251C119.51 98.7651 118.38 97.1051 117.27 97.7651C111.22 101.385 101.77 99.4251 95.39 97.5951C95.31 97.5751 95.23 97.5551 95.16 97.5551C96.74 98.3651 98.2 99.4451 99.48 100.695Z" fill="#68BAA5"/>
<path d="M113.6 91.2551C112.46 96.0751 116.19 99.2451 119.67 101.745C122.61 103.855 125.78 107.715 129.77 106.555C131.82 105.955 130.93 104.615 130.97 103.095C133.94 101.115 135.39 97.6151 132.37 94.7351C130.43 92.8851 130.62 93.8251 131.36 91.3051C131.9 89.4751 131.63 88.1251 130.62 86.4151C129.78 84.9951 128.25 83.3451 126.57 82.7951C123.97 81.9651 123.65 83.3151 122.45 85.2051C120.2 88.7651 114.93 85.6251 113.6 91.2551Z" fill="#B32D3F"/>
<path d="M124.59 88.7251C127.26 88.8351 131.2 85.9751 133.86 87.5551C135.81 88.7151 136.35 91.1451 134.12 92.6251C137.11 95.2451 138.79 101.055 132.37 100.105C125.67 99.1151 125.54 92.2151 127.97 87.5651" fill="#D13349"/>
<path d="M128.66 101.355C125.86 102.535 120.64 104.805 117.89 102.415C114.56 99.5251 116.9 92.8451 119.83 90.5451C127.72 84.3251 139.75 96.6751 128.66 101.355Z" fill="#EB3952"/>
<path d="M126.77 96.5651C122.89 95.0351 114.13 101.765 123.41 101.145C126.33 100.945 132.22 98.7051 126.77 96.5651Z" fill="#EB6A7C"/>
<path d="M120.24 95.8451C119.96 95.9651 119.69 96.1151 119.41 96.2951C118.45 96.9051 117.97 98.7951 116.62 98.2251C112.23 96.4051 122.6 81.7151 127.6 85.9651C129.75 87.7951 128.45 90.9651 127.08 92.8351C124.95 95.7251 122.77 94.7151 120.24 95.8451Z" fill="#F74A63"/>
<path d="M129.69 98.0051C126.71 95.9551 129.9 88.6651 132.02 94.4851C132.47 95.7151 131.58 99.3051 129.69 98.0051Z" fill="#EB6A7C"/>
<path d="M121.98 100.765C123.64 101.305 125.37 100.115 127.08 100.375C128.84 100.635 131.29 101.575 132.03 103.115C132.82 104.785 132.01 105.595 130.61 106.475C128.45 107.825 127.64 107.315 125.36 106.925C123.14 106.555 122.2 108.245 120.47 108.325C118.85 108.405 116.97 106.175 116.41 104.755C115.8 103.215 114.93 98.9051 116.24 97.5151C118.22 95.3751 120.1 100.155 121.98 100.765Z" fill="#B32D3F"/>
<path d="M112.12 94.7151C112.2 98.2251 119.68 102.405 119.72 97.2451C119.73 96.2451 119.05 95.9051 118.92 94.9151C118.72 93.4451 119.17 92.9951 119.67 91.5951C120.88 88.2251 120.57 83.0251 115.86 82.5751C114.18 82.4151 111.63 83.0751 111.06 84.6351C110.43 86.3651 111.9 87.1751 112.52 88.3251C114.03 91.0851 112.06 92.1151 112.12 94.7151Z" fill="#EB3952"/>
<path d="M99.02 97.2851C92.77 95.7251 85.43 94.9751 80.07 97.9451C78.94 98.5751 80.02 100.265 81.15 99.6351C87.32 96.2051 96.7 98.4751 103.02 100.515C103.1 100.545 103.18 100.555 103.25 100.565C101.68 99.7051 100.26 98.5751 99.02 97.2851Z" fill="#68BAA5"/>
<path d="M84.6 106.265C85.9 101.485 82.27 98.1951 78.87 95.5851C76 93.3851 72.96 89.4151 68.93 90.4451C66.86 90.9751 67.71 92.3451 67.62 93.8651C64.59 95.7551 63.02 99.1951 65.95 102.175C67.83 104.095 67.67 103.145 66.85 105.635C66.26 107.445 66.47 108.805 67.43 110.545C68.22 111.985 69.7 113.695 71.37 114.295C73.94 115.215 74.3 113.875 75.57 112.015C77.93 108.535 83.09 111.845 84.6 106.265Z" fill="#B32D3F"/>
<path d="M73.54 108.435C70.87 108.235 66.84 110.975 64.24 109.305C62.33 108.085 61.87 105.635 64.14 104.225C61.24 101.505 59.74 95.6451 66.13 96.8051C72.79 98.0151 72.7 104.905 70.13 109.475" fill="#D13349"/>
<path d="M69.87 95.6851C72.71 94.5951 78 92.4951 80.67 94.9751C83.91 97.9751 81.35 104.565 78.35 106.775C70.27 112.725 58.64 99.9951 69.87 95.6851Z" fill="#EB3952"/>
<path d="M71.62 100.535C75.45 102.185 84.42 95.7451 75.12 96.0651C72.19 96.1651 66.24 98.2151 71.62 100.535Z" fill="#EB6A7C"/>
<path d="M78.11 101.465C78.39 101.355 78.67 101.215 78.96 101.045C79.94 100.465 80.48 98.5951 81.81 99.2051C86.14 101.175 75.3 115.515 70.44 111.105C68.35 109.205 69.75 106.085 71.18 104.255C73.4 101.425 75.55 102.515 78.11 101.465Z" fill="#F74A63"/>
<path d="M68.74 98.9951C71.65 101.145 68.23 108.325 66.3 102.445C65.89 101.195 66.89 97.6351 68.74 98.9951Z" fill="#EB6A7C"/>
<path d="M76.54 96.4851C74.9 95.8951 73.13 97.0251 71.43 96.7151C69.68 96.3951 67.26 95.3751 66.58 93.8151C65.84 92.1151 66.68 91.3451 68.11 90.5051C70.31 89.2251 71.1 89.7651 73.38 90.2251C75.59 90.6651 76.58 89.0151 78.32 88.9751C79.94 88.9451 81.75 91.2351 82.26 92.6751C82.82 94.2351 83.55 98.5751 82.2 99.9151C80.12 101.985 78.4 97.1551 76.54 96.4851Z" fill="#B32D3F"/>
<path d="M86.19 102.855C86.23 99.3451 78.88 94.9151 78.67 100.075C78.63 101.075 79.3 101.445 79.39 102.435C79.54 103.905 79.07 104.345 78.53 105.735C77.21 109.065 77.36 114.275 82.05 114.875C83.72 115.085 86.29 114.515 86.91 112.965C87.59 111.255 86.15 110.395 85.57 109.235C84.17 106.415 86.17 105.445 86.19 102.855Z" fill="#EB3952"/>
<g opacity="0.4">
<path opacity="0.4" d="M49.19 236.295C49.19 236.295 42.42 232.875 45.77 229.105C45.77 229.105 49.89 225.545 52.12 234.135" fill="#F05860"/>
<path opacity="0.4" d="M50.88 237.855C50.88 237.855 45.53 243.235 42.98 238.885C42.98 238.885 40.87 233.865 49.72 234.395" fill="#F05860"/>
<path opacity="0.4" d="M52.88 236.725C52.88 236.725 56.35 243.475 51.42 244.555C51.42 244.555 45.99 245.015 49.23 236.755" fill="#F05860"/>
<path opacity="0.4" d="M52.43 234.475C52.43 234.475 59.92 233.265 59.42 238.285C59.42 238.285 58.18 243.585 51.33 237.955" fill="#F05860"/>
<path opacity="0.4" d="M50.15 234.205C50.15 234.205 51.31 226.705 55.93 228.725C55.93 228.725 60.59 231.545 53.11 236.325" fill="#F05860"/>
</g>
<g opacity="0.4">
<path opacity="0.4" d="M74.35 238.925C74.35 238.925 68.69 236.065 71.49 232.915C71.49 232.915 74.93 229.945 76.8 237.115" fill="#F05860"/>
<path opacity="0.4" d="M75.77 240.235C75.77 240.235 71.3 244.735 69.17 241.095C69.17 241.095 67.4 236.905 74.8 237.345" fill="#F05860"/>
<path opacity="0.4" d="M77.44 239.285C77.44 239.285 80.34 244.925 76.22 245.825C76.22 245.825 71.69 246.205 74.39 239.305" fill="#F05860"/>
<path opacity="0.4" d="M77.07 237.405C77.07 237.405 83.33 236.395 82.91 240.585C82.91 240.585 81.87 245.015 76.15 240.305" fill="#F05860"/>
<path opacity="0.4" d="M75.16 237.185C75.16 237.185 76.13 230.925 79.99 232.615C79.99 232.615 83.88 234.965 77.64 238.955" fill="#F05860"/>
</g>
<g opacity="0.4">
<path opacity="0.4" d="M60.61 354.155C60.61 354.155 53.84 350.735 57.19 346.965C57.19 346.965 61.31 343.405 63.54 351.995" fill="#F05860"/>
<path opacity="0.4" d="M62.3 355.715C62.3 355.715 56.95 361.095 54.4 356.745C54.4 356.745 52.29 351.725 61.14 352.255" fill="#F05860"/>
<path opacity="0.4" d="M64.31 354.585C64.31 354.585 67.78 361.335 62.85 362.415C62.85 362.415 57.42 362.875 60.66 354.615" fill="#F05860"/>
<path opacity="0.4" d="M63.86 352.325C63.86 352.325 71.35 351.115 70.85 356.135C70.85 356.135 69.61 361.435 62.76 355.805" fill="#F05860"/>
<path opacity="0.4" d="M61.57 352.055C61.57 352.055 62.73 344.555 67.35 346.575C67.35 346.575 72.01 349.395 64.53 354.175" fill="#F05860"/>
</g>
<g opacity="0.4">
<path opacity="0.4" d="M158.67 298.005C158.67 298.005 153.85 295.575 156.23 292.885C156.23 292.885 159.16 290.355 160.75 296.465" fill="#F05860"/>
<path opacity="0.4" d="M159.87 299.125C159.87 299.125 156.06 302.955 154.25 299.855C154.25 299.855 152.75 296.285 159.05 296.655" fill="#F05860"/>
<path opacity="0.4" d="M161.3 298.315C161.3 298.315 163.77 303.115 160.26 303.885C160.26 303.885 156.4 304.215 158.7 298.335" fill="#F05860"/>
<path opacity="0.4" d="M160.98 296.715C160.98 296.715 166.31 295.855 165.96 299.425C165.96 299.425 165.08 303.195 160.2 299.185" fill="#F05860"/>
<path opacity="0.4" d="M159.35 296.525C159.35 296.525 160.18 291.185 163.47 292.625C163.47 292.625 166.79 294.625 161.46 298.035" fill="#F05860"/>
</g>
<g opacity="0.4">
<path opacity="0.4" d="M129.14 320.105C129.14 320.105 124.32 317.675 126.7 314.985C126.7 314.985 129.63 312.455 131.22 318.565" fill="#F05860"/>
<path opacity="0.4" d="M130.34 321.215C130.34 321.215 126.53 325.045 124.72 321.945C124.72 321.945 123.22 318.375 129.52 318.745" fill="#F05860"/>
<path opacity="0.4" d="M131.77 320.415C131.77 320.415 134.24 325.215 130.73 325.985C130.73 325.985 126.87 326.315 129.17 320.435" fill="#F05860"/>
<path opacity="0.4" d="M131.45 318.805C131.45 318.805 136.78 317.945 136.43 321.515C136.43 321.515 135.55 325.285 130.67 321.275" fill="#F05860"/>
<path opacity="0.4" d="M129.82 318.615C129.82 318.615 130.65 313.275 133.94 314.715C133.94 314.715 137.26 316.715 131.93 320.125" fill="#F05860"/>
</g>
<g opacity="0.4">
<path opacity="0.4" d="M177.01 332.455C177.01 332.455 173.03 330.445 175 328.225C175 328.225 177.42 326.135 178.74 331.185" fill="#F05860"/>
<path opacity="0.4" d="M178.01 333.375C178.01 333.375 174.87 336.545 173.37 333.985C173.37 333.985 172.13 331.035 177.34 331.345" fill="#F05860"/>
<path opacity="0.4" d="M179.19 332.715C179.19 332.715 181.23 336.685 178.33 337.325C178.33 337.325 175.14 337.595 177.04 332.735" fill="#F05860"/>
<path opacity="0.4" d="M178.92 331.385C178.92 331.385 183.33 330.675 183.03 333.625C183.03 333.625 182.3 336.745 178.27 333.425" fill="#F05860"/>
<path opacity="0.4" d="M177.58 331.225C177.58 331.225 178.26 326.815 180.98 328.005C180.98 328.005 183.72 329.665 179.32 332.475" fill="#F05860"/>
</g>
<g opacity="0.4">
<path opacity="0.4" d="M151.43 447.175C151.43 447.175 147.45 445.165 149.42 442.945C149.42 442.945 151.84 440.855 153.16 445.905" fill="#F05860"/>
<path opacity="0.4" d="M152.43 448.095C152.43 448.095 149.29 451.265 147.79 448.705C147.79 448.705 146.55 445.755 151.76 446.065" fill="#F05860"/>
<path opacity="0.4" d="M153.61 447.435C153.61 447.435 155.65 451.405 152.75 452.045C152.75 452.045 149.56 452.315 151.46 447.455" fill="#F05860"/>
<path opacity="0.4" d="M153.34 446.105C153.34 446.105 157.75 445.395 157.45 448.345C157.45 448.345 156.72 451.465 152.69 448.145" fill="#F05860"/>
<path opacity="0.4" d="M152 445.945C152 445.945 152.68 441.535 155.4 442.725C155.4 442.725 158.14 444.385 153.74 447.195" fill="#F05860"/>
</g>
<g opacity="0.4">
<path opacity="0.4" d="M15.43 476.505C15.43 476.505 11.45 474.495 13.42 472.275C13.42 472.275 15.84 470.185 17.16 475.235" fill="#F05860"/>
<path opacity="0.4" d="M16.43 477.425C16.43 477.425 13.29 480.595 11.79 478.035C11.79 478.035 10.55 475.085 15.76 475.395" fill="#F05860"/>
<path opacity="0.4" d="M17.61 476.765C17.61 476.765 19.65 480.735 16.75 481.375C16.75 481.375 13.56 481.645 15.46 476.785" fill="#F05860"/>
<path opacity="0.4" d="M17.34 475.435C17.34 475.435 21.75 474.725 21.45 477.675C21.45 477.675 20.72 480.795 16.69 477.475" fill="#F05860"/>
<path opacity="0.4" d="M16 475.275C16 475.275 16.68 470.865 19.4 472.055C19.4 472.055 22.14 473.715 17.74 476.525" fill="#F05860"/>
</g>
</g>
<defs>
<clipPath id="clip0_172_435">
<rect width="500" height="501.5" fill="white" transform="translate(-43)"/>
</clipPath>
</defs>
</svg>
