<svg width="124" height="142" viewBox="0 0 124 142" fill="none" xmlns="http://www.w3.org/2000/svg">
<path d="M64.9215 99.2717C64.9215 99.2717 36.7677 111.953 34.3056 119.555C34.3056 119.555 32.8283 129.083 55.6441 129.74H73.5357L71.323 97.0508L64.9215 99.2717Z" fill="#4F8073"/>
<path d="M92.7404 137.184H123.98C123.98 137.184 124.4 134.628 121.334 133.971L118.288 134.116C118.288 134.116 116.252 130.39 112.398 130.719C108.551 131.047 107.343 132.401 102.747 128.636C98.8662 125.462 93.1146 129.076 91.9131 130.824L92.7404 137.184Z" fill="#FFC196"/>
<path d="M88.9653 5.69876C88.9653 5.69876 90.7709 -0.60908 97.7503 0.047987C104.73 0.705054 107.106 6.98004 105.957 12.3417C104.808 17.7034 105.137 24.274 113.101 26.2452C121.065 28.2164 119.26 36.5941 115.399 39.1435C111.538 41.6929 102.432 42.35 97.2578 37.3365C92.084 32.3231 96.9295 17.8742 96.68 13.5179C96.4305 9.16151 93.8043 6.94719 91.3421 8.42559L88.9653 5.69876Z" fill="#222221"/>
<path d="M90.0225 36.8897L84.4941 26.7446L90.8104 21.9415L99.1422 30.9301L90.0225 36.8897Z" fill="#FFC196"/>
<path d="M91.2634 22.3094C91.2634 22.3094 93.8897 15.2459 92.0841 10.4822C90.2785 5.71848 84.98 -0.109704 75.834 5.38995C65.8213 11.4152 73.9759 21.0478 73.9759 21.0478C73.9233 23.1308 73.5228 24.8194 73.4572 25.8313C73.4243 26.3175 73.9102 26.6658 74.3632 26.4949L76.8188 25.4305L79.5633 31.3244C79.8325 31.804 80.4103 32.0012 80.9224 31.804C82.9249 31.0221 88.1972 28.315 91.2634 22.3094Z" fill="#FFC196"/>
<path d="M72.6426 7.98534C72.6426 7.98534 75.8335 7.41369 76.2734 10.042C76.7133 12.6702 77.0416 17.3026 80.8694 17.3945C84.6972 17.4865 87.0609 17.5982 87.0609 17.5982C87.0609 17.5982 88.3609 21.2975 91.2695 22.3094C91.2695 22.3094 95.9312 15.4102 92.7271 8.29416C89.5099 1.17156 79.6088 -0.195143 72.6426 7.98534Z" fill="#222221"/>
<path d="M88.7222 16.2841C88.8535 18.2487 87.9212 19.9111 86.6409 19.99C85.3606 20.0754 84.2247 18.551 84.0934 16.5864C83.9621 14.6217 84.8944 12.9593 86.1747 12.8739C87.4485 12.7951 88.5909 14.3195 88.7222 16.2841Z" fill="#FFC196"/>
<path d="M85.7285 29.0115C85.7285 29.0115 88.4205 26.3175 88.9654 23.7878C88.9654 23.7878 88.8801 30.825 87.5275 32.3165L85.7285 29.0115Z" fill="#FF816D"/>
<path d="M79.2807 42.8428C79.2807 42.8428 80.4297 37.8425 82.3994 36.8897C84.3692 35.9436 97.7369 29.4123 97.7369 29.4123C97.7369 29.4123 104.23 33.8475 108.006 36.1275C108.006 36.1275 112.602 39.3932 112.93 45.9638C113.258 52.5345 97.993 72.9036 99.142 78.6529C100.291 84.4023 106.364 92.1228 106.364 92.1228C106.364 92.1228 72.8792 106.085 65.6569 105.757C58.4346 105.428 52.381 75.8604 72.6428 65.0188C72.6428 65.0188 66.4776 60.4193 67.4624 56.1484C68.4473 51.8774 78.6242 45.0177 79.2807 42.8428Z" fill="#F7E8D3"/>
<path d="M95.2552 57.2982L90.9612 75.8604L69.5176 71.4252C69.5176 71.4252 87.6586 92.287 93.7319 92.1228C97.6385 92.0176 101.473 89.8756 103.712 88.3578C101.926 85.6112 99.7855 81.8331 99.1486 78.6529C98.4658 75.2361 103.587 66.6417 107.783 58.8555L95.2552 57.2982Z" fill="#D6CDC1"/>
<path d="M87.3502 45.1425C91.4537 42.2383 93.9421 34.2878 101.939 32.2377C99.6149 30.7002 97.7371 29.4123 97.7371 29.4123C97.7371 29.4123 84.3693 35.9436 82.3996 36.8897C80.4299 37.8359 79.2809 42.8428 79.2809 42.8428C79.1168 43.3881 78.3551 44.2292 77.2915 45.2476C79.5501 46.1215 84.1395 47.4094 87.3502 45.1425Z" fill="#FFC196"/>
<path d="M79.6352 45.9835C79.6352 45.9835 78.1316 45.4119 79.0574 44.262C79.7928 43.3487 85.1438 35.5559 85.1438 35.5559L83.4696 36.3706C83.4696 36.3706 78.1973 44.262 77.2847 45.2476C77.2912 45.2476 78.0463 46.5158 79.6352 45.9835Z" fill="#F7E8D3"/>
<path d="M64.9806 105.639C64.9806 105.639 35.6188 116.927 31.3511 128.261C31.3511 128.261 32.9925 134.175 38.9016 136.639C44.8108 139.103 54.679 142.881 72.6428 139.924C90.6066 136.968 93.5612 137.73 93.5612 137.73L92.7405 129.74C92.7405 129.74 111.124 122.841 111.289 109.864C111.453 96.8865 106.364 92.1228 106.364 92.1228L64.9806 105.639Z" fill="#68BAA5"/>
<path d="M92.7406 129.74C74.4092 129.411 69.5965 125.029 62.0459 123.609C54.4954 122.19 48.4746 126.126 48.4746 126.126" stroke="#4F8073" stroke-width="0.75" stroke-miterlimit="10" stroke-linecap="round" stroke-linejoin="round"/>
<path d="M71.3232 64.4668C71.3232 64.4668 73.7591 63.4812 75.5056 64.4668C77.2586 65.4524 86.3259 68.9546 87.9739 64.25" stroke="#D6CDC1" stroke-width="0.75" stroke-miterlimit="10" stroke-linecap="round" stroke-linejoin="round"/>
<path d="M95.3668 53.5201C95.3668 53.5201 92.6485 50.5633 93.8435 46.1281C95.0385 41.6929 100.619 33.1116 108.006 36.1275C115.392 39.1435 111.781 56.4769 109.319 65.6758C107.218 73.5212 104.283 85.1973 99.9956 90.191C98.8925 91.4789 96.995 91.7417 95.544 90.8678C90.4687 87.8124 77.4424 79.6188 69.5175 71.4252C69.5175 71.4252 66.563 72.943 64.022 72.5553C64.022 72.5553 62.9584 70.2753 64.022 68.7969C65.0857 67.3185 66.8913 65.5904 67.3837 64.3617C67.8761 63.133 70.0297 62.2262 72.6428 63.2118C75.256 64.1974 73.2928 65.2093 75.8338 66.4446C78.3747 67.6799 94.7102 75.5318 94.7102 75.5318L95.3668 53.5201Z" fill="#FFC196"/>
<path d="M95.3667 53.5201L95.8591 47.6065" stroke="#FF816D" stroke-width="0.75" stroke-miterlimit="10" stroke-linecap="round" stroke-linejoin="round"/>
<path d="M94.71 75.5318C94.71 75.5318 97.0605 77.6147 97.2837 80.4598C97.2837 80.4598 97.8287 74.4345 94.71 72.575V75.5318Z" fill="#FF816D"/>
<path d="M64.9805 105.639C64.9805 105.639 79.6614 102.577 90.0615 103.017" stroke="#4F8073" stroke-width="0.75" stroke-miterlimit="10" stroke-linecap="round" stroke-linejoin="round"/>
<path d="M82.0713 102.031C82.0713 102.031 92.5436 98.9629 97.3169 99.2914" stroke="#4F8073" stroke-width="0.75" stroke-miterlimit="10" stroke-linecap="round" stroke-linejoin="round"/>
<path d="M51.1006 122.841C51.1006 122.841 55.5259 121.894 58.835 123.301" stroke="#4F8073" stroke-width="0.75" stroke-miterlimit="10" stroke-linecap="round" stroke-linejoin="round"/>
<path d="M58.5724 102.623C58.5724 102.623 58.7365 100.369 58.1915 98.3978C57.6466 96.4266 57.7516 95.441 58.8481 95.165C59.9446 94.8891 61.3628 95.441 62.1835 94.232C62.1835 94.232 63.0042 94.5605 62.6234 95.4344C62.2426 96.3083 61.5269 97.6816 59.9446 97.7342C59.9446 97.7342 62.1901 100.146 63.7724 100.855L65.7093 100.638C65.7093 100.638 68.0992 99.1337 69.8457 100.297C69.8457 100.297 68.8214 101.92 67.1472 102.623C67.1472 102.623 70.2527 101.203 71.9795 102.176C71.9795 102.176 72.032 102.616 71.4871 102.997C70.9421 103.378 66.2542 105.645 66.2542 105.645H62.7875C62.7875 105.645 60.437 105.028 60.6537 104.476L60.7062 103.957C60.7062 103.957 58.5461 103.457 58.5724 102.623Z" fill="#FFC196"/>
<path d="M60.7065 103.957C60.7065 103.957 63.4576 104.173 67.1409 102.623" stroke="#FF816D" stroke-width="0.75" stroke-miterlimit="10" stroke-linecap="round" stroke-linejoin="round"/>
<path d="M76.8188 25.4305L77.9153 24.9377L77.1406 26.1138L76.8188 25.4305Z" fill="#FF816D"/>
<path d="M74.4419 19.7863L74.9343 20.3908C74.9343 20.3908 76.0045 20.1148 76.5429 18.9584" stroke="#43404C" stroke-width="0.5" stroke-miterlimit="10" stroke-linecap="round" stroke-linejoin="round"/>
<path d="M73.0039 17.5194C73.0039 17.5194 73.4832 16.0673 75.8797 16.087" stroke="#43404C" stroke-miterlimit="10" stroke-linecap="round" stroke-linejoin="round"/>
<path d="M78.2432 26.4161C78.2432 26.4161 79.8583 27.0206 80.8169 24.9377" stroke="#FF816D" stroke-width="0.5" stroke-miterlimit="10" stroke-linecap="round" stroke-linejoin="round"/>
<path d="M57.3712 67.7127L55.6772 63.3498" stroke="#F7E8D3" stroke-miterlimit="10" stroke-linecap="round" stroke-linejoin="round"/>
<path d="M54.6333 69.9402L50.0898 67.1345" stroke="#F7E8D3" stroke-miterlimit="10" stroke-linecap="round" stroke-linejoin="round"/>
<path d="M53.6483 73.3635L48.5796 73.9089" stroke="#F7E8D3" stroke-miterlimit="10" stroke-linecap="round" stroke-linejoin="round"/>
<path d="M19.2573 100.652V28.8867" stroke="#68BAA5" stroke-miterlimit="10"/>
<path d="M38.521 97.0508H0V137.842H38.521V97.0508Z" fill="#343233"/>
<path d="M38.5211 97.0508H27.5498V137.841H38.5211V97.0508Z" fill="#252122"/>
<path d="M0 105.763H38.521" stroke="#252122" stroke-width="2" stroke-miterlimit="10"/>
<path d="M27.333 105.763H38.521" stroke="#2C292A" stroke-width="2" stroke-miterlimit="10"/>
<path d="M0 110.573H38.521" stroke="#252122" stroke-width="2" stroke-miterlimit="10"/>
<path d="M27.333 110.573H38.521" stroke="#2C292A" stroke-width="2" stroke-miterlimit="10"/>
<path d="M19.2571 67.5288C19.2571 67.5288 14.2278 69.7759 10.4 67.8376C6.56562 65.9058 5.38379 60.5244 5.38379 60.5244C5.38379 60.5244 10.4131 58.2773 14.2409 60.2156C18.0753 62.154 19.2571 67.5288 19.2571 67.5288Z" fill="#68BAA5"/>
<path d="M19.2571 90.789C19.2571 90.789 14.2278 93.0361 10.4 91.1043C6.56562 89.1726 5.38379 83.7912 5.38379 83.7912C5.38379 83.7912 10.4131 81.544 14.2409 83.4824C18.0753 85.4076 19.2571 90.789 19.2571 90.789Z" fill="#68BAA5"/>
<path d="M19.257 53.4413C19.257 53.4413 16.3747 54.7291 14.1817 53.6187C11.9888 52.5082 11.3125 49.4266 11.3125 49.4266C11.3125 49.4266 14.1948 48.1387 16.3878 49.2492C18.5807 50.3596 19.257 53.4413 19.257 53.4413Z" fill="#68BAA5"/>
<path d="M19.3228 31.2652C19.3228 31.2652 17.3202 28.2427 17.8323 24.9771C18.3445 21.7115 21.1743 19.4446 21.1743 19.4446C21.1743 19.4446 23.1768 22.4671 22.6647 25.7327C22.1526 28.9984 19.3228 31.2652 19.3228 31.2652Z" fill="#68BAA5"/>
<path d="M19.2573 82.1682C19.2573 82.1682 19.7629 76.6817 23.3281 74.29C26.8867 71.8982 32.1589 73.5015 32.1589 73.5015C32.1589 73.5015 31.6534 78.988 28.0882 81.3797C24.5296 83.7714 19.2573 82.1682 19.2573 82.1682Z" fill="#68BAA5"/>
<path d="M19.2573 51.1349C19.2573 51.1349 19.8548 46.7654 22.8488 44.7483C25.8493 42.7311 30.117 43.8349 30.117 43.8349C30.117 43.8349 29.5195 48.2044 26.5256 50.2216C23.525 52.2388 19.2573 51.1349 19.2573 51.1349Z" fill="#68BAA5"/>
<path d="M19.1524 35.1945C19.1524 35.1945 15.121 36.9751 11.8316 35.477C8.5422 33.9789 7.24219 29.7606 7.24219 29.7606C7.24219 29.7606 11.2735 27.9799 14.563 29.478C17.8524 30.9827 19.1524 35.1945 19.1524 35.1945Z" fill="#68BAA5"/>
<path d="M19.2573 35.1945C19.2573 35.1945 23.2887 36.9751 26.5781 35.477C29.8675 33.9789 31.1675 29.7606 31.1675 29.7606C31.1675 29.7606 27.1362 27.9799 23.8468 29.478C20.5573 30.9827 19.2573 35.1945 19.2573 35.1945Z" fill="#68BAA5"/>
</svg>
